<svg xmlns="http://www.w3.org/2000/svg" width="31.805" height="26.029"><g data-name="组 1473"><g data-name="组 1472"><path data-name="路径 406" d="M6.374 20.88h7.437a1.062 1.062 0 0 1 1.046.878 1.127 1.127 0 0 0 2.18.059 1.121 1.121 0 0 1 1.023-.937h7.437a3.187 3.187 0 0 0 3.187-3.187V3.187A3.187 3.187 0 0 0 25.497 0H18.06a3.033 3.033 0 0 0-2.091.854A3.165 3.165 0 0 0 13.811 0H6.374a3.187 3.187 0 0 0-3.187 3.187v14.506a3.187 3.187 0 0 0 3.187 3.187zM18.06 2.125h7.437a1.062 1.062 0 0 1 1.063 1.062v14.506a1.062 1.062 0 0 1-1.063 1.062H18.06a2.985 2.985 0 0 0-1.062.194V3.407a1.19 1.19 0 0 1 1.062-1.282zM5.312 3.187a1.061 1.061 0 0 1 1.062-1.062h7.437a1.062 1.062 0 0 1 1.062 1.062v15.751a3.172 3.172 0 0 0-1.062-.181H6.374a1.062 1.062 0 0 1-1.062-1.063zm0 0"/><path data-name="路径 407" d="M30.742 5.312a1.062 1.062 0 0 0-1.062 1.062v14.874a1.063 1.063 0 0 1-1.063 1.062h-7.436a3.191 3.191 0 0 0-2.762 1.594h-5.034a3.191 3.191 0 0 0-2.761-1.594H3.187a1.063 1.063 0 0 1-1.063-1.062V6.374a1.062 1.062 0 0 0-2.124 0v14.874a3.187 3.187 0 0 0 3.187 3.187h7.437a1.065 1.065 0 0 1 1.029.8 1.064 1.064 0 0 0 1.03.8h6.44a1.064 1.064 0 0 0 1.029-.8 1.064 1.064 0 0 1 1.029-.8h7.436a3.188 3.188 0 0 0 3.188-3.187V6.374a1.062 1.062 0 0 0-1.063-1.062zm0 0"/><path data-name="路径 408" d="M7.968 6.905h3.756a1.062 1.062 0 1 0 0-2.124H7.968a1.062 1.062 0 1 0 0 2.124zm0 4.25h3.756a1.063 1.063 0 1 0 0-2.125H7.968a1.063 1.063 0 1 0 0 2.125zm0 0"/></g></g></svg>