<svg xmlns="http://www.w3.org/2000/svg" width="30.308" height="30.307"><g data-name="组 1475"><g data-name="组 1474"><path data-name="路径 409" d="M14.776 17.429v-.792a7.811 7.811 0 0 0 2.973-3.721c.445-.189.765-.724 1.023-1.678a1.256 1.256 0 0 0-.553-1.5c-.213-3.486-2.29-5.491-5.471-5.491-3.226 0-5.4 2.063-5.569 5.642a1.393 1.393 0 0 0-.447 1.55c.279 1.033.623 1.626 1.1 1.854a7.869 7.869 0 0 0 2.891 3.353v.781c-3.121.33-5.408 1.4-5.408 2.669 0 1.532 14.873 1.532 14.873 0 0-1.27-2.287-2.339-5.409-2.669zm0 0"/><path data-name="路径 410" d="M26.56 23.372V3.187A3.187 3.187 0 0 0 23.372 0H3.187A3.186 3.186 0 0 0 0 3.187v20.185a3.187 3.187 0 0 0 3.187 3.188h20.185a3.187 3.187 0 0 0 3.188-3.188zm-24.436 0V3.187a1.063 1.063 0 0 1 1.063-1.063h20.185a1.063 1.063 0 0 1 1.063 1.063v20.185a1.063 1.063 0 0 1-1.063 1.063H3.187a1.063 1.063 0 0 1-1.063-1.063zm0 0"/><path data-name="路径 411" d="M29.245 3.377a1.063 1.063 0 0 0-1.062 1.063v22.546a1.192 1.192 0 0 1-1.192 1.192H6.699a1.063 1.063 0 0 0 0 2.125h20.292a3.319 3.319 0 0 0 3.317-3.317V4.44a1.063 1.063 0 0 0-1.063-1.063zm0 0"/></g></g></svg>