<svg xmlns="http://www.w3.org/2000/svg" width="29.747" height="29.748"><g data-name="组 1476"><path data-name="路径 412" d="M29.363 15.654c-.858-3.97-3.685-7.91-6.051-7.226a3.376 3.376 0 0 0-1.917 1.309 2.7 2.7 0 0 0-2.307-.051 2.861 2.861 0 0 0-1.337 1.18 3.262 3.262 0 0 0-2.951.061 3.552 3.552 0 0 0-.639.38c-2.583-3.651-4.694-5.3-6.6-4.868-2.694.61-2.694 2.96-.65 6.038l3.924 6.069c-2.153-.4-3.711-.058-4.634 1.176-1.51 2.018.088 3.883 3.8 5.552l7.17 3.189a1.062 1.062 0 0 0 .864-1.941l-7.166-3.187a8.66 8.66 0 0 1-2.841-1.774c-.255-.3-.262-.381-.123-.567.525-.7 2.156-.7 5 .36a1.063 1.063 0 0 0 1.263-1.573l-5.477-8.468c-1.361-2.05-1.361-2.641-.658-2.8.932-.21 2.892 1.641 5.5 5.663a5.765 5.765 0 0 0 .91 1.427 1.063 1.063 0 0 0 1.719-1.239q-.376-.615-.765-1.223c.018-.124.128-.2.309-.289a1.193 1.193 0 0 1 1.733.521 1.062 1.062 0 0 0 1.927-.551c.042-.7.237-1.039.582-1.191.3-.13.667-.018 1.244.532a1.062 1.062 0 0 0 1.791-.675c.049-.549.3-.838.923-1.019.655-.189 2.761 2.745 3.385 5.634a20.166 20.166 0 0 1-.01 7.408 1.063 1.063 0 1 0 2.1.337 22.259 22.259 0 0 0-.012-8.193zm0 0"/><path data-name="路径 413" d="M7.861 27.623H3.328a1.223 1.223 0 0 1-1.2-1.24V3.365a1.223 1.223 0 0 1 1.2-1.24h12.465a1.223 1.223 0 0 1 1.205 1.24 1.063 1.063 0 0 0 2.125 0A3.347 3.347 0 0 0 15.794 0H3.328A3.346 3.346 0 0 0 0 3.365v23.019a3.346 3.346 0 0 0 3.328 3.364h4.533a1.063 1.063 0 1 0 0-2.125zm0 0"/></g></svg>