<svg xmlns="http://www.w3.org/2000/svg" width="29.747" height="29.747"><g data-name="组 1478"><g data-name="组 1477"><path data-name="路径 414" d="M15.936 10.773V1.062a1.063 1.063 0 0 0-2.125 0v9.711a4.231 4.231 0 0 0 0 8.2v9.682a1.063 1.063 0 1 0 2.125 0v-9.682a4.23 4.23 0 0 0 0-8.2zM5.283 21.389a1.136 1.136 0 0 0 .029-.141V1.062a1.063 1.063 0 0 0-2.125 0v20.186a.981.981 0 0 0 .029.141 4.249 4.249 0 1 0 2.067 0zm-1.034 6.233a2.125 2.125 0 1 1 2.126-2.125 2.125 2.125 0 0 1-2.126 2.125zm25.5-23.373a4.25 4.25 0 1 0-5.283 4.108.946.946 0 0 0-.029.142v20.185a1.063 1.063 0 1 0 2.125 0V8.497a1.105 1.105 0 0 0-.029-.142 4.241 4.241 0 0 0 3.216-4.108zm-4.25 2.125a2.125 2.125 0 1 1 2.126-2.125 2.125 2.125 0 0 1-2.126 2.125zm0 0"/></g></g></svg>