<svg xmlns="http://www.w3.org/2000/svg" width="31.872" height="27.622"><g data-name="组 1480"><g data-name="组 1479"><path data-name="路径 415" d="M24.747 21.999a1.06 1.06 0 0 0 1.5 0l5.312-5.312a1.062 1.062 0 0 0 0-1.5l-5.312-5.312a1.062 1.062 0 0 0-1.5 1.5l4.561 4.561-4.561 4.561a1.06 1.06 0 0 0 0 1.5zm-5.061-12.7l-3.187 12.749a1.063 1.063 0 1 0 2.062.515l3.188-12.748a1.063 1.063 0 0 0-2.063-.516zm-6.186.569a1.06 1.06 0 0 0-1.5 0L6.688 15.18a1.06 1.06 0 0 0 0 1.5L12 21.992a1.062 1.062 0 0 0 1.5-1.5l-4.561-4.561L13.5 11.37a1.06 1.06 0 0 0 0-1.5zm0 0"/><path data-name="路径 416" d="M28.685 0h-25.5A3.187 3.187 0 0 0-.002 3.187v21.248a3.187 3.187 0 0 0 3.187 3.187h25.5a3.187 3.187 0 0 0 3.187-3.187v-1.711a1.063 1.063 0 1 0-2.125 0v1.711a1.062 1.062 0 0 1-1.062 1.062h-25.5a1.062 1.062 0 0 1-1.062-1.062V6.905h27.622V9.03a1.063 1.063 0 1 0 2.125 0V3.187A3.187 3.187 0 0 0 28.683 0zm1.062 4.781H2.125V3.187a1.062 1.062 0 0 1 1.062-1.062h25.5a1.062 1.062 0 0 1 1.062 1.062zm0 0"/></g></g></svg>