<svg xmlns="http://www.w3.org/2000/svg" width="25.497" height="31.872"><g data-name="组 1481"><path data-name="路径 417" d="M5.312 9.56h14.873a1.063 1.063 0 1 0 0-2.125H5.312a1.063 1.063 0 1 0 0 2.125zm0 7.437h14.873a1.063 1.063 0 1 0 0-2.125H5.312a1.063 1.063 0 1 0 0 2.125zm8.5 5.312h-8.5a1.062 1.062 0 1 0 0 2.124h8.5a1.062 1.062 0 0 0 0-2.124zm0 0"/><path data-name="路径 418" d="M25.497 3.351A3.324 3.324 0 0 0 22.208 0H3.288A3.324 3.324 0 0 0 0 3.351v25.17a3.325 3.325 0 0 0 3.288 3.351H17.73a.884.884 0 0 0 .147-.03 1.042 1.042 0 0 0 .863-.216l6.374-5.312a1.046 1.046 0 0 0 .359-.9.9.9 0 0 0 .024-.114zM2.125 28.521V3.351a1.2 1.2 0 0 1 1.163-1.226h18.92a1.2 1.2 0 0 1 1.165 1.226v20.022h-3.188a3.187 3.187 0 0 0-3.187 3.187v3.187H3.288a1.2 1.2 0 0 1-1.163-1.226zm20.651-3.023l-3.653 3.043V26.56a1.062 1.062 0 0 1 1.062-1.062zm0 0"/></g></svg>