<svg xmlns="http://www.w3.org/2000/svg" width="29.216" height="31.775"><g data-name="组 1482"><path data-name="路径 419" d="M23.579 16.461l-1.923-2.746 1.923-2.747a1.063 1.063 0 0 0-.686-1.655l-3.3-.582-.582-3.3a1.063 1.063 0 0 0-1.656-.686L14.61 6.669l-2.746-1.923a1.062 1.062 0 0 0-1.655.686l-.583 3.3-3.3.581a1.062 1.062 0 0 0-.687 1.655l1.924 2.747-1.923 2.746a1.062 1.062 0 0 0 .686 1.655l3.3.582.582 3.3a1.062 1.062 0 0 0 1.655.687l2.745-1.924 2.746 1.923a1.064 1.064 0 0 0 1.656-.687l.582-3.3 3.3-.582a1.062 1.062 0 0 0 .685-1.654zm-4.09-2.137l1.393 1.989-2.392.422a1.061 1.061 0 0 0-.861.862l-.422 2.391-1.989-1.393a1.064 1.064 0 0 0-1.219 0l-1.988 1.393-.422-2.391a1.063 1.063 0 0 0-.862-.862l-2.391-.422 1.392-1.989a1.059 1.059 0 0 0 0-1.218l-1.392-1.989 2.391-.422a1.063 1.063 0 0 0 .862-.861l.422-2.392 1.988 1.393a1.062 1.062 0 0 0 1.219 0l1.989-1.393.422 2.392a1.061 1.061 0 0 0 .861.861l2.392.422-1.393 1.989a1.062 1.062 0 0 0 0 1.218zm0 0"/><path data-name="路径 420" d="M14.608 0A14.608 14.608 0 0 0 4.427 25.084a1.062 1.062 0 1 0 1.481-1.523 12.483 12.483 0 1 1 17.659-.26 1.063 1.063 0 1 0 1.525 1.48A14.609 14.609 0 0 0 14.608 0zm0 0"/><path data-name="路径 421" d="M20.983 24.109a1.063 1.063 0 0 0-1.063 1.063v3.555l-4.722-3.149a1.079 1.079 0 0 0-.384-.157 1.018 1.018 0 0 0-.2 0 1.1 1.1 0 0 0-.2 0 1.082 1.082 0 0 0-.383.157l-4.723 3.151v-3.328a1.063 1.063 0 0 0-2.125 0v5.312c0 .033.016.062.019.1a1.066 1.066 0 0 0 .124.4c.016.029.018.062.036.09s.05.044.072.071a1.041 1.041 0 0 0 .713.381.954.954 0 0 0 .1.02c.033 0 .061-.016.094-.019a1.063 1.063 0 0 0 .407-.123c.029-.016.062-.018.089-.036l5.784-3.857 5.785 3.857a1.064 1.064 0 0 0 1.473-.294 1.052 1.052 0 0 0 .159-.72c0-.035.02-.064.02-.1v-5.311a1.063 1.063 0 0 0-1.062-1.063zm0 0"/></g></svg>