<svg xmlns="http://www.w3.org/2000/svg" width="29.747" height="29.747"><g data-name="组 1484"><g data-name="组 1483"><path data-name="路径 422" d="M6.51 15.936H3.187a1.062 1.062 0 0 1-1.062-1.063v-8.5h15.936v8.5a1.063 1.063 0 0 1-1.063 1.063h-1.825a1.062 1.062 0 0 0 0 2.124h1.825a3.187 3.187 0 0 0 3.187-3.187V3.187A3.186 3.186 0 0 0 16.998 0H3.187A3.186 3.186 0 0 0 0 3.187v11.686a3.187 3.187 0 0 0 3.187 3.187H6.51a1.062 1.062 0 1 0 0-2.124zM2.125 3.187a1.062 1.062 0 0 1 1.062-1.063h13.811a1.063 1.063 0 0 1 1.063 1.063v1.062H2.125zm0 0"/><path data-name="路径 423" d="M26.56 11.686h-3.017a1.063 1.063 0 1 0 0 2.125h3.017a1.062 1.062 0 0 1 1.062 1.062v8.5H11.686v-8.5a1.062 1.062 0 0 1 1.063-1.062h2.093a1.063 1.063 0 1 0 0-2.125h-2.093a3.187 3.187 0 0 0-3.188 3.187V26.56a3.188 3.188 0 0 0 3.188 3.187H26.56a3.187 3.187 0 0 0 3.187-3.187V14.873a3.187 3.187 0 0 0-3.187-3.187zm1.062 14.874a1.063 1.063 0 0 1-1.062 1.062H12.749a1.063 1.063 0 0 1-1.063-1.062v-1.063h15.936zm0 0"/></g></g></svg>