<svg xmlns="http://www.w3.org/2000/svg" width="31.873" height="31.873"><g data-name="组 1486"><path data-name="路径 426" d="M30.194 27.671a14.867 14.867 0 0 0-13.195-10.624v-6.423h4.25a1.062 1.062 0 0 0 1.062-1.062v-4.25a1.061 1.061 0 0 0-1.062-1.062H10.625a1.062 1.062 0 0 0-1.063 1.062v4.25a1.063 1.063 0 0 0 1.063 1.062h4.249v6.423a14.87 14.87 0 0 0-13.2 10.624 2.138 2.138 0 1 0 2.021.659 12.749 12.749 0 0 1 11.176-9.157v8.745a2.126 2.126 0 1 0 2.125 0v-8.745a12.747 12.747 0 0 1 11.176 9.159 2.1 2.1 0 0 0-.552 1.415 2.125 2.125 0 1 0 2.571-2.076zm0 0"/><path data-name="路径 427" d="M8.5 14.874h2.572a1.063 1.063 0 0 0 0-2.125H8.5a1.062 1.062 0 0 1-1.062-1.062v-8.5A1.061 1.061 0 0 1 8.5 2.125h14.874a1.062 1.062 0 0 1 1.062 1.062v8.5a1.063 1.063 0 0 1-1.062 1.062h-3.009a1.063 1.063 0 1 0 0 2.125h3.009a3.187 3.187 0 0 0 3.187-3.187v-8.5A3.187 3.187 0 0 0 23.374 0H8.5a3.187 3.187 0 0 0-3.187 3.187v8.5A3.187 3.187 0 0 0 8.5 14.874zm0 0"/></g></svg>