<svg xmlns="http://www.w3.org/2000/svg" width="29.747" height="29.747"><g data-name="组 1488"><g data-name="组 1487"><path data-name="路径 428" d="M8.499 14.873a6.375 6.375 0 1 0 6.374-6.374 6.375 6.375 0 0 0-6.374 6.374zm0 0"/><path data-name="路径 429" d="M29.747 14.873a14.821 14.821 0 0 0-.917-5.152 1.062 1.062 0 0 0-1.993.735 12.528 12.528 0 0 1 .591 6.562 2.109 2.109 0 0 0-1.222 3.679A12.728 12.728 0 0 1 2.319 12.73a2.111 2.111 0 0 0 1.222-3.68 12.666 12.666 0 0 1 14.563-6.495A2.141 2.141 0 1 0 18.783.54a14.776 14.776 0 0 0-17.4 8.1 2.11 2.11 0 0 0-1.051 3.117 14.866 14.866 0 0 0 28.032 9.352 2.11 2.11 0 0 0 1.051-3.117 14.979 14.979 0 0 0 .332-3.118zm0 0"/></g></g></svg>