<svg xmlns="http://www.w3.org/2000/svg" width="25.497" height="31.872"><g data-name="组 1490"><g data-name="组 1489"><path data-name="路径 430" d="M10.199 9.774a1.064 1.064 0 0 0-1.488.212l-3.187 4.25a1.061 1.061 0 0 0 0 1.275l3.187 4.249a1.063 1.063 0 1 0 1.7-1.275l-2.709-3.612 2.709-3.612a1.062 1.062 0 0 0-.212-1.487zm10.411 10.2a1.062 1.062 0 0 0 1.487-.213l3.188-4.249a1.064 1.064 0 0 0 0-1.275l-3.188-4.25a1.063 1.063 0 1 0-1.7 1.275l2.709 3.612-2.709 3.612a1.063 1.063 0 0 0 .212 1.488zM15.43 9.332l-2.125 9.561a1.062 1.062 0 1 0 2.074.461l2.125-9.561a1.062 1.062 0 1 0-2.074-.461zm0 0"/><path data-name="路径 431" d="M24.435 20.065a1.063 1.063 0 0 0-1.063 1.062v2.245h-3.187a3.187 3.187 0 0 0-3.187 3.188v3.187H3.288a1.2 1.2 0 0 1-1.164-1.226V3.35a1.2 1.2 0 0 1 1.164-1.226h18.92a1.2 1.2 0 0 1 1.164 1.226v4.132a1.063 1.063 0 0 0 2.125 0V3.35A3.324 3.324 0 0 0 22.208 0H3.288A3.323 3.323 0 0 0 0 3.35v25.171a3.324 3.324 0 0 0 3.288 3.351H17.73a.977.977 0 0 0 .146-.03 1.044 1.044 0 0 0 .863-.217l6.375-5.312a1.062 1.062 0 0 0 .336-1.125.969.969 0 0 0 .047-.227v-3.834a1.063 1.063 0 0 0-1.062-1.062zm-4.25 5.432h2.59l-3.652 3.044V26.56a1.062 1.062 0 0 1 1.062-1.063zm0 0"/></g></g></svg>