<svg xmlns="http://www.w3.org/2000/svg" width="28.548" height="29.748"><g data-name="组 1491"><path data-name="路径 433" d="M16.972 27.623a1.063 1.063 0 1 1 0 2.125H3.187A3.187 3.187 0 0 1 0 26.56V3.188A3.187 3.187 0 0 1 3.187 0h18.061a3.187 3.187 0 0 1 3.187 3.188 1.063 1.063 0 0 1-2.125 0 1.063 1.063 0 0 0-1.062-1.063H3.187a1.063 1.063 0 0 0-1.063 1.063V26.56a1.063 1.063 0 0 0 1.063 1.063zm7.463-10.3v4.869a1.063 1.063 0 0 1-2.125 0v-4.869a1.063 1.063 0 1 1 2.125 0zm0 0"/><path data-name="路径 434" d="M6.374 8.5a1.063 1.063 0 0 1 0-2.125h7.437a1.063 1.063 0 0 1 0 2.125zm0 5.312a1.063 1.063 0 0 1 0-2.125h4.25a1.063 1.063 0 0 1 0 2.125zm11.667 14.826a1.063 1.063 0 1 1-2.125 0l.02-4.2a3.187 3.187 0 0 1 3.187-3.188l4.241.039a1.062 1.062 0 0 1 0 2.124l-4.241-.038a1.063 1.063 0 0 0-1.063 1.063zm0 0"/><path data-name="路径 435" d="M17.991 29.337a1.063 1.063 0 1 1-1.471-1.534l5.989-5.743a1.062 1.062 0 1 1 1.47 1.533zm8.067-20.355a1.043 1.043 0 0 0 .111-1.475l-.014-.017a1.063 1.063 0 0 0-1.491-.111l-14.3 12.152-.505 1.722 1.937-.151zm1.714-2.869a3.167 3.167 0 0 1-.313 4.466L12.915 22.944a1.064 1.064 0 0 1-.6.25l-3.817.295a1.062 1.062 0 0 1-1.1-1.359l1.027-3.5a1.075 1.075 0 0 1 .332-.51L23.292 5.763a3.189 3.189 0 0 1 4.472.335zm0 0"/></g></svg>