<svg xmlns="http://www.w3.org/2000/svg" width="31.873" height="25.497"><g data-name="组 1511"><path data-name="路径 473" d="M31.707 23.864L16.833.492a1.063 1.063 0 0 0-1.793 0L.166 23.864a1.063 1.063 0 0 0 .9 1.633h29.747a1.063 1.063 0 0 0 .9-1.633zm-28.709-.492L15.935 3.041l12.938 20.331zm0 0"/><path data-name="路径 474" d="M15.399 6.394L6.474 20.418a.639.639 0 0 0 .538.98H24.86a.638.638 0 0 0 .538-.98L16.474 6.394a.637.637 0 0 0-1.075 0zm1.6 13.516h-2.125v-2.125h2.125zm0-9.561v6.374h-2.125v-6.374zm0 0"/></g></svg>