<svg class="icon" viewBox="0 0 1024 1024" xmlns="http://www.w3.org/2000/svg" width="200" height="200"><defs><style/></defs><path d="M91.853 180.275l370.125 307.712a76.8 76.8 0 0 0 98.201 0l370.432-308.019a51.507 51.507 0 0 0-9.011-.768H102.4c-3.584 0-7.168.358-10.547 1.075zM53.555 215.04A51.2 51.2 0 0 0 51.2 230.4v563.2a51.2 51.2 0 0 0 51.2 51.2h819.2a51.2 51.2 0 0 0 51.2-51.2V230.4a51.149 51.149 0 0 0-2.765-16.589L592.896 527.31a128 128 0 0 1-163.635 0L53.555 215.04zM102.4 128h819.2A102.4 102.4 0 0 1 1024 230.4v563.2A102.4 102.4 0 0 1 921.6 896H102.4A102.4 102.4 0 0 1 0 793.6V230.4A102.4 102.4 0 0 1 102.4 128z"/></svg>