<svg class="icon" viewBox="0 0 1024 1024" xmlns="http://www.w3.org/2000/svg" width="200" height="200"><defs><style/></defs><path d="M805.693 973.005a93.184 93.184 0 0 1-4.669-.103h-597.76c-40.038 0-63.089-16.87-75.366-31.017-26.926-31.001-24.76-73.036-23.552-84.7V497.66h64v363.909l-.297 1.884c-.763 6.4-.835 26.276 8.289 36.608 1.93 2.186 7.803 8.837 26.931 8.837h600.31l.747.082c2.15.077 22.318.435 34.996-11.556 8.453-7.992 12.743-21.212 12.743-39.29V497.376h64v360.755c0 45.876-18.247 72.372-33.556 86.528-27.536 25.462-62.413 28.35-76.816 28.35zM136.351 527.693H37.99a32 32 0 0 1-21.228-55.936L488.98 52.664a32 32 0 0 1 42.225-.225l478.782 415.79a32 32 0 0 1-20.066 56.146l-104.94 3.016a32 32 0 0 1-1.837-63.975l22.937-.66-395.627-343.578-388.188 344.51h14.08a32 32 0 0 1 0 64zM403 941.204a26.998 26.998 0 0 1-27.004-26.997V688.364c0-4.87 1.24-24.904 20.02-43.997 22.804-23.173 61.46-34.923 114.903-34.923 52.638 0 90.88 11.909 113.653 35.4 19.226 19.83 20.465 40.704 20.43 46.243v222.254a26.998 26.998 0 1 1-54.001 0V691.405c-.18-1.162-1.311-6.103-8.018-11.54-7.568-6.134-26.998-16.42-72.064-16.42-52.276 0-70.846 13.143-76.406 18.79-2.729 2.775-3.876 5.14-4.357 6.63a7.885 7.885 0 0 0-.154.548v224.794A26.998 26.998 0 0 1 403 941.204zm6.998-215.198l-9 205.988-237.999-13-16.998-254.003 4.997-165.996L80 475.996 509.005 86.994l422.994 368.998L889 496.993l-18.002 370.002L854 923.996l-224 7.998-4-148.998-14-100.003-28.002-23-54.999-9-67.993 6-42.005 6z"/></svg>