<svg class="icon" viewBox="0 0 1024 1024" xmlns="http://www.w3.org/2000/svg" width="200" height="200"><defs><style/></defs><path d="M512 23.273C242.083 23.273 23.273 242.083 23.273 512S242.083 1000.727 512 1000.727 1000.727 781.917 1000.727 512 781.917 23.273 512 23.273m0 69.818c230.982 0 418.91 187.927 418.91 418.909S742.981 930.91 512 930.91 93.09 742.981 93.09 512 281.019 93.09 512 93.09M395.66 514.305a115.968 115.968 0 0 1 34.07-84.573 115.898 115.898 0 0 1 84.574-34.071l228.073-114.037L628.34 509.696a115.968 115.968 0 0 1-34.07 84.573 115.898 115.898 0 0 1-84.597 34.071L281.6 742.377l114.06-228.073zM512 465.454a46.569 46.569 0 0 0 0 93.091 46.569 46.569 0 0 0 0-93.09z"/></svg>