<svg xmlns="http://www.w3.org/2000/svg" width="27.622" height="31.872" viewBox="0 0 27.622 31.872">
  <g id="组_1503" data-name="组 1503" transform="translate(-2049.796 -5276.906)">
    <path id="路径_459" data-name="路径 459" d="M2057.5,5292.842l2.709,3.613a1.062,1.062,0,0,1-1.7,1.275l-3.188-4.25a1.063,1.063,0,0,1,0-1.275l3.188-4.25a1.062,1.062,0,0,1,1.7,1.275Zm12.7,3.613a1.062,1.062,0,0,0,1.7,1.275l3.187-4.25a1.063,1.063,0,0,0,0-1.275l-3.187-4.25a1.062,1.062,0,0,0-1.7,1.275l2.709,3.612Zm-5.019.868a1.063,1.063,0,0,1-2.074-.462l2.125-9.561a1.063,1.063,0,0,1,2.074.461Zm0,0" fill=""/>
    <path id="路径_460" data-name="路径 460" d="M2075.644,5300.409a1.063,1.063,0,1,1,1.394,1.6l-7.32,6.5a1.059,1.059,0,0,1-.7.26h-15.938a3.319,3.319,0,0,1-3.288-3.35v-25.171a3.321,3.321,0,0,1,3.288-3.351h21.046a3.321,3.321,0,0,1,3.288,3.351v4.481a1.063,1.063,0,1,1-2.125,0v-4.481a1.2,1.2,0,0,0-1.163-1.226h-21.046a1.2,1.2,0,0,0-1.163,1.226v25.171a1.2,1.2,0,0,0,1.163,1.226h15.541l7.02-6.245Zm0,0" fill=""/>
    <path id="路径_461" data-name="路径 461" d="M2077.418,5301.182a1.063,1.063,0,1,1-2.125,0v-3.028a1.063,1.063,0,0,1,2.125,0Zm0,0" fill=""/>
  </g>
</svg>
