<svg xmlns="http://www.w3.org/2000/svg" width="30" height="30" viewBox="0 0 30 30">
  <g id="组_1658" data-name="组 1658" transform="translate(-2051.694 -5778.625)">
    <g id="组_1657" data-name="组 1657">
      <path id="路径_816" data-name="路径 816" d="M2081.066,5788.267l-9.015-9.015a2.139,2.139,0,0,0-1.514-.627h-16.7a2.143,2.143,0,0,0-2.143,2.142v25.715a2.144,2.144,0,0,0,2.143,2.143h25.715a2.143,2.143,0,0,0,2.142-2.143v-16.7a2.142,2.142,0,0,0-.628-1.515Zm-22.943-7.5h1.607v5.357h-1.607Zm3.75,0h4.821v5.357h-4.821Zm-3.75,25.715v-6.429h17.143v6.429Zm21.429,0h-2.143v-7.5a1.072,1.072,0,0,0-1.072-1.072h-19.285a1.072,1.072,0,0,0-1.072,1.072v7.5h-2.143v-25.715h2.143v6.429a1.071,1.071,0,0,0,1.072,1.071h10.714a1.071,1.071,0,0,0,1.071-1.071v-6.429h1.7l9.015,9.015Zm0,0" fill=""/>
    </g>
  </g>
</svg>
