<svg xmlns="http://www.w3.org/2000/svg" width="31.424" height="27.369" viewBox="0 0 31.424 27.369">
  <g id="组_1631" data-name="组 1631" transform="translate(-1147.562 -5709.127)">
    <path id="路径_747" data-name="路径 747" d="M1178.247,5712.667a1.725,1.725,0,0,0-1.738.053l-3.388,1.856v-3.458a1.993,1.993,0,0,0-1.991-1.991h-19.55a1.993,1.993,0,0,0-1.991,1.991v6.5a1.013,1.013,0,1,0,2.027,0l-.036-6.468,19.513-.036.037,17.559h-3.447a1.014,1.014,0,0,0,0,2.027h3.447a1.993,1.993,0,0,0,1.991-1.992v-4.434l3.386,1.856a2,2,0,0,0,.959.262,1.52,1.52,0,0,0,.781-.209,1.554,1.554,0,0,0,.739-1.384v-10.752a1.556,1.556,0,0,0-.739-1.384Zm-1.289,11.4-3.837-2.1v-5.078l3.837-2.1Zm0,0" fill=""/>
    <path id="路径_748" data-name="路径 748" d="M1156.685,5718.25a9.123,9.123,0,1,0,9.123,9.123,9.133,9.133,0,0,0-9.123-9.123Zm0,16.219a7.1,7.1,0,1,1,7.1-7.1,7.1,7.1,0,0,1-7.1,7.1Zm0,0" fill=""/>
    <path id="路径_749" data-name="路径 749" d="M1156.685,5722.305a1.014,1.014,0,0,0-1.014,1.014v4.786a1.014,1.014,0,1,0,2.028,0v-4.786a1.014,1.014,0,0,0-1.014-1.014Zm0,0" fill=""/>
    <path id="路径_750" data-name="路径 750" d="M1155.671,5731.428a1.014,1.014,0,1,0,1.014-1.013,1.014,1.014,0,0,0-1.014,1.013Zm0,0" fill=""/>
  </g>
</svg>
