<svg xmlns="http://www.w3.org/2000/svg" width="29.747" height="29.747" viewBox="0 0 29.747 29.747">
  <g id="组_1569" data-name="组 1569" transform="translate(-1311.475 -5425.443)">
    <path id="路径_597" data-name="路径 597" d="M1339.1,5425.443h-25.5a2.127,2.127,0,0,0-2.125,2.125v25.5a2.127,2.127,0,0,0,2.125,2.124h19.654a1.062,1.062,0,1,0,0-2.124H1313.6v-25.5h25.5v19.654a1.063,1.063,0,1,0,2.125,0v-19.654a2.127,2.127,0,0,0-2.125-2.125Zm0,0" fill=""/>
    <path id="路径_598" data-name="路径 598" d="M1335.636,5448.1a6.931,6.931,0,1,0-1.5,1.5l3.681,3.681a1.062,1.062,0,1,0,1.5-1.5Zm-10.35-4.067a4.781,4.781,0,1,1,4.781,4.781,4.787,4.787,0,0,1-4.781-4.781Zm10.624-11.952a1.061,1.061,0,0,0-1.062-1.062h-17a1.063,1.063,0,0,0,0,2.125h17a1.062,1.062,0,0,0,1.062-1.063Zm-18.061,5.268a1.062,1.062,0,1,0,0,2.124h3.187a1.062,1.062,0,1,0,0-2.124Zm0,0" fill=""/>
  </g>
</svg>
