<svg xmlns="http://www.w3.org/2000/svg" width="29.875" height="29.878" viewBox="0 0 29.875 29.878">
  <g id="组_1541" data-name="组 1541" transform="translate(-1627.68 -5350.338)">
    <path id="路径_530" data-name="路径 530" d="M1655.487,5352.409c-2.786-2.786-7.69-2.693-12.868-.127-5.177-2.566-10.083-2.659-12.869.127-2.316,2.317-2.639,6.094-1.217,10.271a3.18,3.18,0,0,0,.432,4.068c-1.857,4.544-1.776,8.837.786,11.4,2.786,2.787,7.693,2.694,12.874.125,5.073,2.513,10.027,2.711,12.862-.125s2.637-7.793.123-12.868c2.514-5.076,2.714-10.032-.123-12.869Zm-1.5,24.235c-3.2,3.2-11.043.976-17.375-5.357a1.062,1.062,0,0,0-1.5,1.5,30.341,30.341,0,0,0,5.225,4.194c-3.892,1.59-7.274,1.465-9.079-.34-1.852-1.852-1.877-5.258-.354-9.024.094.008.183.028.279.028a3.176,3.176,0,0,0,2.576-5.049,28.843,28.843,0,0,1,2.856-3.33,1.062,1.062,0,0,0-1.5-1.5,31,31,0,0,0-3.1,3.63,3.074,3.074,0,0,0-.826-.123,3.168,3.168,0,0,0-.822.12c-.953-3.2-.656-5.928.9-7.481,2.071-2.071,6.217-1.932,10.827.472a1.482,1.482,0,0,0,1.081,0c4.609-2.4,8.754-2.541,10.824-.47,1.859,1.859,1.877,5.285.334,9.07a29.336,29.336,0,0,0-2.244-3.07,2.623,2.623,0,0,0,.351-1.295,2.656,2.656,0,1,0-2.656,2.656,2.6,2.6,0,0,0,.611-.078,26.517,26.517,0,0,1,2.835,4.082,27.249,27.249,0,0,1-4.189,5.589,2.749,2.749,0,0,0-.32-.031,2.656,2.656,0,1,0,2.184,1.149,29.921,29.921,0,0,0,3.428-4.411c1.542,3.784,1.525,7.212-.334,9.071Zm0,0" fill=""/>
    <path id="路径_531" data-name="路径 531" d="M1642.864,5361.273a4.25,4.25,0,1,0,4.25,4.25,4.25,4.25,0,0,0-4.25-4.25Zm0,6.374a2.125,2.125,0,1,1,2.126-2.124,2.125,2.125,0,0,1-2.126,2.124Zm0,0" fill=""/>
  </g>
</svg>
