<svg xmlns="http://www.w3.org/2000/svg" width="27.645" height="31.872" viewBox="0 0 27.645 31.872">
  <g id="组_1566" data-name="组 1566" transform="translate(-1944.214 -5424.381)">
    <path id="路径_590" data-name="路径 590" d="M1971.825,5446.522c0-.019.011-.035.011-.055v-18.736a3.324,3.324,0,0,0-3.289-3.35H1947.5a3.323,3.323,0,0,0-3.288,3.35V5452.9a3.324,3.324,0,0,0,3.288,3.351h15.937a1.06,1.06,0,0,0,.7-.261l5.108-4.436a1.062,1.062,0,1,0-1.392-1.6l-3.452,3v-3.969a1.2,1.2,0,0,1,1.165-1.228h5.233a1.061,1.061,0,0,0,1.062-1.062,1.2,1.2,0,0,0-.034-.169Zm-9.551,2.458v5.148H1947.5a1.2,1.2,0,0,1-1.164-1.226v-25.171a1.2,1.2,0,0,1,1.164-1.226h21.045a1.2,1.2,0,0,1,1.164,1.226v17.9h-4.147a3.325,3.325,0,0,0-3.29,3.351Zm0,0" fill=""/>
    <path id="路径_591" data-name="路径 591" d="M1955.9,5448.285a1.594,1.594,0,1,0,1.594-1.594,1.593,1.593,0,0,0-1.594,1.594Zm0,0" fill=""/>
    <path id="路径_592" data-name="路径 592" d="M1957.309,5429.693a6.028,6.028,0,0,0-6.028,6.028,1.063,1.063,0,0,0,2.125,0,3.9,3.9,0,0,1,7.806,0,4.136,4.136,0,0,1-3.9,4.165,1.063,1.063,0,0,0-1.063,1.063v2.085a1.063,1.063,0,1,0,2.125,0v-1.116a6.317,6.317,0,0,0,4.966-6.2,6.028,6.028,0,0,0-6.028-6.028Zm0,0" fill=""/>
  </g>
</svg>
