<svg xmlns="http://www.w3.org/2000/svg" width="31.872" height="29.748" viewBox="0 0 31.872 29.748">
  <g id="组_1547" data-name="组 1547" transform="translate(-1521.434 -5350.423)">
    <g id="组_1546" data-name="组 1546">
      <path id="路径_538" data-name="路径 538" d="M1552.244,5371.671h-2.112v-5.557a1.062,1.062,0,0,0-1.063-1.062h-10.636v-2.942h5.312a1.063,1.063,0,0,0,1.062-1.063v-9.561a1.063,1.063,0,0,0-1.062-1.063H1531a1.062,1.062,0,0,0-1.062,1.063v9.561a1.062,1.062,0,0,0,1.062,1.063h5.312v2.942H1525.75a1.063,1.063,0,0,0-1.063,1.061l-.006,5.558H1522.5a1.063,1.063,0,0,0-1.063,1.063v6.374a1.063,1.063,0,0,0,1.063,1.063h6.374a1.063,1.063,0,0,0,1.063-1.063v-6.374a1.063,1.063,0,0,0-1.063-1.063h-2.065l.005-4.5h9.5v4.5h-2.125a1.062,1.062,0,0,0-1.062,1.063v6.374a1.062,1.062,0,0,0,1.062,1.063h6.375a1.063,1.063,0,0,0,1.062-1.063v-6.374a1.063,1.063,0,0,0-1.062-1.063h-2.125v-4.5h9.574v4.5h-2.137a1.063,1.063,0,0,0-1.063,1.063v6.374a1.063,1.063,0,0,0,1.063,1.063h6.374a1.062,1.062,0,0,0,1.062-1.063v-6.374a1.062,1.062,0,0,0-1.062-1.063Zm-20.186-19.123h10.624v7.437h-10.624Zm-4.249,25.5h-4.25v-4.25h4.25Zm11.686,0h-4.249v-4.25h4.249Zm11.687,0h-4.25v-4.25h4.25Zm0,0" fill=""/>
    </g>
  </g>
</svg>
