<svg xmlns="http://www.w3.org/2000/svg" width="29.216" height="29.216" viewBox="0 0 29.216 29.216">
  <g id="组_1562" data-name="组 1562" transform="translate(-1838.106 -5425.709)">
    <path id="路径_582" data-name="路径 582" d="M1844.481,5440.051l2.709,3.612a1.062,1.062,0,1,1-1.7,1.275l-3.187-4.249a1.061,1.061,0,0,1,0-1.275l3.187-4.25a1.062,1.062,0,0,1,1.7,1.275Zm13.758,3.612a1.062,1.062,0,1,0,1.7,1.275l3.188-4.249a1.063,1.063,0,0,0,0-1.275l-3.188-4.25a1.062,1.062,0,0,0-1.7,1.275l2.709,3.612Zm-5.55.868a1.062,1.062,0,1,1-2.074-.461l2.125-9.562a1.063,1.063,0,1,1,2.074.462Zm0,0" fill=""/>
    <path id="路径_583" data-name="路径 583" d="M1841.293,5427.833a1.063,1.063,0,0,0-1.062,1.063v22.841a1.063,1.063,0,0,0,1.062,1.063h22.842a1.062,1.062,0,0,0,1.062-1.063V5428.9a1.062,1.062,0,0,0-1.062-1.063Zm0-2.124h22.842a3.187,3.187,0,0,1,3.187,3.187v22.841a3.187,3.187,0,0,1-3.187,3.188h-22.842a3.187,3.187,0,0,1-3.187-3.188V5428.9a3.187,3.187,0,0,1,3.187-3.187Zm0,0" fill=""/>
  </g>
</svg>
