<svg xmlns="http://www.w3.org/2000/svg" width="24.435" height="31.872" viewBox="0 0 24.435 31.872">
  <g id="组_1551" data-name="组 1551" transform="translate(-2156.518 -5424.381)">
    <path id="路径_542" data-name="路径 542" d="M2166.611,5450.941a2.125,2.125,0,1,0,2.125-2.125,2.124,2.124,0,0,0-2.125,2.125Zm0,0" fill=""/>
    <path id="路径_543" data-name="路径 543" d="M2177.979,5424.381h-18.486a3.173,3.173,0,0,0-2.975,3.35V5452.9a3.174,3.174,0,0,0,2.975,3.351h18.486a3.173,3.173,0,0,0,2.974-3.351v-25.171a3.172,3.172,0,0,0-2.974-3.35Zm-18.486,2.124h18.486c.422,0,.85.511.85,1.226v.9h-20.186v-.9c0-.715.427-1.226.85-1.226Zm18.486,27.623h-18.486c-.423,0-.85-.511-.85-1.226v-22.147h20.186V5452.9c0,.715-.428,1.226-.85,1.226Zm0,0" fill=""/>
    <path id="路径_544" data-name="路径 544" d="M2175.11,5441.91h-12.749a1.063,1.063,0,0,0,0,2.125h12.749a1.063,1.063,0,1,0,0-2.125Zm-12.749-4.249h8.519a1.063,1.063,0,0,0,0-2.125h-8.519a1.063,1.063,0,0,0,0,2.125Zm0,0" fill=""/>
  </g>
</svg>
