<svg xmlns="http://www.w3.org/2000/svg" width="31.981" height="31.321" viewBox="0 0 31.981 31.321">
  <g id="组_1583" data-name="组 1583" transform="translate(-2047.625 -5495.164)">
    <path id="路径_633" data-name="路径 633" d="M2077.461,5508.949c-.143-7.626-6.054-13.785-13.313-13.785h-1.066c-7.258,0-13.169,6.159-13.312,13.783a4.255,4.255,0,0,0-2.145,3.679v2.132a4.264,4.264,0,1,0,8.528,0v-2.132a4.266,4.266,0,0,0-4.224-4.26c.417-6.177,5.254-11.07,11.153-11.07h1.066c5.9,0,10.736,4.893,11.153,11.07a4.266,4.266,0,0,0-4.223,4.26v2.132a4.253,4.253,0,0,0,3.044,4.065,11.242,11.242,0,0,1-6.394,4.147,2.661,2.661,0,1,0-.252,2.245,13.409,13.409,0,0,0,9.269-6.449,4.253,4.253,0,0,0,2.861-4.008v-2.132a4.247,4.247,0,0,0-2.145-3.677Zm-23.44,3.677v2.132a2.132,2.132,0,1,1-4.264,0v-2.132a2.132,2.132,0,0,1,4.264,0Zm23.453,2.132a2.13,2.13,0,0,1-2.036,2.123l-.084-.04c-.007.017-.019.031-.026.047a2.131,2.131,0,0,1-2.118-2.13v-2.132a2.132,2.132,0,0,1,4.264,0Zm0,0" fill=""/>
  </g>
</svg>
