<svg xmlns="http://www.w3.org/2000/svg" width="28.686" height="31.872" viewBox="0 0 28.686 31.872">
  <g id="组_1565" data-name="组 1565" transform="translate(-1891.025 -5424.381)">
    <path id="路径_587" data-name="路径 587" d="M1915.806,5445.073a6.853,6.853,0,0,0-6.736-5.819,6.766,6.766,0,0,0-5.426,2.694,6.535,6.535,0,1,0-.246,13.064h10.641a5.413,5.413,0,0,0,5.672-5.1,5.157,5.157,0,0,0-3.905-4.843Zm-1.768,7.815h-10.657a4.41,4.41,0,1,1,.636-8.774l.692.1.365-.6a4.683,4.683,0,0,1,8.678,2.343l.019.9.888.132a3.168,3.168,0,0,1,2.926,2.924,3.3,3.3,0,0,1-3.547,2.972Zm0,0" fill=""/>
    <path id="路径_588" data-name="路径 588" d="M1896.266,5454.128h-1.953a1.2,1.2,0,0,1-1.163-1.226v-25.171a1.2,1.2,0,0,1,1.163-1.226h21.045a1.2,1.2,0,0,1,1.165,1.226v13.644a1.063,1.063,0,0,0,2.125,0v-13.644a3.324,3.324,0,0,0-3.29-3.35h-21.045a3.324,3.324,0,0,0-3.288,3.35V5452.9a3.325,3.325,0,0,0,3.288,3.351h1.952a1.063,1.063,0,0,0,0-2.125Zm0,0" fill=""/>
    <path id="路径_589" data-name="路径 589" d="M1910.148,5430.755a1.061,1.061,0,0,0-1.062-1.062H1897.4a1.062,1.062,0,1,0,0,2.124h11.686a1.061,1.061,0,0,0,1.062-1.062ZM1897.4,5435a1.062,1.062,0,1,0,0,2.124h6.374a1.062,1.062,0,1,0,0-2.124Zm0,0" fill=""/>
  </g>
</svg>
