<svg xmlns="http://www.w3.org/2000/svg" width="26.356" height="27.428" viewBox="0 0 26.356 27.428">
  <g id="组_1627" data-name="组 1627" transform="translate(-2104.228 -5638.158)">
    <path id="路径_739" data-name="路径 739" d="M2117.406,5643.256a1.013,1.013,0,0,0,1.014-1.013v-3.072a1.014,1.014,0,0,0-2.028,0v3.072a1.013,1.013,0,0,0,1.014,1.013Zm-5.373,11.405a.406.406,0,0,0-.287.693l5.409,5.409a.405.405,0,0,0,.573,0l5.409-5.409a.406.406,0,0,0-.286-.693h-4.431V5646.3a1.014,1.014,0,0,0-2.028,0v8.364Zm0,0" fill=""/>
    <path id="路径_740" data-name="路径 740" d="M2129.456,5641.055l-5.518-2.727a1.014,1.014,0,0,0-.9,1.817l5.517,2.727V5658.8l-11.15,4.673-11.15-4.673v-15.929l5.517-2.727a1.013,1.013,0,0,0-.9-1.817l-5.518,2.727a2.015,2.015,0,0,0-1.13,1.817V5658.8a2.02,2.02,0,0,0,1.244,1.869l11.543,4.838a1.016,1.016,0,0,0,.784,0l11.542-4.837a2.022,2.022,0,0,0,1.243-1.87v-15.929a2.016,2.016,0,0,0-1.128-1.817Zm0,0" fill=""/>
  </g>
</svg>
