<svg xmlns="http://www.w3.org/2000/svg" width="29.747" height="25.498" viewBox="0 0 29.747 25.498">
  <g id="组_1550" data-name="组 1550" transform="translate(-2153.994 -5352.548)">
    <path id="路径_540" data-name="路径 540" d="M2182.678,5378.046h-27.622a1.062,1.062,0,0,1-1.062-1.062v-23.373a1.062,1.062,0,0,1,1.062-1.063h27.622a1.063,1.063,0,0,1,1.063,1.063v3.879a1.063,1.063,0,1,1-2.125,0v-2.817h-25.5v21.248h25.5v-12.067l-6.85,8.126a1.063,1.063,0,0,1-1.491.132l-6.509-5.4-6.463,5.983a1.062,1.062,0,1,1-1.443-1.558l7.146-6.617a1.062,1.062,0,0,1,1.4-.038l6.415,5.325,8.046-9.544a1.062,1.062,0,0,1,1.874.686v16.038a1.063,1.063,0,0,1-1.063,1.062Zm0,0" fill=""/>
    <path id="路径_541" data-name="路径 541" d="M2161.962,5364.235a3.719,3.719,0,1,1,3.718-3.719,3.723,3.723,0,0,1-3.718,3.719Zm0-5.312a1.594,1.594,0,1,0,1.593,1.593,1.6,1.6,0,0,0-1.593-1.593Zm0,0" fill=""/>
  </g>
</svg>
