<svg xmlns="http://www.w3.org/2000/svg" width="31.24" height="31.237" viewBox="0 0 31.24 31.237">
  <g id="组_1656" data-name="组 1656" transform="translate(-1839.25 -5778.006)">
    <g id="组_1655" data-name="组 1655">
      <g id="组_1654" data-name="组 1654">
        <path id="路径_812" data-name="路径 812" d="M1855.433,5784.767v8.295h8.3A8.867,8.867,0,0,0,1855.433,5784.767Zm1.107,1.269a7.769,7.769,0,0,1,5.918,5.917h-5.918Z" fill=""/>
        <path id="路径_813" data-name="路径 813" d="M1853.36,5784.884a8.859,8.859,0,0,0-4.336,15.384l4.626-6.182Z" fill=""/>
        <path id="路径_814" data-name="路径 814" d="M1851.279,5801.706a8.84,8.84,0,0,0,12.35-6.664h-7.907Z" fill=""/>
      </g>
    </g>
    <path id="路径_815" data-name="路径 815" d="M1854.854,5778.006a15.619,15.619,0,1,0,15.636,15.633A15.628,15.628,0,0,0,1854.854,5778.006Zm0,1.848a13.786,13.786,0,1,1-13.785,13.786A13.8,13.8,0,0,1,1854.854,5779.854Z" fill=""/>
  </g>
</svg>
