<svg xmlns="http://www.w3.org/2000/svg" width="25.498" height="31.872" viewBox="0 0 25.498 31.872">
  <g id="组_1528" data-name="组 1528" transform="translate(-2050.854 -5203.14)">
    <path id="路径_507" data-name="路径 507" d="M2076.352,5215.889a12.749,12.749,0,1,0-15.936,12.331v4.667h-3.187v2.125h12.748v-2.125h-3.187v-4.667a12.742,12.742,0,0,0,9.562-12.331Zm-23.373,0a10.624,10.624,0,1,1,10.624,10.624,10.623,10.623,0,0,1-10.624-10.624Zm11.686,17h-2.124v-4.3c.351.029.7.054,1.062.054s.711-.025,1.062-.054Zm0,0" fill=""/>
    <path id="路径_508" data-name="路径 508" d="M2071.04,5213.764a5.313,5.313,0,0,0-5.312-5.312h-6.375v14.874h2.125v-4.25h4.25a5.312,5.312,0,0,0,5.312-5.312Zm-9.562-3.187h4.25a3.187,3.187,0,0,1,0,6.374h-4.25Zm0,0" fill=""/>
  </g>
</svg>
