<svg xmlns="http://www.w3.org/2000/svg" width="30.412" height="29.747" viewBox="0 0 30.412 29.747">
  <g id="组_1499" data-name="组 1499" transform="translate(-1733.751 -5778.751)">
    <path id="路径_450" data-name="路径 450" d="M1764.136,5781.9a1.063,1.063,0,0,0-1.275-.795l-5.539,1.284a1.063,1.063,0,0,0-.525,1.773l1.209,1.25-6.459,5.763-3.354-3.177a1.063,1.063,0,0,0-1.5.038l-7.2,7.545a2.125,2.125,0,1,0,1.69,2.081,2.087,2.087,0,0,0-.113-.655l6.425-6.738,3.294,3.12a1.065,1.065,0,0,0,1.438.021l7.251-6.468,1.378,1.427a1.062,1.062,0,0,0,1.79-.462l1.476-5.492a1.068,1.068,0,0,0,.009-.515Zm0,0" fill=""/>
    <path id="路径_451" data-name="路径 451" d="M1762.436,5791.582a1.062,1.062,0,0,0-1.062,1.062v8.417a1.063,1.063,0,0,1-1.063,1.063h-23.372a1.063,1.063,0,0,1-1.063-1.063v-19.123a1.062,1.062,0,0,1,1.063-1.062h17.617a1.063,1.063,0,1,0,0-2.125h-17.617a3.188,3.188,0,0,0-3.188,3.187v19.123a3.187,3.187,0,0,0,3.188,3.187h23.372a3.187,3.187,0,0,0,3.188-3.187v-8.417a1.062,1.062,0,0,0-1.063-1.062Z" fill=""/>
    <path id="路径_452" data-name="路径 452" d="M1761.905,5806.373h-26.56a1.063,1.063,0,0,0,0,2.125h26.56a1.063,1.063,0,0,0,0-2.125Z" fill=""/>
    <path id="路径_453" data-name="路径 453" d="M1761.905,5806.373" fill=""/>
  </g>
</svg>
