<svg xmlns="http://www.w3.org/2000/svg" width="27.74" height="31.981" viewBox="0 0 27.74 31.981">
  <g id="组_1602" data-name="组 1602" transform="translate(-1629.8 -5565.459)">
    <path id="路径_676" data-name="路径 676" d="M1657.506,5587.676c0-.019.01-.035.01-.055v-18.8a3.335,3.335,0,0,0-3.3-3.362H1633.1a3.334,3.334,0,0,0-3.3,3.362v25.256a3.335,3.335,0,0,0,3.3,3.363h15.991a1.063,1.063,0,0,0,.7-.262l5.125-4.451a1.066,1.066,0,1,0-1.4-1.61l-3.464,3.008v-3.982a1.2,1.2,0,0,1,1.168-1.232h5.252a1.066,1.066,0,0,0,1.066-1.065,1.362,1.362,0,0,0-.034-.17Zm-9.584,2.466v5.166H1633.1a1.2,1.2,0,0,1-1.167-1.231v-25.256a1.2,1.2,0,0,1,1.167-1.23h21.117a1.2,1.2,0,0,1,1.168,1.23v17.958h-4.162a3.337,3.337,0,0,0-3.3,3.363Zm0,0" fill=""/>
    <path id="路径_677" data-name="路径 677" d="M1641.526,5589.444a1.6,1.6,0,1,0,1.6-1.6,1.6,1.6,0,0,0-1.6,1.6Zm0,0" fill=""/>
    <path id="路径_678" data-name="路径 678" d="M1642.939,5570.789a6.048,6.048,0,0,0-6.048,6.049,1.066,1.066,0,0,0,2.132,0,3.918,3.918,0,0,1,7.833,0,4.151,4.151,0,0,1-3.917,4.18,1.066,1.066,0,0,0-1.066,1.065v2.093a1.066,1.066,0,1,0,2.132,0v-1.12a6.339,6.339,0,0,0,4.983-6.218,6.049,6.049,0,0,0-6.049-6.049Zm0,0" fill=""/>
  </g>
</svg>
