<svg xmlns="http://www.w3.org/2000/svg" width="29.396" height="29.396" viewBox="0 0 29.396 29.396">
  <g id="组_1620" data-name="组 1620" transform="translate(-2051.699 -5708.114)">
    <path id="路径_725" data-name="路径 725" d="M2079.068,5708.114h-25.342a2.029,2.029,0,0,0-2.027,2.027v25.342a2.029,2.029,0,0,0,2.027,2.027h25.342a2.029,2.029,0,0,0,2.027-2.027v-25.342a2.029,2.029,0,0,0-2.027-2.027Zm-25.342,27.369v-25.342h25.342l0,25.342Zm0,0" fill=""/>
    <path id="路径_726" data-name="路径 726" d="M2061.864,5712.675a1.014,1.014,0,0,0-1.014,1.014v3.354h-3.576a1.013,1.013,0,1,0,0,2.027h4.59a1.013,1.013,0,0,0,1.014-1.013v-4.368a1.014,1.014,0,0,0-1.014-1.014Zm13.177,4.368h-3.576v-3.354a1.014,1.014,0,1,0-2.027,0v4.368a1.013,1.013,0,0,0,1.014,1.013h4.589a1.013,1.013,0,0,0,0-2.027Zm-13.177,9.824h-4.59a1.013,1.013,0,1,0,0,2.027h3.576v3.355a1.014,1.014,0,1,0,2.028,0v-4.369a1.013,1.013,0,0,0-1.014-1.013Zm13.177,0h-4.589a1.013,1.013,0,0,0-1.014,1.013v4.369a1.014,1.014,0,1,0,2.027,0v-3.355h3.576a1.013,1.013,0,0,0,0-2.027Zm0,0" fill=""/>
  </g>
</svg>
