<svg xmlns="http://www.w3.org/2000/svg" width="29.849" height="28.783" viewBox="0 0 29.849 28.783">
  <g id="组_1590" data-name="组 1590" transform="translate(-1365.212 -5567.058)">
    <path id="路径_650" data-name="路径 650" d="M1368.626,5579.874l7.084,4.288a1.066,1.066,0,1,1-1.1,1.823l-8.879-5.374a1.066,1.066,0,0,1,.142-1.9l27.717-11.575a1.065,1.065,0,0,1,1.457,1.183l-4.855,25.585a1.067,1.067,0,0,1-1.619.7l-9-5.707a1.066,1.066,0,1,1,1.14-1.8l7.678,4.868,4.193-22.1Zm0,0" fill=""/>
    <path id="路径_651" data-name="路径 651" d="M1376.939,5585.983v8.792a1.066,1.066,0,0,1-2.132,0v-9.282a1.066,1.066,0,0,1,.373-.811l12.959-11.1a1.066,1.066,0,0,1,1.386,1.621l-12.586,10.774Zm0,0" fill=""/>
  </g>
</svg>
