<svg xmlns="http://www.w3.org/2000/svg" width="27.622" height="29.748" viewBox="0 0 27.622 29.748">
  <g id="组_1571" data-name="组 1571" transform="translate(-1839.297 -5204.184)">
    <path id="路径_602" data-name="路径 602" d="M1864.794,5204.184h-23.372a2.127,2.127,0,0,0-2.125,2.125v25.5a2.127,2.127,0,0,0,2.125,2.125h23.372a2.127,2.127,0,0,0,2.125-2.125v-25.5a2.127,2.127,0,0,0-2.125-2.125Zm-20.185,2.125h17v7.437h-17Zm-3.187,25.5v-25.5h1.062v9.562h21.248v-9.562h1.062l0,25.5Zm0,0" fill=""/>
    <path id="路径_603" data-name="路径 603" d="M1847,5208.434h2.125v3.187H1847Zm5.312,0h2.125v3.187h-2.125Zm5.312,0h2.125v3.187h-2.125ZM1856.2,5218h-4.487l-3.918,5.56,5.312,1.347-2.752,5.629,8.064-7.55-5.312-.8Zm0,0" fill=""/>
  </g>
</svg>
