<svg xmlns="http://www.w3.org/2000/svg" width="31.872" height="30.81" viewBox="0 0 31.872 30.81">
  <g id="组_1557" data-name="组 1557" transform="translate(-2207.181 -5273.892)">
    <path id="路径_558" data-name="路径 558" d="M2234.8,5288.766a1.063,1.063,0,0,1,0-2.125h3.187a1.063,1.063,0,1,1,0,2.125Z" fill=""/>
    <path id="路径_559" data-name="路径 559" d="M2231.616,5279.736a1.594,1.594,0,1,0,1.593-1.594,1.593,1.593,0,0,0-1.593,1.594Zm0,0" fill=""/>
    <path id="路径_560" data-name="路径 560" d="M2212.493,5300.452a1.063,1.063,0,1,0,0,2.125h21.248a1.063,1.063,0,0,0,0-2.125Zm0-2.124h21.248a3.187,3.187,0,0,1,0,6.374h-21.248a3.187,3.187,0,1,1,0-6.374Zm0,0" fill=""/>
    <path id="路径_561" data-name="路径 561" d="M2211.43,5279.736a1.594,1.594,0,1,0,1.594-1.594,1.594,1.594,0,0,0-1.594,1.594Zm0,0" fill=""/>
    <path id="路径_562" data-name="路径 562" d="M2222.054,5293.016a1.063,1.063,0,1,1,2.125,0v5.312a1.063,1.063,0,0,1-2.125,0Zm0,0" fill=""/>
    <path id="路径_563" data-name="路径 563" d="M2223.117,5294.078a3.719,3.719,0,1,1,3.718-3.718,3.719,3.719,0,0,1-3.718,3.718Z" fill=""/>
    <path id="路径_564" data-name="路径 564" d="M2223.117,5291.953a1.594,1.594,0,1,0-1.594-1.593,1.593,1.593,0,0,0,1.594,1.593Z" fill=""/>
    <path id="路径_565" data-name="路径 565" d="M2208.243,5288.766a1.063,1.063,0,0,1,0-2.125h3.187a1.063,1.063,0,1,1,0,2.125Z" fill=""/>
    <path id="路径_566" data-name="路径 566" d="M2222.054,5274.955a1.063,1.063,0,1,1,2.125,0v3.187a1.063,1.063,0,0,1-2.125,0Z" fill=""/>
    <path id="路径_567" data-name="路径 567" d="M2215.164,5299.39h-2.125v-9.562a10.093,10.093,0,0,1,20.185,0v9.562H2231.1v-9.562a7.968,7.968,0,1,0-15.936,0Zm0,0" fill=""/>
  </g>
</svg>
