<svg xmlns="http://www.w3.org/2000/svg" width="29.454" height="27.623" viewBox="0 0 29.454 27.623">
  <g id="组_1500" data-name="组 1500" transform="translate(-1943.641 -5279.031)">
    <path id="路径_454" data-name="路径 454" d="M1948.66,5287.286h-2.125v-5.068a3.188,3.188,0,0,1,3.188-3.187h20.185a3.187,3.187,0,0,1,3.187,3.187v21.248a3.187,3.187,0,0,1-3.187,3.188h-20.185a3.187,3.187,0,0,1-3.188-3.188v-4.192h2.125v4.192a1.063,1.063,0,0,0,1.063,1.063h20.185a1.063,1.063,0,0,0,1.063-1.063v-21.248a1.063,1.063,0,0,0-1.063-1.062h-20.185a1.063,1.063,0,0,0-1.063,1.062Zm0,0" fill=""/>
    <path id="路径_455" data-name="路径 455" d="M1960.17,5289.484a1.063,1.063,0,1,1,1.322-1.664l4.924,3.913a1.063,1.063,0,0,1-.661,1.9H1944.7a1.063,1.063,0,1,1,0-2.125h18.006l-2.539-2.019Zm0,0" fill=""/>
  </g>
</svg>
