<svg xmlns="http://www.w3.org/2000/svg" width="29.747" height="29.145" viewBox="0 0 29.747 29.145">
  <g id="组_1519" data-name="组 1519" transform="translate(-1417.246 -5204.499)">
    <path id="路径_487" data-name="路径 487" d="M1443.806,5206.02h-1.881a1.063,1.063,0,0,0,0,2.125h1.881a1.063,1.063,0,0,1,1.062,1.062v21.248a1.063,1.063,0,0,1-1.062,1.063h-23.373a1.063,1.063,0,0,1-1.063-1.063v-21.248a1.063,1.063,0,0,1,1.063-1.062h2.067a1.063,1.063,0,1,0,0-2.125h-2.067a3.187,3.187,0,0,0-3.187,3.187v21.248a3.188,3.188,0,0,0,3.187,3.188h23.373a3.188,3.188,0,0,0,3.187-3.188v-21.248a3.187,3.187,0,0,0-3.187-3.187Zm0,0" fill=""/>
    <path id="路径_488" data-name="路径 488" d="M1426.449,5212.007l4.608-4.084v16.689a1.063,1.063,0,1,0,2.125,0v-16.689l4.607,4.084a1.063,1.063,0,0,0,1.41-1.59l-6.374-5.651a1.062,1.062,0,0,0-1.41,0l-6.375,5.651a1.062,1.062,0,1,0,1.409,1.59Zm0,0" fill=""/>
  </g>
</svg>
