<svg xmlns="http://www.w3.org/2000/svg" width="29.747" height="27.622" viewBox="0 0 29.747 27.622">
  <g id="组_1494" data-name="组 1494" transform="translate(-2155.874 -5205.223)">
    <path id="路径_440" data-name="路径 440" d="M2182.434,5221.159h-8.305a6.668,6.668,0,0,1,3.483-7.557,1.036,1.036,0,0,0,.385-.368,4.237,4.237,0,0,0-1.937-8.011h-10.624a4.236,4.236,0,0,0-1.937,8.011,1.028,1.028,0,0,0,.385.368,6.792,6.792,0,0,1,3.677,6.03,6.723,6.723,0,0,1-.2,1.527h-8.3a3.187,3.187,0,0,0-3.187,3.187v2.125a3.187,3.187,0,0,0,3.187,3.187,3.385,3.385,0,0,0,3.563,3.187h16.248a3.385,3.385,0,0,0,3.562-3.187,3.187,3.187,0,0,0,3.187-3.187v-2.125a3.187,3.187,0,0,0-3.187-3.187Zm-15.019-7.437h1.229a1.063,1.063,0,1,0,0-2.125h-3.208a2.125,2.125,0,1,1,0-4.249h10.624a2.125,2.125,0,1,1,0,4.249h-3.39a1.063,1.063,0,1,0,0,2.125h1.41a8.866,8.866,0,0,0-2.138,7.437h-2.388a8.869,8.869,0,0,0-2.139-7.437Zm16.082,12.749a1.063,1.063,0,0,1-1.063,1.062h-1.85a1.063,1.063,0,0,0-1.062,1.063,1.05,1.05,0,0,0,.787,1.007v.055c0,.545-.608,1.062-1.437,1.062h-16.248c-.829,0-1.438-.517-1.438-1.062h15.144a1.063,1.063,0,0,0,0-2.125h-17.269a1.062,1.062,0,0,1-1.062-1.062v-2.125a1.061,1.061,0,0,1,1.062-1.062h23.373a1.062,1.062,0,0,1,1.063,1.062Zm0,0" fill=""/>
  </g>
</svg>
