<svg xmlns="http://www.w3.org/2000/svg" width="30.41" height="27.876" viewBox="0 0 30.41 27.876">
  <g id="组_1624" data-name="组 1624" transform="translate(-2207.912 -5637.934)">
    <path id="路径_732" data-name="路径 732" d="M2232.5,5644.225a10.141,10.141,0,0,0-18.764,0,7.6,7.6,0,0,0,1.779,15h2.9a1.014,1.014,0,1,0,0-2.027h-2.9a5.576,5.576,0,0,1-.872-11.084l.6-.094.2-.578a8.113,8.113,0,0,1,15.346,0l.2.578.6.094a5.576,5.576,0,0,1-.872,11.084h-3.081a1.014,1.014,0,1,0,0,2.027h3.081a7.6,7.6,0,0,0,1.78-15Zm0,0" fill=""/>
    <path id="路径_733" data-name="路径 733" d="M2227.481,5653.964a1.014,1.014,0,0,0,1.285-1.569l-5.007-4.1a1.011,1.011,0,0,0-1.285,0l-5.038,4.125a1.014,1.014,0,1,0,1.283,1.569l3.384-2.769V5664.8a1.013,1.013,0,1,0,2.027,0v-13.575Zm0,0" fill=""/>
  </g>
</svg>
