<svg xmlns="http://www.w3.org/2000/svg" width="29.396" height="29.396" viewBox="0 0 29.396 29.396">
  <g id="组_1621" data-name="组 1621" transform="translate(-1996.279 -5708.114)">
    <path id="路径_727" data-name="路径 727" d="M2006.444,5712.675h-4.59a1.014,1.014,0,0,0-1.014,1.014v4.368a1.013,1.013,0,0,0,2.027,0V5714.7h3.577a1.014,1.014,0,0,0,0-2.027Zm13.177,0h-4.589a1.014,1.014,0,1,0,0,2.027h3.575v3.355a1.013,1.013,0,0,0,2.027,0v-4.368a1.014,1.014,0,0,0-1.013-1.014Zm-13.177,18.561h-3.577v-3.356a1.013,1.013,0,0,0-2.027,0v4.369a1.014,1.014,0,0,0,1.014,1.014h4.59a1.014,1.014,0,0,0,0-2.027Zm13.177-4.369a1.013,1.013,0,0,0-1.014,1.013v3.356h-3.575a1.014,1.014,0,1,0,0,2.027h4.589a1.014,1.014,0,0,0,1.013-1.014v-4.369a1.013,1.013,0,0,0-1.013-1.013Zm0,0" fill=""/>
    <path id="路径_728" data-name="路径 728" d="M2023.648,5708.114h-25.342a2.029,2.029,0,0,0-2.027,2.027v25.342a2.029,2.029,0,0,0,2.027,2.027h25.342a2.029,2.029,0,0,0,2.027-2.027v-25.342a2.029,2.029,0,0,0-2.027-2.027Zm-25.342,27.369v-25.342h25.342l0,25.342Zm0,0" fill=""/>
  </g>
</svg>
