<svg xmlns="http://www.w3.org/2000/svg" width="28.393" height="30.41" viewBox="0 0 28.393 30.41">
  <g id="组_1637" data-name="组 1637" transform="translate(-1945.951 -5707.607)">
    <path id="路径_766" data-name="路径 766" d="M1973.331,5711.155h-6.088v-2.535a1.013,1.013,0,0,0-1.013-1.013h-12.164a1.013,1.013,0,0,0-1.014,1.013v2.535h-6.087a1.014,1.014,0,1,0,0,2.027h1.069l2.468,22.132a3.041,3.041,0,0,0,3.022,2.7h13.246a3.042,3.042,0,0,0,3.023-2.7l2.468-22.132h1.068a1.014,1.014,0,1,0,0-2.027Zm-18.252-1.521h10.137v1.521h-10.137Zm12.7,25.455a1.015,1.015,0,0,1-1.008.9h-13.247a1.013,1.013,0,0,1-1.007-.9l-2.443-21.907h20.148Zm0,0" fill=""/>
    <path id="路径_767" data-name="路径 767" d="M1963.189,5732.6a1.014,1.014,0,0,0,1.013-1.014V5716.7a1.013,1.013,0,0,0-2.027,0v14.883a1.014,1.014,0,0,0,1.014,1.014Zm-5.576,0a1.014,1.014,0,0,0,1.014-1.014V5716.7a1.013,1.013,0,0,0-2.027,0v14.883a1.014,1.014,0,0,0,1.013,1.014Zm0,0" fill=""/>
  </g>
</svg>
