<svg xmlns="http://www.w3.org/2000/svg" width="28.784" height="31.981" viewBox="0 0 28.784 31.981">
  <g id="组_1601" data-name="组 1601" transform="translate(-1523.864 -5565.459)">
    <path id="路径_673" data-name="路径 673" d="M1548.73,5586.222a6.875,6.875,0,0,0-6.759-5.839,6.784,6.784,0,0,0-5.444,2.7,6.557,6.557,0,1,0-.248,13.108h10.678a5.432,5.432,0,0,0,5.691-5.114,5.175,5.175,0,0,0-3.918-4.859Zm-1.774,7.842h-10.694a4.425,4.425,0,1,1,.639-8.805l.694.1.367-.6a4.672,4.672,0,0,1,4.009-2.248,4.723,4.723,0,0,1,4.7,4.6l.019.9.891.132a3.179,3.179,0,0,1,2.936,2.935,3.313,3.313,0,0,1-3.559,2.982Zm0,0" fill=""/>
    <path id="路径_674" data-name="路径 674" d="M1529.123,5595.308h-1.959a1.2,1.2,0,0,1-1.168-1.231v-25.256a1.2,1.2,0,0,1,1.168-1.23h21.117a1.2,1.2,0,0,1,1.168,1.23v13.69a1.066,1.066,0,0,0,2.132,0v-13.69a3.335,3.335,0,0,0-3.3-3.362h-21.117a3.335,3.335,0,0,0-3.3,3.362v25.256a3.336,3.336,0,0,0,3.3,3.363h1.958a1.066,1.066,0,1,0,0-2.132Zm0,0" fill=""/>
    <path id="路径_675" data-name="路径 675" d="M1543.053,5571.855a1.066,1.066,0,0,0-1.066-1.066h-11.726a1.066,1.066,0,1,0,0,2.132h11.726a1.066,1.066,0,0,0,1.066-1.066Zm-12.792,4.264a1.066,1.066,0,1,0,0,2.132h6.4a1.066,1.066,0,1,0,0-2.132Zm0,0" fill=""/>
  </g>
</svg>
