<svg xmlns="http://www.w3.org/2000/svg" width="29.849" height="29.849" viewBox="0 0 29.849 29.849">
  <g id="组_1600" data-name="组 1600" transform="translate(-2157.722 -5707.887)">
    <path id="路径_672" data-name="路径 672" d="M2184.373,5707.887h-23.452a3.2,3.2,0,0,0-3.2,3.2v19.188a3.2,3.2,0,0,0,3.2,3.2h10.66v2.132h-7.462a1.066,1.066,0,0,0,0,2.132h17.056a1.066,1.066,0,0,0,0-2.132h-7.462v-2.132h10.66a3.2,3.2,0,0,0,3.2-3.2v-19.188a3.2,3.2,0,0,0-3.2-3.2Zm-23.452,2.132h23.452a1.067,1.067,0,0,1,1.066,1.067v14.924h-25.585v-14.924a1.067,1.067,0,0,1,1.067-1.067Zm24.518,20.255a1.066,1.066,0,0,1-1.066,1.066h-23.452a1.067,1.067,0,0,1-1.067-1.066v-2.132h25.585Zm0,0" fill=""/>
  </g>
</svg>
