<svg xmlns="http://www.w3.org/2000/svg" width="22.959" height="21.213" viewBox="0 0 22.959 21.213">
  <g id="组_1586" data-name="组 1586" transform="translate(-1210.13 -5500.21)">
    <path id="路径_640" data-name="路径 640" d="M1211.2,5512.9a1.061,1.061,0,0,0,.754-.313l9.8-9.8,9.519,9.519a1.066,1.066,0,0,0,1.507-1.507l-10.272-10.273a1.067,1.067,0,0,0-1.508,0l-10.553,10.553a1.065,1.065,0,0,0,.755,1.82Zm0,0" fill=""/>
    <path id="路径_641" data-name="路径 641" d="M1222.506,5509.051a1.065,1.065,0,0,0-1.508,0l-10.553,10.552a1.066,1.066,0,0,0,1.508,1.508l9.8-9.8,9.519,9.518a1.066,1.066,0,0,0,1.507-1.507Zm0,0" fill=""/>
  </g>
</svg>
