<svg xmlns="http://www.w3.org/2000/svg" width="25.497" height="29.277" viewBox="0 0 25.497 29.277">
  <g id="组_1524" data-name="组 1524" transform="translate(-1524.607 -5278.192)">
    <path id="路径_501" data-name="路径 501" d="M1547.448,5295.232h-1.054v-8.4a8.874,8.874,0,0,0-17.742,0v8.4h-1.389a2.656,2.656,0,0,0,0,5.312h5.843v3.738a1.063,1.063,0,0,0,2.125,0v-3.738h4.249v5.862a1.063,1.063,0,1,0,2.125,0v-5.862h5.843a2.656,2.656,0,1,0,0-5.312Zm-16.67-8.4a6.751,6.751,0,0,1,13.493,0v8.4h-13.493Zm16.67,11.592h-20.185a.531.531,0,1,1,0-1.062h20.185a.531.531,0,1,1,0,1.062Zm0,0" fill=""/>
  </g>
</svg>
