<svg xmlns="http://www.w3.org/2000/svg" width="29.747" height="29.747" viewBox="0 0 29.747 29.747">
  <g id="组_1572" data-name="组 1572" transform="translate(-1416.347 -5778.751)">
    <path id="路径_604" data-name="路径 604" d="M1431.22,5785.533c1.49,0,2.656-.672,2.656-1.532s-1.166-1.532-2.656-1.532-2.656.673-2.656,1.532,1.167,1.532,2.656,1.532Zm0,0" fill=""/>
    <path id="路径_605" data-name="路径 605" d="M1446.094,5789.576a3.718,3.718,0,0,0-1.5-2.824,3.452,3.452,0,0,0,.435-1.627c0-3.633-5.938-6.374-13.812-6.374s-13.811,2.741-13.811,6.374a3.445,3.445,0,0,0,.437,1.63,3.726,3.726,0,0,0-1.5,2.821,3.453,3.453,0,0,0,1.062,2.389v11.752a1.063,1.063,0,0,0,1.063,1.063,1.037,1.037,0,0,0,.572-.191,14.938,14.938,0,0,0,3.677,1.648v.136a1.062,1.062,0,0,0,2.044.4,30.394,30.394,0,0,0,5.393.633v.028a1.063,1.063,0,0,0,2.125,0v-.013a30.413,30.413,0,0,0,5.4-.632,1.063,1.063,0,0,0,2.039-.418v-.113a15.372,15.372,0,0,0,3.361-1.462,1.046,1.046,0,0,0,.888.513,1.063,1.063,0,0,0,1.063-1.063v-12.282a3.453,3.453,0,0,0,1.062-2.39Zm-14.874,4.048c-5.963,0-10.262-1.407-11.952-2.808a1.045,1.045,0,0,0-.177-.157,1.611,1.611,0,0,1-.619-1.083,1.808,1.808,0,0,1,.752-1.209c2.336,1.9,6.727,3.133,12,3.133s9.665-1.233,12-3.135a1.833,1.833,0,0,1,.75,1.211,1.613,1.613,0,0,1-.619,1.083,1.109,1.109,0,0,0-.179.158c-1.689,1.4-5.988,2.807-11.951,2.807Zm0-12.748c6.689,0,11.687,2.243,11.687,4.249s-5,4.25-11.687,4.25-11.686-2.244-11.686-4.25,5-4.249,11.686-4.249Zm-11.686,21.439v-8.832a17.014,17.014,0,0,0,3.188,1.2v9.334a10.136,10.136,0,0,1-3.187-1.7Zm5.312,2.3v-9.445a34.524,34.524,0,0,0,5.312.557v9.554a28.127,28.127,0,0,1-5.312-.666Zm7.437-8.888a34.648,34.648,0,0,0,5.312-.557v9.453a28.246,28.246,0,0,1-5.312.67Zm7.436-1.046a16.946,16.946,0,0,0,3.188-1.2v8.831a10.134,10.134,0,0,1-3.187,1.7v-9.33Zm0,0" fill=""/>
  </g>
</svg>
