<svg xmlns="http://www.w3.org/2000/svg" width="30.411" height="30.41" viewBox="0 0 30.411 30.41">
  <g id="组_1610" data-name="组 1610" transform="translate(-1628.464 -5636.667)">
    <path id="路径_698" data-name="路径 698" d="M1642.656,5660.489a1.521,1.521,0,1,1,1.521,1.52,1.521,1.521,0,0,1-1.521-1.52Zm2.358-5.01a1.014,1.014,0,1,1-2.028,0v-1.99a1.014,1.014,0,0,1,1.014-1.014,3.946,3.946,0,0,0,3.724-3.974,3.724,3.724,0,0,0-7.447,0,1.013,1.013,0,0,1-2.027,0,5.751,5.751,0,0,1,11.5,0,6.028,6.028,0,0,1-4.738,5.913Zm0,0" fill=""/>
    <path id="路径_699" data-name="路径 699" d="M1643.67,5667.077a15.205,15.205,0,1,1,15.2-15.205,15.205,15.205,0,0,1-15.2,15.205Zm0-2.027a13.178,13.178,0,1,0-13.178-13.178,13.178,13.178,0,0,0,13.178,13.178Zm0,0" fill=""/>
  </g>
</svg>
