<svg xmlns="http://www.w3.org/2000/svg" width="28.543" height="30.4" viewBox="0 0 28.543 30.4">
  <g id="组_1648" data-name="组 1648" transform="translate(-1574.002 -5707.612)">
    <path id="路径_803" data-name="路径 803" d="M1575.892,5716.194l.13.006c2.089,1.4,5.727,2.271,9.493,2.271s7.406-.871,9.493-2.272l-.111-.166h0l.241.16a.124.124,0,0,1,.066.11v2.414a.2.2,0,0,0,.2.2h1.425a.2.2,0,0,0,.2-.2v-5.676c0-3.4-5.855-5.429-11.514-5.429s-11.513,2.031-11.513,5.429v16.376c0,3.426,5.762,5.354,11.184,5.429h0a.2.2,0,0,0,.141-.058.2.2,0,0,0,.059-.142v-1.425a.2.2,0,0,0-.2-.2c-5.52-.071-9.365-1.956-9.365-3.6v-4.925a.124.124,0,0,1,.064-.11l.131.006c2.016,1.352,5.527,2.221,9.164,2.27h0a.2.2,0,0,0,.2-.2v-1.424a.2.2,0,0,0-.2-.2c-5.52-.071-9.365-1.956-9.365-3.6V5716.3A.123.123,0,0,1,1575.892,5716.194Zm9.623.453c-6,0-9.688-2.1-9.688-3.606s3.685-3.6,9.688-3.6,9.689,2.1,9.689,3.6S1591.518,5716.647,1585.515,5716.647Z" fill=""/>
    <path id="路径_804" data-name="路径 804" d="M1594.819,5719.858c-5.018,0-7.725,1.966-7.725,3.815V5734.2c0,1.849,2.707,3.815,7.725,3.815s7.684-1.9,7.726-3.772v-10.567C1602.545,5721.824,1599.837,5719.858,1594.819,5719.858Zm5.839,6.456a.125.125,0,0,1,.061.108v2.513c0,.676-2.082,1.99-5.9,1.99s-5.9-1.315-5.9-1.991v-2.512a.125.125,0,0,1,.059-.107.127.127,0,0,1,.067-.019l.059.015a11.894,11.894,0,0,0,5.715,1.178,12.184,12.184,0,0,0,5.715-1.178l-.1-.175h0Zm-11.739,5.37a.128.128,0,0,1,.059-.108.135.135,0,0,1,.067-.018l.059.015a11.886,11.886,0,0,0,5.715,1.176,12.2,12.2,0,0,0,5.715-1.176l-.1-.176h0l.219.178a.128.128,0,0,1,.061.109v2.512c0,.675-2.082,1.991-5.9,1.991s-5.9-1.316-5.9-1.991Zm5.9-6.02c-3.818,0-5.9-1.315-5.9-1.991s2.082-1.991,5.9-1.991,5.9,1.315,5.9,1.991S1598.637,5725.664,1594.819,5725.664Z" fill=""/>
  </g>
</svg>
