<svg xmlns="http://www.w3.org/2000/svg" width="28.383" height="25.342" viewBox="0 0 28.383 25.342">
  <g id="组_1622" data-name="组 1622" transform="translate(-1734.891 -5639.201)">
    <path id="路径_729" data-name="路径 729" d="M1761.247,5639.2h-24.328a2.028,2.028,0,0,0-2.028,2.028v21.287a2.027,2.027,0,0,0,2.028,2.027h24.328a2.026,2.026,0,0,0,2.027-2.027v-21.287a2.027,2.027,0,0,0-2.027-2.028Zm0,2.028v3.727l-11.956,8.087-12.372-8.369v-3.445Zm-24.328,21.287v-15.394l11.8,7.984a1.013,1.013,0,0,0,1.135,0l11.389-7.7v15.113Zm0,0" fill=""/>
  </g>
</svg>
