<svg xmlns="http://www.w3.org/2000/svg" width="33.998" height="23.372" viewBox="0 0 33.998 23.372">
  <g id="组_1505" data-name="组 1505" transform="translate(-1309.854 -5281.153)">
    <path id="路径_463" data-name="路径 463" d="M1326.853,5300.276a7.437,7.437,0,1,1,7.437-7.437,7.437,7.437,0,0,1-7.437,7.437Zm0-2.125a5.312,5.312,0,1,0-5.312-5.312,5.312,5.312,0,0,0,5.312,5.312Zm0,0" fill=""/>
    <path id="路径_464" data-name="路径 464" d="M1326.853,5304.525c-6.267,0-11.88-3.742-16.818-11.093a1.063,1.063,0,0,1,0-1.186c4.938-7.352,10.55-11.093,16.818-11.093s11.881,3.742,16.818,11.093a1.063,1.063,0,0,1,0,1.186c-4.937,7.352-10.549,11.093-16.818,11.093Zm0-2.124c5.307,0,10.183-3.147,14.65-9.562-4.467-6.415-9.343-9.562-14.65-9.562s-10.183,3.147-14.649,9.562c4.466,6.415,9.343,9.562,14.649,9.562Zm0,0" fill=""/>
  </g>
</svg>
