<svg xmlns="http://www.w3.org/2000/svg" width="30.81" height="30.809" viewBox="0 0 30.81 30.809">
  <g id="组_1507" data-name="组 1507" transform="translate(-1627.215 -5277.438)">
    <path id="路径_467" data-name="路径 467" d="M1641.652,5279.562l-.573,3.011-.686.15a10.273,10.273,0,0,0-3.312,1.364l-.62.393-2.433-1.827-1.482,1.482,1.723,2.537-.378.59a10.283,10.283,0,0,0-1.38,3.306l-.16.717-3.012.428v2.1l3.011.575.15.685a10.266,10.266,0,0,0,1.364,3.313l.393.62-1.827,2.433,1.482,1.482,2.537-1.723.59.378a10.264,10.264,0,0,0,3.306,1.38l.717.16.428,3.011h2.095l.575-3.01.685-.15a10.322,10.322,0,0,0,3.313-1.364l.62-.393,2.433,1.827,1.482-1.482-1.723-2.537.378-.59a10.283,10.283,0,0,0,1.38-3.306l.159-.717,3.012-.428v-2.1l-3.011-.575-.149-.685a10.293,10.293,0,0,0-1.365-3.313l-.392-.62,1.827-2.433-1.482-1.482-2.537,1.723-.59-.378a10.29,10.29,0,0,0-3.306-1.38l-.717-.16-.428-3.012h-2.1Zm-2.4,1.257.645-3.381h5.7l.486,3.407a12.4,12.4,0,0,1,2.66,1.114l2.848-1.936,4.029,4.029-2.068,2.752a12.248,12.248,0,0,1,1.094,2.67l3.383.644v5.7l-3.407.486a12.456,12.456,0,0,1-1.114,2.66l1.935,2.848-4.028,4.029-2.752-2.068a12.339,12.339,0,0,1-2.67,1.1l-.645,3.382h-5.7l-.486-3.407a12.413,12.413,0,0,1-2.66-1.114l-2.849,1.935-4.029-4.028,2.067-2.752a12.412,12.412,0,0,1-1.094-2.67l-3.382-.644v-5.7l3.407-.486a12.4,12.4,0,0,1,1.114-2.66l-1.936-2.848,4.029-4.029,2.752,2.068a12.389,12.389,0,0,1,2.669-1.1Zm0,0" fill=""/>
    <path id="路径_468" data-name="路径 468" d="M1642.619,5299.217a6.375,6.375,0,1,1,6.375-6.375,6.375,6.375,0,0,1-6.375,6.375Zm0-2.125a4.25,4.25,0,1,0-4.249-4.25,4.25,4.25,0,0,0,4.249,4.25Zm0,0" fill=""/>
  </g>
</svg>
