<svg xmlns="http://www.w3.org/2000/svg" width="30.65" height="26.82" viewBox="0 0 30.65 26.82">
  <g id="组_1644" data-name="组 1644" transform="translate(-1202.709 -5849.955)">
    <path id="路径_780" data-name="路径 780" d="M1231.36,5849.955h-26.652a1.96,1.96,0,0,0-2,1.916v19.157a1.96,1.96,0,0,0,2,1.915h26.652a1.96,1.96,0,0,0,2-1.915v-19.157A1.96,1.96,0,0,0,1231.36,5849.955Zm.084,21.073c0-.02-.02,0-.085,0h-26.651c-.064,0-.084-.021-.084,0v-19.154c0,.019.02,0,.085,0h26.65c.065,0,.085.02.085,0Z" fill=""/>
    <path id="路径_781" data-name="路径 781" d="M1227.061,5874.859c.3,0,.551.429.551.958s-.247.958-.551.958h-18.054c-.3,0-.551-.43-.551-.958s.247-.958.551-.958Z" fill=""/>
    <path id="路径_782" data-name="路径 782" d="M1221.007,5858.012" fill=""/>
    <path id="路径_783" data-name="路径 783" d="M1217.477,5868.574a.323.323,0,0,1-.308-.218l-2.049-8.947-.5,0-1.5,6.257a.4.4,0,0,1-.36.232l-.71.006c-.247,0-.38-.092-.422-.22l-1.145-3.167h-5.687a.318.318,0,0,1-.335-.295v-.685a.318.318,0,0,1,.335-.3l6.428-.012c.361,0,.4.109.413.162l.65,1.8,1.719-7.911a.318.318,0,0,1,.288-.165h.8l.132-.015a.314.314,0,0,1,.305.209l2.039,8.853h.5l1.449-6.14a.309.309,0,0,1,.282-.232l.764,0c.243,0,.366.089.407.216l1.143,3.224h3.121a.392.392,0,0,1,.238.093.237.237,0,0,1,.084.193v.706a.278.278,0,0,1-.1.2.324.324,0,0,1-.237.092h-3.858c-.246,0-.372-.089-.415-.219l-.636-1.784-1.849,7.68c-.022.142-.092.368-.237.368h-.632Z" fill=""/>
  </g>
</svg>
