<svg xmlns="http://www.w3.org/2000/svg" width="28.618" height="28.611" viewBox="0 0 28.618 28.611">
  <g id="组_1666" data-name="组 1666" transform="translate(-1682.799 -5849.059)">
    <path id="路径_838" data-name="路径 838" d="M1709.629,5851.736h-7.161v-1.783a.895.895,0,0,0-1.789,0v1.783h-7.154v-1.783a.895.895,0,0,0-1.789,0v1.783h-7.148a1.788,1.788,0,0,0-1.789,1.788v22.358a1.788,1.788,0,0,0,1.789,1.788h25.041a1.787,1.787,0,0,0,1.788-1.788v-22.358A1.788,1.788,0,0,0,1709.629,5851.736Zm0,24.146h-25.041v-22.358h7.148v.9a.895.895,0,0,0,1.789,0v-.9h7.154v.9a.895.895,0,0,0,1.789,0v-.9h7.161Z" fill=""/>
    <path id="矩形_841" data-name="矩形 841" d="M.895,0H2.683a.895.895,0,0,1,.895.895V2.683a.894.894,0,0,1-.894.894H.894A.894.894,0,0,1,0,2.683V.895A.895.895,0,0,1,.895,0Z" transform="translate(1688.165 5859.784)" fill=""/>
    <rect id="矩形_842" data-name="矩形 842" width="3.577" height="3.577" rx="0.894" transform="translate(1688.165 5866.939)" fill=""/>
    <rect id="矩形_843" data-name="矩形 843" width="3.577" height="3.577" rx="0.894" transform="translate(1695.32 5866.939)" fill=""/>
    <rect id="矩形_844" data-name="矩形 844" width="3.577" height="3.577" rx="0.894" transform="translate(1702.474 5866.939)" fill=""/>
    <path id="矩形_845" data-name="矩形 845" d="M.895,0H2.683a.894.894,0,0,1,.894.894V2.683a.894.894,0,0,1-.894.894H.894A.894.894,0,0,1,0,2.683V.895A.895.895,0,0,1,.895,0Z" transform="translate(1695.32 5859.784)" fill=""/>
    <rect id="矩形_846" data-name="矩形 846" width="3.577" height="3.577" rx="0.894" transform="translate(1702.474 5859.784)" fill=""/>
  </g>
</svg>
