<svg xmlns="http://www.w3.org/2000/svg" width="28.685" height="25.382" viewBox="0 0 28.685 25.382">
  <g id="组_1538" data-name="组 1538" transform="translate(-1259.885 -5352.594)">
    <path id="路径_523" data-name="路径 523" d="M1287.508,5377.976h-26.56a1.063,1.063,0,0,1-1.063-1.062v-21.248a1.063,1.063,0,1,1,2.125,0v20.185h25.5a1.063,1.063,0,0,1,0,2.125Zm0,0" fill=""/>
    <path id="路径_524" data-name="路径 524" d="M1274.759,5373.2a1.063,1.063,0,0,1-1.063-1.063V5359.87a1.063,1.063,0,1,1,2.125,0v12.268a1.062,1.062,0,0,1-1.062,1.063Zm-6.375.013a1.062,1.062,0,0,1-1.062-1.062v-6.925a1.063,1.063,0,0,1,2.125,0v6.925a1.062,1.062,0,0,1-1.063,1.062Zm19.124,0a1.063,1.063,0,0,1-1.063-1.063v-18.5a1.063,1.063,0,1,1,2.125,0v18.5a1.063,1.063,0,0,1-1.062,1.063Zm-6.375,0a1.063,1.063,0,0,1-1.062-1.063v-16.491a1.063,1.063,0,1,1,2.125,0v16.491a1.063,1.063,0,0,1-1.063,1.063Zm0,0" fill=""/>
  </g>
</svg>
