<svg xmlns="http://www.w3.org/2000/svg" width="30.915" height="28.783" viewBox="0 0 30.915 28.783">
  <g id="组_1585" data-name="组 1585" transform="translate(-1469.279 -5496.433)">
    <path id="路径_638" data-name="路径 638" d="M1498.062,5500.7h-16.128l-1.678-3.137a2.128,2.128,0,0,0-1.88-1.127h-6.965a2.134,2.134,0,0,0-2.132,2.132v24.519a2.135,2.135,0,0,0,2.132,2.132h26.651a2.134,2.134,0,0,0,2.132-2.132v-20.255a2.134,2.134,0,0,0-2.132-2.132Zm-26.651-2.132h6.965l2.28,4.264h17.406v3.264c-.014,0-.027,0-.04,0h-26.569c-.014,0-.027,0-.042,0Zm0,24.519v-3.2l.042-11.664,26.609.041v11.623h0v3.2Zm0,0" fill=""/>
  </g>
</svg>
