<svg xmlns="http://www.w3.org/2000/svg" width="29.216" height="29.216" viewBox="0 0 29.216 29.216">
  <g id="组_1540" data-name="组 1540" transform="translate(-1996.369 -5350.689)">
    <path id="路径_528" data-name="路径 528" d="M2001.855,5371.406v-12.168h9.022v2.058h-6.566v2.7h6.109v2.051h-6.109v3.31h6.8v2.051Zm18.277,0H2017.8v-4.5a6.993,6.993,0,0,0-.149-1.848,1.29,1.29,0,0,0-.487-.651,1.385,1.385,0,0,0-.809-.233,1.87,1.87,0,0,0-1.087.333,1.666,1.666,0,0,0-.66.879,7.619,7.619,0,0,0-.178,2.025v3.993H2012.1v-8.815h2.166v1.3a3.611,3.611,0,0,1,4.315-1.216,2.365,2.365,0,0,1,.967.709,2.563,2.563,0,0,1,.457.98,7.338,7.338,0,0,1,.129,1.569Zm0,0" fill=""/>
    <path id="路径_529" data-name="路径 529" d="M1999.556,5352.814a1.061,1.061,0,0,0-1.062,1.062v22.842a1.061,1.061,0,0,0,1.062,1.062H2022.4a1.062,1.062,0,0,0,1.062-1.062v-22.842a1.062,1.062,0,0,0-1.062-1.062Zm0-2.125H2022.4a3.187,3.187,0,0,1,3.187,3.187v22.842a3.187,3.187,0,0,1-3.187,3.187h-22.842a3.187,3.187,0,0,1-3.187-3.187v-22.842a3.187,3.187,0,0,1,3.187-3.187Zm0,0" fill=""/>
  </g>
</svg>
