<svg xmlns="http://www.w3.org/2000/svg" width="28.383" height="28.383" viewBox="0 0 28.383 28.383">
  <g id="组_1635" data-name="组 1635" transform="translate(-2208.925 -5567.258)">
    <path id="路径_760" data-name="路径 760" d="M2223.117,5567.258a14.192,14.192,0,1,0,14.191,14.191,14.207,14.207,0,0,0-14.191-14.191Zm0,26.355a12.176,12.176,0,0,1-11.7-8.869h1.562a1.014,1.014,0,0,0,0-2.028h-1.96a11.922,11.922,0,0,1-.067-1.267c0-.256.022-.508.038-.76h1.989a1.013,1.013,0,1,0,0-2.027h-1.692a12.15,12.15,0,0,1,23.658,0h-1.693a1.013,1.013,0,0,0,0,2.027h1.989c.016.252.039.5.039.76a12.058,12.058,0,0,1-.067,1.267h-1.961a1.014,1.014,0,0,0,0,2.028h1.563a12.176,12.176,0,0,1-11.7,8.869Zm0,0" fill=""/>
    <path id="路径_761" data-name="路径 761" d="M2223.117,5576.381a5.069,5.069,0,1,0,5.068,5.068,5.074,5.074,0,0,0-5.068-5.068Zm0,8.109a3.041,3.041,0,1,1,3.041-3.041,3.044,3.044,0,0,1-3.041,3.041Zm0,0" fill=""/>
    <path id="路径_762" data-name="路径 762" d="M2222.1,5572.326a1.013,1.013,0,1,0,1.014-1.014,1.014,1.014,0,0,0-1.014,1.014Zm0,0" fill=""/>
  </g>
</svg>
