<svg xmlns="http://www.w3.org/2000/svg" width="30.5" height="29.623" viewBox="0 0 30.5 29.623">
  <g id="组_1633" data-name="组 1633" transform="translate(-1626.148 -5708)">
    <path id="路径_756" data-name="路径 756" d="M1656.517,5731.239c-.249-.439-.824-1.189-2.95-2.636a34.855,34.855,0,0,0-3.965-2.349,52.263,52.263,0,0,0-5.583-10.116c-2.948-4.409-6.371-6.266-10.2-5.53q-.625-.621-1.3-1.194a7.9,7.9,0,0,0-4.687-1.4,1.9,1.9,0,0,0-1.374.668c-.686.884-.457,2.156,2.709,6.3a10.686,10.686,0,0,1,.73,3.146,6.121,6.121,0,0,0,1.584,3.508l-1.014,3.469a9.711,9.711,0,0,0,2.269,8.5,1.715,1.715,0,0,0,1.843.5c.681-.268,1.23-.934,1.585-2.836q.273.671.577,1.445c1.095,2.779,2.165,4.317,3.368,4.838a1.015,1.015,0,0,0,.806-1.859c-.3-.13-1.119-.751-2.29-3.722-.987-2.507-1.706-4.184-2.2-5.127a1.013,1.013,0,0,0-1.912.425,16.957,16.957,0,0,1-.608,4.657c-.84-.965-2.158-3.991-1.5-6.257s1.046-3.578,1.161-3.968a1.012,1.012,0,0,0-.186-.927c-1.32-1.621-1.463-2.4-1.463-2.652a13.083,13.083,0,0,0-.9-3.965,1.032,1.032,0,0,0-.151-.282,21.19,21.19,0,0,1-2.561-3.861,6.427,6.427,0,0,1,2.883.931,20.859,20.859,0,0,1,1.553,1.467,1.012,1.012,0,0,0,.989.283c3.174-.822,5.985.67,8.587,4.561a48.033,48.033,0,0,1,5.493,10.049,1.02,1.02,0,0,0,.519.584,31.717,31.717,0,0,1,4.08,2.384c.235.159.445.307.636.444h-3.131a1.014,1.014,0,0,0-.772,1.67q1.509,1.786,3.1,3.5a1.014,1.014,0,1,0,1.475-1.39q-.807-.864-1.586-1.753h3.487a1.015,1.015,0,0,0,.882-1.513Zm0,0" fill=""/>
    <path id="路径_757" data-name="路径 757" d="M1634.924,5715.263q.6,1.033.93,1.482c.262.515.671.927.932,1.443l.064-.063a1.777,1.777,0,0,0,.087-2.391c-.381-.576-1.616-.56-2.013-.471Zm0,0" fill=""/>
  </g>
</svg>
