<svg xmlns="http://www.w3.org/2000/svg" width="28.383" height="28.383" viewBox="0 0 28.383 28.383">
  <g id="组_1614" data-name="组 1614" transform="translate(-1418.652 -5637.681)">
    <path id="路径_709" data-name="路径 709" d="M1445.007,5666.064h-24.328a2.03,2.03,0,0,1-2.027-2.028v-24.328a2.029,2.029,0,0,1,2.027-2.027h24.328a2.03,2.03,0,0,1,2.028,2.027v24.328a2.031,2.031,0,0,1-2.028,2.028Zm-24.328-26.356v24.328h24.33l0-24.328Zm0,0" fill=""/>
    <path id="路径_710" data-name="路径 710" d="M1433.857,5650.859h6.589a1.014,1.014,0,0,1,0,2.027h-6.589v6.589a1.014,1.014,0,0,1-2.028,0v-6.589h-6.589a1.014,1.014,0,0,1,0-2.027h6.589v-6.589a1.014,1.014,0,1,1,2.028,0Zm0,0" fill=""/>
  </g>
</svg>
