<svg xmlns="http://www.w3.org/2000/svg" width="27.623" height="31.872" viewBox="0 0 27.623 31.872">
  <g id="组_1558" data-name="组 1558" transform="translate(-2049.574 -5424.381)">
    <path id="路径_569" data-name="路径 569" d="M2069.76,5437.129h-12.749a1.063,1.063,0,0,0,0,2.125h12.749a1.063,1.063,0,0,0,0-2.125Zm0,6.375h-12.749a1.063,1.063,0,0,0,0,2.125h12.749a1.063,1.063,0,0,0,0-2.125Zm0,0" fill=""/>
    <path id="路径_570" data-name="路径 570" d="M2074.009,5424.381h-21.248a3.191,3.191,0,0,0-3.187,3.187v25.5a3.191,3.191,0,0,0,3.187,3.188h21.248a3.192,3.192,0,0,0,3.188-3.188v-25.5a3.192,3.192,0,0,0-3.188-3.187Zm-17,2.124h12.749v3.188h-12.749Zm18.061,26.56a1.063,1.063,0,0,1-1.063,1.063h-21.248a1.064,1.064,0,0,1-1.062-1.063v-25.5a1.065,1.065,0,0,1,1.062-1.063h2.125v3.188a2.126,2.126,0,0,0,2.125,2.124h12.749a2.126,2.126,0,0,0,2.125-2.124V5426.5h2.124a1.064,1.064,0,0,1,1.063,1.063Zm0,0" fill=""/>
  </g>
</svg>
