<svg xmlns="http://www.w3.org/2000/svg" width="26.356" height="28.383" viewBox="0 0 26.356 28.383">
  <g id="组_1632" data-name="组 1632" transform="translate(-1468.845 -5708.62)">
    <path id="路径_753" data-name="路径 753" d="M1482.023,5708.62h-11.15a2.03,2.03,0,0,0-2.028,2.028v24.328a2.03,2.03,0,0,0,2.028,2.027h11.15a2.03,2.03,0,0,0,2.028-2.027v-24.328a2.03,2.03,0,0,0-2.028-2.028Zm-11.15,26.356v-24.328h11.15v24.328Zm22.3-16.219h-6.082a2.029,2.029,0,0,0-2.028,2.027v14.192a2.029,2.029,0,0,0,2.028,2.027h6.082a2.029,2.029,0,0,0,2.027-2.027v-14.192a2.029,2.029,0,0,0-2.027-2.027Zm-6.082,16.219v-14.192h6.082l0,14.192Zm0,0" fill=""/>
    <path id="路径_754" data-name="路径 754" d="M1478.982,5731.124h-5.068a1.013,1.013,0,1,0,0,2.027h5.068a1.013,1.013,0,1,0,0-2.027Zm0,0" fill=""/>
  </g>
</svg>
