<svg xmlns="http://www.w3.org/2000/svg" width="29.216" height="29.216" viewBox="0 0 29.216 29.216">
  <g id="组_1545" data-name="组 1545" transform="translate(-1943.758 -5350.689)">
    <path id="路径_536" data-name="路径 536" d="M1946.945,5352.814a1.061,1.061,0,0,0-1.062,1.062v22.842a1.061,1.061,0,0,0,1.062,1.062h22.842a1.062,1.062,0,0,0,1.062-1.062v-22.842a1.062,1.062,0,0,0-1.062-1.062Zm0-2.125h22.842a3.187,3.187,0,0,1,3.187,3.187v22.842a3.187,3.187,0,0,1-3.187,3.187h-22.842a3.187,3.187,0,0,1-3.187-3.187v-22.842a3.187,3.187,0,0,1,3.187-3.187Zm0,0" fill=""/>
    <path id="路径_537" data-name="路径 537" d="M1957.641,5356.74h1.98v3.134h6.507v7.938h-6.507v6.122h-1.98v-6.122h-6.489v-7.936h6.489v-3.137Zm-4.565,9.2h4.565v-4.2h-4.566v4.2Zm6.545,0h4.583v-4.2h-4.585v4.2Zm0,0" fill=""/>
  </g>
</svg>
