<svg xmlns="http://www.w3.org/2000/svg" width="31.872" height="29.747" viewBox="0 0 31.872 29.747">
  <g id="组_1567" data-name="组 1567" transform="translate(-1152.383 -5425.425)">
    <path id="路径_593" data-name="路径 593" d="M1179.474,5449.329a2.651,2.651,0,0,0-2.431,1.594h-5.06a3.708,3.708,0,0,0-2.6-3.015v-4.422h6.374a3.188,3.188,0,0,0,0-6.375h-14.874a3.188,3.188,0,0,0,0,6.375h6.375v4.422a3.707,3.707,0,0,0-2.6,3.015H1159.6a2.651,2.651,0,1,0,0,2.124h5.378a3.7,3.7,0,0,0,6.691,0h5.378a2.655,2.655,0,1,0,2.431-3.718Zm-18.592-7.968a1.064,1.064,0,0,1,0-2.125h14.874a1.064,1.064,0,0,1,0,2.125Zm7.437,11.686a1.594,1.594,0,1,1,1.594-1.593,1.6,1.6,0,0,1-1.594,1.593Zm0,0" fill=""/>
    <path id="路径_594" data-name="路径 594" d="M1160.351,5447.735h3.038a1.062,1.062,0,0,0,0-2.124h-3.038a5.844,5.844,0,0,1-.913-11.617l.632-.1.207-.6a8.5,8.5,0,0,1,16.084,0l.208.6.632.1a5.844,5.844,0,0,1-.914,11.617h-3.229a1.062,1.062,0,1,0,0,2.124h3.229a7.969,7.969,0,0,0,1.866-15.717,10.629,10.629,0,0,0-19.666,0,7.969,7.969,0,0,0,1.864,15.717Zm0,0" fill=""/>
  </g>
</svg>
