<svg xmlns="http://www.w3.org/2000/svg" width="29.747" height="29.747" viewBox="0 0 29.747 29.747">
  <g id="组_1506" data-name="组 1506" transform="translate(-1732.996 -5277.969)">
    <path id="路径_465" data-name="路径 465" d="M1760.618,5277.969h-25.5a2.124,2.124,0,0,0-2.124,2.125v25.5a2.124,2.124,0,0,0,2.124,2.125h25.5a2.124,2.124,0,0,0,2.125-2.125v-25.5a2.124,2.124,0,0,0-2.125-2.125Zm-25.5,2.125h25.5v6.374h-25.5Zm25.5,25.5h-25.5v-17h25.5Zm0,0" fill=""/>
    <path id="路径_466" data-name="路径 466" d="M1739.37,5294.967h17a1.063,1.063,0,1,0,0-2.125h-17a1.063,1.063,0,0,0,0,2.125Zm0,5.312h17a1.063,1.063,0,1,0,0-2.125h-17a1.063,1.063,0,0,0,0,2.125Zm17-18.061h-2.124a1.063,1.063,0,1,0,0,2.125h2.124a1.063,1.063,0,1,0,0-2.125Zm0,0" fill=""/>
  </g>
</svg>
