<svg xmlns="http://www.w3.org/2000/svg" width="30.462" height="30.459" viewBox="0 0 30.462 30.459">
  <g id="组_1662" data-name="组 1662" transform="translate(-1630.226 -5848.135)">
    <path id="路径_824" data-name="路径 824" d="M1660.294,5875.759l-13.26-26.428a1.636,1.636,0,0,0-3.148-.012l-13.273,26.453a1.718,1.718,0,0,0,1.65,2.822h26.387a1.721,1.721,0,0,0,1.644-2.835Zm-3.061.547a.316.316,0,0,1-.263.144h-23.026a.311.311,0,0,1-.282-.443l11.514-24.616a.311.311,0,0,1,.563,0l11.513,24.616A.318.318,0,0,1,1657.233,5876.306Z" fill=""/>
    <circle id="椭圆_527" data-name="椭圆 527" cx="1.631" cy="1.631" r="1.631" transform="translate(1643.826 5869.504)" fill=""/>
    <path id="路径_825" data-name="路径 825" d="M1644.4,5866.939l-.579-5.549a1.633,1.633,0,0,1,3.266.032l-.576,5.517Z" fill=""/>
  </g>
</svg>
