<svg xmlns="http://www.w3.org/2000/svg" width="28.803" height="29.87" viewBox="0 0 28.803 29.87">
  <g id="组_1581" data-name="组 1581" transform="translate(-1312.459 -5495.88)">
    <path id="路径_628" data-name="路径 628" d="M1340.951,5523.929l-4.628-4.627a13.962,13.962,0,1,0-1.592,1.423l4.711,4.712a1.067,1.067,0,0,0,1.509-1.508Zm-26.36-14.19a11.727,11.727,0,1,1,11.726,11.726,11.74,11.74,0,0,1-11.726-11.726Zm0,0" fill=""/>
    <path id="路径_629" data-name="路径 629" d="M1331.174,5508.672h-3.791v-3.731a1.066,1.066,0,0,0-2.132,0v3.731h-3.731a1.066,1.066,0,0,0,0,2.132h3.731v3.732a1.066,1.066,0,0,0,2.132,0V5510.8h3.791a1.066,1.066,0,0,0,0-2.132Zm0,0" fill=""/>
  </g>
</svg>
