<svg xmlns="http://www.w3.org/2000/svg" width="30.65" height="29.735" viewBox="0 0 30.65 29.735">
  <g id="组_1640" data-name="组 1640" transform="translate(-1149.551 -5848.497)">
    <path id="路径_774" data-name="路径 774" d="M1176.429,5848.5h-19.5a3.763,3.763,0,0,0-3.05,3.051v18.417h-.565l-.115.016-.037.016a4.132,4.132,0,0,0-.005,8.2v.036h19.658a3.761,3.761,0,0,0,3.05-3.05v-21.3h3.521a2.315,2.315,0,0,0,.811-1.606,3.47,3.47,0,0,0-3.772-3.778Zm2,3.611h-2.559c.032-1.288.413-1.842,1.282-1.842.853,0,1.245.57,1.277,1.842Zm-10.219,24.356H1153.48l-.1-.01a2.377,2.377,0,0,1,0-4.71l14.839-.01a5.372,5.372,0,0,0-.649,2.365,5.277,5.277,0,0,0,.644,2.365Zm4.631-6.158.141-.037v-.3h-17.329V5852.27a2.007,2.007,0,0,1,2-2h16.864a4.146,4.146,0,0,0-.418,2v22.19a2.007,2.007,0,0,1-2,2h-1.884a3.751,3.751,0,0,1-.842-2.365,3.79,3.79,0,0,1,3.469-3.793Zm0,0" fill=""/>
    <path id="路径_775" data-name="路径 775" d="M1159.659,5855.718h10.434v1.517h-10.434Zm0,4.332h10.434v1.517h-10.434Zm0,4.333h10.434v1.517h-10.434Zm0,0" fill=""/>
  </g>
</svg>
