<svg xmlns="http://www.w3.org/2000/svg" width="30.809" height="29.747" viewBox="0 0 30.809 29.747">
  <g id="组_1561" data-name="组 1561" transform="translate(-1363.614 -5425.443)">
    <path id="路径_579" data-name="路径 579" d="M1376.362,5453.066h-9.46a1.2,1.2,0,0,1-1.164-1.226v-23.046a1.2,1.2,0,0,1,1.164-1.226h18.921a1.2,1.2,0,0,1,1.163,1.226v6.058a1.063,1.063,0,0,0,2.125,0v-6.058a3.32,3.32,0,0,0-3.288-3.351H1366.9a3.32,3.32,0,0,0-3.288,3.351v23.046a3.319,3.319,0,0,0,3.288,3.35h9.46a1.062,1.062,0,1,0,0-2.124Zm0,0" fill=""/>
    <path id="路径_580" data-name="路径 580" d="M1385.924,5438.192a8.5,8.5,0,1,0,8.5,8.5,8.5,8.5,0,0,0-8.5-8.5Zm0,14.874a6.375,6.375,0,1,1,6.374-6.375,6.375,6.375,0,0,1-6.374,6.375Zm0,0" fill=""/>
    <path id="路径_581" data-name="路径 581" d="M1389.093,5446.16h-2.638v-2.125a1.063,1.063,0,0,0-2.125,0v3.187a1.063,1.063,0,0,0,1.063,1.063h3.7a1.063,1.063,0,1,0,0-2.125Zm-6.356-12.218a1.062,1.062,0,0,0-1.063-1.062H1371.05a1.063,1.063,0,0,0,0,2.125h10.624a1.063,1.063,0,0,0,1.063-1.063Zm-11.687,7.437a1.063,1.063,0,0,0,0,2.125h2.666a1.063,1.063,0,0,0,0-2.125Zm0,0" fill=""/>
  </g>
</svg>
