<svg xmlns="http://www.w3.org/2000/svg" width="29.747" height="29.747" viewBox="0 0 29.747 29.747">
  <g id="组_1577" data-name="组 1577" transform="translate(-1522.259 -5778.751)">
    <path id="路径_614" data-name="路径 614" d="M1547.757,5797.874a4.188,4.188,0,0,0-2.026.538l-4.6-3.388a3.354,3.354,0,0,0,.212-1.834l4.252-2.552a3.179,3.179,0,1,0-1.021-2.326,3.266,3.266,0,0,0,.043.435l-4.029,2.417a4.243,4.243,0,0,0-2.389-1.638V5787.1a4.249,4.249,0,1,0-2.125,0v2.427a4.248,4.248,0,0,0-2.511,1.819l-3.936-2.362a3.188,3.188,0,1,0-3.114,2.517,3.155,3.155,0,0,0,1.987-.714l4.406,2.644c0,.066-.019.128-.019.194a4.2,4.2,0,0,0,.256,1.4l-4.552,3.414a4.205,4.205,0,0,0-2.078-.566,4.291,4.291,0,1,0,3.625,2.062l4.193-3.144a4.234,4.234,0,0,0,1.743.931v4.6a3.188,3.188,0,1,0,2.125,0v-4.6a4.22,4.22,0,0,0,1.746-.933l4.215,3.1a4.239,4.239,0,1,0,3.6-2.019ZM1535.008,5783a2.125,2.125,0,1,1,2.125,2.125,2.127,2.127,0,0,1-2.125-2.125Zm-8.5,21.248a2.125,2.125,0,1,1,2.125-2.124,2.126,2.126,0,0,1-2.125,2.124Zm10.624-8.5a2.125,2.125,0,1,1,2.125-2.125,2.127,2.127,0,0,1-2.125,2.125Zm10.624,8.5a2.125,2.125,0,1,1,2.125-2.124,2.126,2.126,0,0,1-2.125,2.124Zm0,0" fill=""/>
  </g>
</svg>
