<svg xmlns="http://www.w3.org/2000/svg" width="31.917" height="25.584" viewBox="0 0 31.917 25.584">
  <g id="组_1606" data-name="组 1606" transform="translate(-1889.781 -5498.022)">
    <path id="路径_687" data-name="路径 687" d="M1902.343,5520.409a3.2,3.2,0,1,0,3.2-3.2,3.2,3.2,0,0,0-3.2,3.2Zm0,0" fill=""/>
    <path id="路径_688" data-name="路径 688" d="M1913.406,5510.463a10.856,10.856,0,0,0-16.757,1.74,1.066,1.066,0,1,0,1.785,1.166,8.815,8.815,0,0,1,1.137-1.4,8.72,8.72,0,0,1,13.464,1.4,1.066,1.066,0,0,0,1.785-1.167,10.862,10.862,0,0,0-1.414-1.741Zm0,0" fill=""/>
    <path id="路径_689" data-name="路径 689" d="M1921.524,5506.569a19,19,0,0,0-2.458-3.025,18.862,18.862,0,0,0-29.12,3.025,1.066,1.066,0,0,0,1.784,1.166,16.925,16.925,0,0,1,2.182-2.685,16.725,16.725,0,0,1,25.827,2.687,1.067,1.067,0,0,0,1.785-1.168Zm0,0" fill=""/>
  </g>
</svg>
