<svg xmlns="http://www.w3.org/2000/svg" width="30.81" height="29.747" viewBox="0 0 30.81 29.747">
  <g id="组_1508" data-name="组 1508" transform="translate(-1574.59 -5277.969)">
    <path id="路径_469" data-name="路径 469" d="M1587.339,5305.591a1.063,1.063,0,1,1,0,2.125h-9.461a3.32,3.32,0,0,1-3.288-3.351V5281.32a3.32,3.32,0,0,1,3.288-3.351H1596.8a3.32,3.32,0,0,1,3.288,3.351v6.057a1.063,1.063,0,1,1-2.125,0v-6.057a1.2,1.2,0,0,0-1.163-1.226h-18.922a1.2,1.2,0,0,0-1.163,1.226v23.045a1.2,1.2,0,0,0,1.163,1.226Zm0,0" fill=""/>
    <path id="路径_470" data-name="路径 470" d="M1596.9,5307.716a8.5,8.5,0,1,1,8.5-8.5,8.5,8.5,0,0,1-8.5,8.5Zm0-2.125a6.375,6.375,0,1,0-6.375-6.374,6.374,6.374,0,0,0,6.375,6.374Zm0,0" fill=""/>
    <path id="路径_471" data-name="路径 471" d="M1597.432,5298.686h2.638a1.062,1.062,0,1,1,0,2.124h-3.7a1.062,1.062,0,0,1-1.063-1.062v-3.187a1.063,1.063,0,1,1,2.125,0Zm-15.405-11.156a1.062,1.062,0,0,1,0-2.124h10.624a1.062,1.062,0,1,1,0,2.124Zm0,8.5a1.063,1.063,0,0,1,0-2.125h2.125a1.063,1.063,0,0,1,0,2.125Zm0,0" fill=""/>
  </g>
</svg>
