<svg xmlns="http://www.w3.org/2000/svg" width="29.747" height="29.747" viewBox="0 0 29.747 29.747">
  <g id="组_1492" data-name="组 1492" transform="translate(-1154.124 -5277.969)">
    <path id="路径_436" data-name="路径 436" d="M1171.1,5305.591h-13.785a1.063,1.063,0,0,1-1.063-1.062v-23.373a1.062,1.062,0,0,1,1.063-1.062h18.061a1.062,1.062,0,0,1,1.062,1.062,1.063,1.063,0,0,0,2.125,0,3.187,3.187,0,0,0-3.187-3.187h-18.061a3.186,3.186,0,0,0-3.187,3.187v23.373a3.186,3.186,0,0,0,3.187,3.187H1171.1a1.063,1.063,0,1,0,0-2.125Zm0,0" fill=""/>
    <path id="路径_437" data-name="路径 437" d="M1169,5285.406a1.062,1.062,0,0,0-1.062-1.063h-8.5a1.063,1.063,0,1,0,0,2.125h8.5a1.062,1.062,0,0,0,1.062-1.062Zm-1.062,6.374a1.062,1.062,0,0,0-1.063-1.062h-7.436a1.062,1.062,0,1,0,0,2.124h7.436a1.062,1.062,0,0,0,1.063-1.062Zm-8.5,6.374a1.063,1.063,0,1,0,0,2.125h4.249a1.063,1.063,0,1,0,0-2.125Zm21.248-1.593h-2.2a69.273,69.273,0,0,0,2.2-6.906,5.312,5.312,0,1,0-10.624,0,50.133,50.133,0,0,0,2.181,6.906h-2.181a3.187,3.187,0,0,0-3.188,3.187v1.062a3.188,3.188,0,0,0,3.188,3.188h10.624a3.188,3.188,0,0,0,3.187-3.188v-1.062a3.187,3.187,0,0,0-3.187-3.187Zm-7.355-3.269c-.643-1.852-1.145-3.484-1.145-3.637a3.188,3.188,0,0,1,6.375,0c0,.21-1.733,5.261-2.335,6.906h-1.7c-.266-.67-.744-1.968-1.2-3.269Zm8.417,7.518a1.063,1.063,0,0,1-1.062,1.063H1170.06a1.063,1.063,0,0,1-1.063-1.063v-1.062a1.062,1.062,0,0,1,1.063-1.062h10.624a1.062,1.062,0,0,1,1.062,1.062Zm0,0" fill=""/>
  </g>
</svg>
