<svg xmlns="http://www.w3.org/2000/svg" width="27.622" height="31.871" viewBox="0 0 27.622 31.871">
  <g id="组_1520" data-name="组 1520" transform="translate(-1470.924 -5276.887)">
    <path id="路径_491" data-name="路径 491" d="M1491.216,5287.477l-6.591,3.827-6.476-3.709a1.062,1.062,0,1,0-1.051,1.846l6.6,3.778v8.524a1.063,1.063,0,0,0,2.125,0v-8.566a.9.9,0,0,0-.021-.1l6.466-3.755a1.061,1.061,0,1,0-1.05-1.845Zm0,0" fill=""/>
    <path id="路径_492" data-name="路径 492" d="M1496.962,5283.543l-10.627-6.221a3.179,3.179,0,0,0-3.209,0l-10.619,6.221a3.206,3.206,0,0,0-1.583,2.769v13.2a3.208,3.208,0,0,0,1.618,2.789l10.624,6.039a3.167,3.167,0,0,0,3.137,0l10.624-6.039a3.208,3.208,0,0,0,1.619-2.789v-13.2a3.207,3.207,0,0,0-1.584-2.769Zm-.541,15.972a1.069,1.069,0,0,1-.539.929l-10.624,6.04a1.055,1.055,0,0,1-1.046,0l-10.624-6.04a1.069,1.069,0,0,1-.54-.929v-13.2a1.07,1.07,0,0,1,.528-.923l10.62-6.22a1.055,1.055,0,0,1,1.069,0l10.628,6.221a1.066,1.066,0,0,1,.528.922Zm0,0" fill=""/>
  </g>
</svg>
