<svg xmlns="http://www.w3.org/2000/svg" width="25.289" height="32" viewBox="0 0 25.289 32">
  <g id="组_1639" data-name="组 1639" transform="translate(-1894.558 -5635.872)">
    <path id="路径_772" data-name="路径 772" d="M1918.912,5640.38c-4.928-.558-8.634-1.89-11.018-3.963l-.627-.545-.676.483c-3.736,2.667-7.43,4.019-10.979,4.019h-1.054v14.751c0,4.523,3.988,8.625,12.191,12.542l.431.205.439-.188c8.115-3.486,12.228-7.71,12.228-12.559v-14.639Zm-1.172,14.745c0,3.847-3.536,7.356-10.515,10.432-7.007-3.417-10.559-6.926-10.559-10.432v-12.678a21.254,21.254,0,0,0,10.487-3.916c2.527,1.926,6.081,3.21,10.587,3.827Zm0,0" fill=""/>
    <path id="路径_773" data-name="路径 773" d="M1902.19,5650.538a1.054,1.054,0,1,0-1.579,1.4l4.01,4.538a2.112,2.112,0,0,0,3.214-.064l6.507-7.992a1.054,1.054,0,0,0-1.635-1.331l-6.506,7.991Zm0,0" fill=""/>
  </g>
</svg>
