<svg xmlns="http://www.w3.org/2000/svg" width="30" height="28.079" viewBox="0 0 30 28.079">
  <g id="组_1667" data-name="组 1667" transform="translate(-1786.108 -5849.325)">
    <path id="路径_839" data-name="路径 839" d="M1793.608,5859.05a1.947,1.947,0,1,0,1.875,1.946,1.912,1.912,0,0,0-1.875-1.946Zm7.5,0a1.947,1.947,0,1,0,1.875,1.946,1.912,1.912,0,0,0-1.875-1.946Zm7.5,0a1.947,1.947,0,1,0,1.875,1.946,1.912,1.912,0,0,0-1.875-1.946Zm3.75-9.725h-22.5a3.823,3.823,0,0,0-3.75,3.891V5867.8a4.078,4.078,0,0,0,3.835,4.129h5.715c1,1.061,5.119,5.329,5.119,5.329a.457.457,0,0,0,.663,0c.086-.091,3.017-3.422,4.984-5.329h5.849a4.076,4.076,0,0,0,3.835-4.129v-14.587a3.822,3.822,0,0,0-3.75-3.891Zm1.876,18.478a2.2,2.2,0,0,1-1.961,2.2h-5.751a2.135,2.135,0,0,0-1.323.717l-4.038,4.188-4.038-4.188a2.723,2.723,0,0,0-1.428-.717h-5.752a2.2,2.2,0,0,1-1.959-2.2v-14.587a1.911,1.911,0,0,1,1.874-1.945h22.5a1.912,1.912,0,0,1,1.876,1.945V5867.8Zm0,0" fill=""/>
  </g>
</svg>
