<svg xmlns="http://www.w3.org/2000/svg" width="30.04" height="30" viewBox="0 0 30.04 30">
  <g id="组_1647" data-name="组 1647" transform="translate(-1892.806 -5778.625)">
    <path id="路径_787" data-name="路径 787" d="M1907.778,5801.871a10.951,10.951,0,0,1-8.518-3.931,13.831,13.831,0,0,1-1.793-2.692c-.156-.308-.294-.611-.413-.9a1.42,1.42,0,0,1,0-1.446c.119-.29.257-.593.413-.9a13.626,13.626,0,0,1,1.793-2.692,11.19,11.19,0,0,1,17.032,0,13.14,13.14,0,0,1,2.455,4.286,1.391,1.391,0,0,1-.137.5l-.107.252c-.12.289-.257.592-.413.9a13.683,13.683,0,0,1-1.794,2.692A10.953,10.953,0,0,1,1907.778,5801.871Zm0-14.462a9.113,9.113,0,0,0-7.081,3.273,11.977,11.977,0,0,0-1.559,2.339c-.116.232-.219.451-.308.666a2.816,2.816,0,0,1,.308.547,11.975,11.975,0,0,0,1.559,2.338,9.3,9.3,0,0,0,14.162,0,11.823,11.823,0,0,0,1.559-2.339c.112-.227.215-.447.3-.657a14.89,14.89,0,0,0-1.863-2.894A9.091,9.091,0,0,0,1907.778,5787.409Z" fill=""/>
    <path id="路径_788" data-name="路径 788" d="M1907.778,5787.261a9.239,9.239,0,0,1,7.194,3.325,12.309,12.309,0,0,1,1.887,3.048c-.09.213-.2.435-.308.667a12.079,12.079,0,0,1-1.579,2.368,9.447,9.447,0,0,1-14.388,0,12.239,12.239,0,0,1-1.579-2.368c-.113-.227-.217-.454-.313-.672.091-.217.195-.44.313-.676a12.208,12.208,0,0,1,1.579-2.367,9.255,9.255,0,0,1,7.194-3.325Zm0-1.733a10.805,10.805,0,0,0-8.4,3.878,13.571,13.571,0,0,0-1.774,2.663c-.154.3-.29.6-.408.889a1.289,1.289,0,0,0,0,1.334c.118.285.254.585.408.889a13.685,13.685,0,0,0,1.774,2.662,11.045,11.045,0,0,0,16.81,0,13.554,13.554,0,0,0,1.774-2.662c.154-.3.29-.6.408-.889a2.4,2.4,0,0,0,.236-.667,12.96,12.96,0,0,0-2.422-4.219,10.79,10.79,0,0,0-8.4-3.878Zm0,0" fill=""/>
    <path id="路径_789" data-name="路径 789" d="M1907.805,5797.488a3.859,3.859,0,1,1,3.86-3.859A3.863,3.863,0,0,1,1907.805,5797.488Zm0-5.738a1.875,1.875,0,1,0,1.874,1.875A1.877,1.877,0,0,0,1907.805,5791.75Zm-14.021-2.027a.98.98,0,0,1-.978-.979v-9.136a.978.978,0,0,1,1.957,0v9.136a.958.958,0,0,1-.28.687A.976.976,0,0,1,1893.784,5789.723Z" fill=""/>
    <path id="路径_790" data-name="路径 790" d="M1907.805,5797.34a3.71,3.71,0,1,1,3.711-3.711,3.715,3.715,0,0,1-3.711,3.711Zm0-5.738a2.023,2.023,0,1,0,2.023,2.023,2.024,2.024,0,0,0-2.023-2.023Zm-14.021-2.028a.834.834,0,0,1-.83-.83v-9.136a.831.831,0,0,1,1.661,0v9.136a.828.828,0,0,1-.831.83Zm0,0" fill=""/>
    <path id="路径_791" data-name="路径 791" d="M1912.678,5780.587a.979.979,0,0,1,.008-1.957h9.136a.979.979,0,1,1,0,1.957Zm-18.9,0a.979.979,0,0,1,.008-1.957h9.136a.979.979,0,1,1,0,1.957Z" fill=""/>
    <path id="路径_792" data-name="路径 792" d="M1892.954,5779.608a.834.834,0,0,1,.83-.83h9.136a.83.83,0,0,1,0,1.66h-9.136a.828.828,0,0,1-.83-.83Zm18.9,0a.834.834,0,0,1,.83-.83h9.136a.83.83,0,0,1,0,1.66h-9.136a.828.828,0,0,1-.83-.83Zm0,0" fill=""/>
    <path id="路径_793" data-name="路径 793" d="M1921.822,5789.719a.981.981,0,0,1-.979-.98v-9.131a.98.98,0,0,1,.979-.983.98.98,0,0,1,.978.979v9.135A.981.981,0,0,1,1921.822,5789.719Z" fill=""/>
    <path id="路径_794" data-name="路径 794" d="M1921.822,5778.774a.833.833,0,0,1,.83.83v9.135a.83.83,0,1,1-1.66,0v-9.131a.831.831,0,0,1,.83-.834Zm0,0" fill=""/>
    <path id="路径_795" data-name="路径 795" d="M1921.863,5808.62a.981.981,0,0,1-.98-.979v-9.135a.979.979,0,0,1,1.959,0v9.135A.981.981,0,0,1,1921.863,5808.62Z" fill=""/>
    <path id="路径_796" data-name="路径 796" d="M1921.863,5797.675a.834.834,0,0,1,.83.831v9.135a.831.831,0,0,1-1.661,0v-9.135a.832.832,0,0,1,.831-.831Zm0,0" fill=""/>
    <path id="路径_797" data-name="路径 797" d="M1912.727,5808.62a.979.979,0,0,1,0-1.958h9.136a.979.979,0,1,1,0,1.958Z" fill=""/>
    <path id="路径_798" data-name="路径 798" d="M1922.7,5807.641a.833.833,0,0,1-.83.83h-9.14a.83.83,0,0,1,0-1.66h9.136a.831.831,0,0,1,.834.83Zm0,0" fill=""/>
    <path id="路径_799" data-name="路径 799" d="M1893.825,5808.62a.979.979,0,0,1,0-1.958h9.136a.979.979,0,1,1,0,1.958Z" fill=""/>
    <path id="路径_800" data-name="路径 800" d="M1903.8,5807.641a.833.833,0,0,1-.83.83h-9.14a.83.83,0,0,1,0-1.66h9.136a.831.831,0,0,1,.834.83Zm0,0" fill=""/>
    <path id="路径_801" data-name="路径 801" d="M1893.83,5808.625a.981.981,0,0,1-.979-.979v-9.14a.979.979,0,0,1,1.958,0v9.135A.983.983,0,0,1,1893.83,5808.625Z" fill=""/>
    <path id="路径_802" data-name="路径 802" d="M1893.83,5808.476a.834.834,0,0,1-.83-.83v-9.14a.83.83,0,1,1,1.66,0v9.135a.835.835,0,0,1-.83.835Zm0,0" fill=""/>
  </g>
</svg>
