<svg xmlns="http://www.w3.org/2000/svg" width="32.927" height="29.779" viewBox="0 0 32.927 29.779">
  <g id="组_1564" data-name="组 1564" transform="translate(-2100.943 -5350.394)">
    <path id="路径_585" data-name="路径 585" d="M2123.785,5358.936a2.391,2.391,0,1,0,2.39-2.39,2.39,2.39,0,0,0-2.39,2.39Zm0,0" fill=""/>
    <path id="路径_586" data-name="路径 586" d="M2133.609,5351.918a1.066,1.066,0,0,0-.729-.363l-15.145-1.059a1.049,1.049,0,0,0-.9.4l-3.06,3.813a1.063,1.063,0,0,0,.022,1.358l4.852,5.643-4.9,6.462,1.211-5.756a1.06,1.06,0,0,0-.369-1.043l-6.356-5.171,2.643-4.173a1.063,1.063,0,0,0-.972-1.628l-7.975.557a1.062,1.062,0,0,0-.986,1.135l1.853,26.494a1.064,1.064,0,0,0,1.139.986l5.86-.438a1.062,1.062,0,1,0-.159-2.118l-4.8.358-.213-3.072,4.16-.417a1.063,1.063,0,0,0-.211-2.116l-4.1.413L2103.139,5353l4.819-.336-2.024,3.194a1.062,1.062,0,0,0,.228,1.393l6.587,5.357-1.951,9.272a1.041,1.041,0,0,0,.024.49,1.06,1.06,0,0,0,.047.367l1.711,5.131a1.06,1.06,0,0,0,.911.722l17.367,1.579a1.064,1.064,0,0,0,1.157-.984l1.852-26.5a1.063,1.063,0,0,0-.258-.771Zm-3.284,20.944-13.7-1.316a1.046,1.046,0,0,0-1.159.955,1.064,1.064,0,0,0,.957,1.159l13.752,1.321-.208,2.973-15.595-1.418-1.314-3.942,7.8-10.292a1.06,1.06,0,0,0-.042-1.335l-4.835-5.622,2.161-2.691,13.532.946Zm0,0" fill=""/>
  </g>
</svg>
