<svg xmlns="http://www.w3.org/2000/svg" width="29.748" height="31.872" viewBox="0 0 29.748 31.872">
  <g id="组_1510" data-name="组 1510" transform="translate(-1575.215 -5777.689)">
    <g id="组_1509" data-name="组 1509">
      <path id="路径_472" data-name="路径 472" d="M1593.276,5790.437h6.816l4.871-4.249-4.871-4.25h-6.816v-4.249H1586.9v4.249h-10.624v8.5H1586.9v2.125h-6.817l-4.87,4.25,4.87,4.249h6.817v8.5h6.374v-8.5H1603.9v-8.5h-10.624Zm-4.249-10.624h2.124v2.125h-2.124Zm-10.624,8.5v-4.25H1599.3l2.435,2.125-2.435,2.125Zm10.624,2.124h2.124v2.125h-2.124Zm2.124,17h-2.124v-6.375h2.124Zm10.624-12.749v4.25h-20.894l-2.435-2.125,2.435-2.125Zm0,0" fill=""/>
    </g>
  </g>
</svg>
