<svg xmlns="http://www.w3.org/2000/svg" width="29.747" height="29.747" viewBox="0 0 29.747 29.747">
  <g id="组_1525" data-name="组 1525" transform="translate(-1785.619 -5204.184)">
    <path id="路径_502" data-name="路径 502" d="M1812.179,5207.371h-5.462a4.25,4.25,0,1,0,0,2.125h5.462a1.063,1.063,0,0,1,1.062,1.062v9.562a1.062,1.062,0,0,1-1.062,1.062h-10.093a1.063,1.063,0,0,0,0,2.125h10.093a3.187,3.187,0,0,0,3.187-3.187v-9.562a3.187,3.187,0,0,0-3.187-3.187Zm-9.562,3.187a2.125,2.125,0,1,1,2.126-2.125,2.125,2.125,0,0,1-2.126,2.125Zm0,0" fill=""/>
    <path id="路径_503" data-name="路径 503" d="M1811.116,5225.432a4.236,4.236,0,0,0-4.038,2.99h-10.835a1.057,1.057,0,0,1-1.054-1.018,4.24,4.24,0,1,0-4.731-6.222h-1.652a1.061,1.061,0,0,1-1.062-1.062v-9.562a1.062,1.062,0,0,1,1.062-1.062h6.906a1.063,1.063,0,0,0,0-2.125h-6.906a3.187,3.187,0,0,0-3.187,3.187v9.562a3.187,3.187,0,0,0,3.187,3.187h1.062a4.24,4.24,0,0,0,3.193,4.1,3.184,3.184,0,0,0,3.182,3.139h10.713a4.249,4.249,0,1,0,4.16-5.115Zm-19.123-2.125a2.125,2.125,0,1,1,2.125,2.126,2.126,2.126,0,0,1-2.125-2.126Zm19.123,8.5a2.125,2.125,0,1,1,2.126-2.125,2.125,2.125,0,0,1-2.126,2.125Zm0,0" fill=""/>
  </g>
</svg>
