<svg xmlns="http://www.w3.org/2000/svg" width="29.849" height="29.849" viewBox="0 0 29.849 29.849">
  <g id="组_1593" data-name="组 1593" transform="translate(-1207.092 -5566.525)">
    <path id="路径_658" data-name="路径 658" d="M1235.875,5583.581h-10.66a1.066,1.066,0,0,0-1.066,1.066v4.265h-9.6v-9.6h4.265a1.066,1.066,0,0,0,1.065-1.066v-10.66a1.066,1.066,0,0,0-1.065-1.066h-10.661a1.066,1.066,0,0,0-1.066,1.066v10.66a1.066,1.066,0,0,0,1.066,1.066h4.264v10.66a1.067,1.067,0,0,0,1.066,1.067h10.661v4.264a1.066,1.066,0,0,0,1.066,1.066h10.66a1.066,1.066,0,0,0,1.066-1.066v-10.661a1.066,1.066,0,0,0-1.066-1.066Zm-26.651-6.4v-8.528h8.528v8.528Zm25.585,17.057h-8.528v-8.529h8.528Zm0,0" fill=""/>
  </g>
</svg>
