<svg xmlns="http://www.w3.org/2000/svg" width="32" height="30" viewBox="0 0 32 30">
  <g id="组_1641" data-name="组 1641" transform="translate(-1095.718 -5848.365)">
    <path id="路径_776" data-name="路径 776" d="M1120.718,5857.143h-12v-2h12Zm0,3.75h-12v2h12Zm7,6.472v10.373a.628.628,0,0,1-.627.627h-30.746a.628.628,0,0,1-.627-.627v-10.373h2v-14.373a.627.627,0,0,1,.627-.627h4.746a.628.628,0,0,0,.627-.627v-2.746a.627.627,0,0,1,.627-.627h20.746a.627.627,0,0,1,.627.627v18.373Zm-21.373-17a.627.627,0,0,0-.627.627v16.373h1.422a4.974,4.974,0,0,0,8.99.349.627.627,0,0,1,.551-.349h6.41a.628.628,0,0,0,.627-.627v-15.746a.627.627,0,0,0-.627-.627Zm-6,17h2.746a.628.628,0,0,0,.627-.627v-11.746a.627.627,0,0,0-.627-.627h-2.746a.627.627,0,0,0-.627.627v11.746A.628.628,0,0,0,1100.345,5867.365Zm24.746,2h-7.347a.61.61,0,0,0-.488.252,6.907,6.907,0,0,1-11.077,0,.607.607,0,0,0-.487-.252h-7.347a.627.627,0,0,0-.627.627v5.746a.628.628,0,0,0,.627.627h26.746a.628.628,0,0,0,.627-.627v-5.746A.627.627,0,0,0,1125.091,5869.365Zm.627,0" fill=""/>
    <rect id="矩形_836" data-name="矩形 836" width="12" height="2" transform="translate(1108.718 5855.143)" fill=""/>
    <rect id="矩形_837" data-name="矩形 837" width="12" height="2" transform="translate(1108.718 5860.893)" fill=""/>
  </g>
</svg>
