<svg xmlns="http://www.w3.org/2000/svg" width="31.872" height="19.124" viewBox="0 0 31.872 19.124">
  <g id="组_1523" data-name="组 1523" transform="translate(-1100.436 -5355.735)">
    <g id="组_1522" data-name="组 1522">
      <path id="路径_497" data-name="路径 497" d="M1122.747,5355.735H1110a9.562,9.562,0,0,0,0,19.124h12.749a9.562,9.562,0,0,0,0-19.124Zm0,17H1110a7.437,7.437,0,0,1,0-14.874h12.749a7.437,7.437,0,0,1,0,14.874Zm0,0" fill=""/>
      <path id="路径_498" data-name="路径 498" d="M1110,5358.923a6.374,6.374,0,1,0,6.374,6.374,6.381,6.381,0,0,0-6.374-6.374Zm0,10.624a4.25,4.25,0,1,1,4.25-4.25,4.254,4.254,0,0,1-4.25,4.25Zm0,0" fill=""/>
    </g>
  </g>
</svg>
