<svg xmlns="http://www.w3.org/2000/svg" width="39.029" height="27.459" viewBox="0 0 39.029 27.459">
  <g id="组_1653" data-name="组 1653" transform="translate(-1991.462 -5779.895)">
    <path id="路径_810" data-name="路径 810" d="M1991.625,5793.227l12.861-13.16a.571.571,0,0,1,.816,0l12.86,13.158a.57.57,0,0,1,0,.8l-12.86,13.159a.571.571,0,0,1-.816,0l-12.861-13.157A.57.57,0,0,1,1991.625,5793.227Zm13.268-9.73a.647.647,0,0,0-.462.194l-8.875,9.083a1.217,1.217,0,0,0,0,1.7l8.876,9.082a.65.65,0,0,0,.924,0l8.876-9.082a1.217,1.217,0,0,0,0-1.7l-8.877-9.083A.647.647,0,0,0,2004.893,5783.5Z" fill=""/>
    <path id="路径_811" data-name="路径 811" d="M2003.793,5793.225l12.859-13.158a.572.572,0,0,1,.817,0l12.859,13.158a.571.571,0,0,1,0,.8l-12.86,13.159a.572.572,0,0,1-.817,0l-12.859-13.159A.57.57,0,0,1,2003.793,5793.225Zm13.268-9.728a.644.644,0,0,0-.462.194l-8.875,9.083a1.217,1.217,0,0,0,0,1.7l8.876,9.082a.65.65,0,0,0,.924,0l8.876-9.082a1.217,1.217,0,0,0,0-1.7l-8.878-9.083A.645.645,0,0,0,2017.061,5783.5Z" fill=""/>
  </g>
</svg>
