<svg xmlns="http://www.w3.org/2000/svg" width="29.747" height="29.747" viewBox="0 0 29.747 29.747">
  <g id="组_1493" data-name="组 1493" transform="translate(-1101.499 -5277.969)">
    <path id="路径_438" data-name="路径 438" d="M1131.225,5293.267c0-.142.021-.281.021-.425a14.823,14.823,0,0,0-.917-5.152,1.062,1.062,0,0,0-1.993.735,12.7,12.7,0,0,1,.762,3.885H1127a1.063,1.063,0,0,0,0,2.125h2.015a12.738,12.738,0,0,1-11.576,11.1v-2.071a1.063,1.063,0,0,0-2.125,0v2.071a12.738,12.738,0,0,1-11.576-11.1h2.014a1.063,1.063,0,1,0,0-2.125h-2.1a12.733,12.733,0,0,1,11.66-12.163v2.07a1.063,1.063,0,1,0,2.125,0v-2.069a12.655,12.655,0,0,1,4.095,1.032,1.063,1.063,0,0,0,.861-1.943,14.88,14.88,0,0,0-20.892,13.6c0,.144.017.283.021.425,0,.038-.021.069-.021.107a.95.95,0,0,0,.036.177,14.853,14.853,0,0,0,29.675,0,.95.95,0,0,0,.036-.177c0-.038-.018-.069-.021-.107Zm0,0" fill=""/>
    <path id="路径_439" data-name="路径 439" d="M1127.64,5281.242l-12.465,5.343a6.372,6.372,0,1,0,7.15,8.523l6.669-12.386c.009-.018.008-.038.017-.056a1.009,1.009,0,0,0,.063-.211,1.109,1.109,0,0,0,.037-.19.948.948,0,0,0-.02-.191,1.043,1.043,0,0,0-.044-.216c-.006-.019,0-.039-.012-.058a.963.963,0,0,0-.076-.112,1.02,1.02,0,0,0-.125-.179.9.9,0,0,0-.167-.139,1.041,1.041,0,0,0-.1-.087c-.018-.009-.038-.008-.056-.017a1.071,1.071,0,0,0-.21-.063,1.041,1.041,0,0,0-.19-.036.884.884,0,0,0-.192.019,1.031,1.031,0,0,0-.215.044c-.02.007-.04,0-.059.012Zm-8.4,5.912,6.442-2.761-3.345,6.213a6.392,6.392,0,0,0-3.1-3.452Zm0,0" fill=""/>
  </g>
</svg>
