<svg xmlns="http://www.w3.org/2000/svg" width="31.981" height="31.981" viewBox="0 0 31.981 31.981">
  <g id="组_1591" data-name="组 1591" transform="translate(-1311.439 -5565.459)">
    <path id="路径_652" data-name="路径 652" d="M1327.43,5597.44a15.99,15.99,0,1,1,15.99-15.991,15.992,15.992,0,0,1-15.99,15.991Zm0-2.132a13.859,13.859,0,1,0-13.859-13.859,13.858,13.858,0,0,0,13.859,13.859Zm0,0" fill=""/>
    <path id="路径_653" data-name="路径 653" d="M1321.567,5580.383a1.066,1.066,0,0,0,0,2.132h13.858a1.066,1.066,0,0,0,0-2.132Zm0,0" fill=""/>
    <path id="路径_654" data-name="路径 654" d="M1320.931,5581.449l5.043-5.689a1.066,1.066,0,1,0-1.595-1.414l-5.67,6.4a1.064,1.064,0,0,0,0,1.414l5.671,6.4a1.066,1.066,0,1,0,1.595-1.413Zm0,0" fill=""/>
  </g>
</svg>
