<svg xmlns="http://www.w3.org/2000/svg" width="31.872" height="25.635" viewBox="0 0 31.872 25.635">
  <g id="组_1513" data-name="组 1513" transform="translate(-1995.041 -5280.011)">
    <path id="路径_478" data-name="路径 478" d="M2025.85,5280.011H1996.1a1.061,1.061,0,0,0-1.062,1.062V5300.2a1.062,1.062,0,0,0,1.062,1.063h8.825a1.063,1.063,0,0,0,0-2.125h-7.762v-17h27.622v17h-2.264a1.063,1.063,0,0,0,0,2.125h3.326a1.063,1.063,0,0,0,1.063-1.063v-19.123a1.062,1.062,0,0,0-1.063-1.062Zm0,0" fill=""/>
    <path id="路径_479" data-name="路径 479" d="M2013.922,5296.482a1.062,1.062,0,0,0-1.475-.053l-2.051,1.839-.418-7.963,7.882.939-1.6,1.5a1.063,1.063,0,1,0,1.448,1.555l3.28-3.059a1.063,1.063,0,0,0-.6-1.833l-11.408-1.358a1.062,1.062,0,0,0-1.185,1.11l.6,11.44a1.063,1.063,0,0,0,1.77.734l2.943-2.637,6.392,6.628a1.062,1.062,0,1,0,1.529-1.474Zm0,0" fill=""/>
  </g>
</svg>
