<svg xmlns="http://www.w3.org/2000/svg" width="30.41" height="30.41" viewBox="0 0 30.41 30.41">
  <g id="组_1609" data-name="组 1609" transform="translate(-1681.171 -5636.667)">
    <path id="路径_694" data-name="路径 694" d="M1696.376,5636.667a15.205,15.205,0,1,0,15.205,15.205,15.206,15.206,0,0,0-15.205-15.205Zm0,28.383a13.178,13.178,0,1,1,13.178-13.178,13.178,13.178,0,0,1-13.178,13.178Zm0,0" fill=""/>
    <path id="路径_695" data-name="路径 695" d="M1696.376,5647.818a1.013,1.013,0,0,0-1.013,1.013v11.151a1.013,1.013,0,0,0,2.027,0v-11.151a1.013,1.013,0,0,0-1.014-1.013Zm0,0" fill=""/>
    <path id="路径_696" data-name="路径 696" d="M1694.856,5644.27a1.521,1.521,0,1,0,1.52-1.521,1.521,1.521,0,0,0-1.52,1.521Zm0,0" fill=""/>
  </g>
</svg>
