<svg xmlns="http://www.w3.org/2000/svg" width="31.342" height="29.748" viewBox="0 0 31.342 29.748">
  <g id="组_1570" data-name="组 1570" transform="translate(-1995.306 -5204.184)">
    <path id="路径_599" data-name="路径 599" d="M1999.025,5231.807H1996.9v-25.5a2.125,2.125,0,0,1,2.125-2.125h12.748a2.125,2.125,0,0,1,2.125,2.125v25.5h-2.125v-25.5h-12.748ZM2022.4,5218h2.125v13.811H2022.4Zm-26.028,15.936a1.063,1.063,0,1,1,0-2.125h28.153a1.063,1.063,0,1,1,0,2.125Zm0,0" fill=""/>
    <path id="路径_600" data-name="路径 600" d="M2025.971,5218.068a1.063,1.063,0,1,1-.773,1.98l-12.755-4.979a1.063,1.063,0,0,1,.772-1.98l12.757,4.979Zm-8.873,3.447a1.063,1.063,0,0,1,0,2.125h-4.271a1.063,1.063,0,0,1,0-2.125Zm0,4.25a1.063,1.063,0,0,1,0,2.125h-4.271a1.063,1.063,0,0,1,0-2.125Zm-12.761-4.582a1.063,1.063,0,0,1-2.125,0v-2.125a1.063,1.063,0,0,1,2.125,0Zm0-7.437a1.063,1.063,0,0,1-2.125,0v-2.125a1.063,1.063,0,0,1,2.125,0Zm4.249,0a1.063,1.063,0,0,1-2.125,0v-2.125a1.063,1.063,0,0,1,2.125,0Zm0,7.437a1.063,1.063,0,0,1-2.125,0v-2.125a1.063,1.063,0,0,1,2.125,0Zm-4.249,11.686h-2.125v-7.1h6.693v7.1h-2.125v-4.979h-2.443Zm0,0" fill=""/>
  </g>
</svg>
