<svg xmlns="http://www.w3.org/2000/svg" width="31.341" height="31.872" viewBox="0 0 31.341 31.872">
  <g id="组_1555" data-name="组 1555" transform="translate(-1257.992 -5424.401)">
    <path id="路径_552" data-name="路径 552" d="M1276.352,5426.645a1.062,1.062,0,0,0-.268,2.108,12.64,12.64,0,0,1,5.833,2.322,6.262,6.262,0,0,0-5.257,5.811c-.356,3.309,2,5.045,3.558,6.193.547.4,1.374,1.014,1.412,1.3.005.041-.033.179-.218.412-2.027,2.555-2.782,4.676-2.242,6.306a3.164,3.164,0,0,0,1.2,1.589,12.685,12.685,0,0,1-5.915,1.464c-.1,0-.2-.012-.3-.014a4.379,4.379,0,0,0,.113-5.017c-1.8-2.639-4.479-3.457-7.006-2.131-.176.094-.319.056-1.142-.718a4.51,4.51,0,0,0-3.986-1.6,12.95,12.95,0,0,1-.366-1.966,1.063,1.063,0,1,0-2.115.214,14.875,14.875,0,1,0,16.692-16.268Zm-13.478,20.077c.61.024,1.1.439,1.8,1.094.8.751,2,1.881,3.586,1.052,2.1-1.1,3.572.432,4.262,1.444.27.4.959,1.414-.745,3.544a12.676,12.676,0,0,1-8.9-7.134Zm19.567,4.6c-.7-.2-1.123-.5-1.256-.9-.284-.855.423-2.469,1.89-4.315a2.647,2.647,0,0,0,.66-2.015c-.158-1.179-1.177-1.931-2.258-2.727-1.44-1.062-2.931-2.16-2.706-4.256.184-1.7.939-3.929,5.2-4.187a12.718,12.718,0,0,1-1.533,18.4Zm0,0" fill=""/>
    <path id="路径_553" data-name="路径 553" d="M1265.245,5443.248a1.062,1.062,0,0,0,1.43,0c4.88-4.437,7.253-8,7.253-10.879a7.968,7.968,0,1,0-15.936,0c0,2.883,2.372,6.442,7.253,10.879Zm.715-16.722a5.85,5.85,0,0,1,5.843,5.843c0,1.457-1.037,4.121-5.843,8.646-4.806-4.525-5.843-7.189-5.843-8.646a5.849,5.849,0,0,1,5.843-5.843Zm0,0" fill=""/>
    <path id="路径_554" data-name="路径 554" d="M1263.3,5432.369a2.656,2.656,0,1,0,2.656-2.656,2.656,2.656,0,0,0-2.656,2.656Zm0,0" fill=""/>
  </g>
</svg>
