<svg xmlns="http://www.w3.org/2000/svg" width="30.179" height="31.981" viewBox="0 0 30.179 31.981">
  <g id="组_1603" data-name="组 1603" transform="translate(-2050.233 -5565.459)">
    <path id="路径_679" data-name="路径 679" d="M2080.1,5584.224a1.065,1.065,0,0,0-1.508,0l-6.708,6.709-3.166-3.166a1.066,1.066,0,0,0-1.507,1.507l3.919,3.92a1.067,1.067,0,0,0,1.508,0l7.462-7.462a1.067,1.067,0,0,0,0-1.508Zm-6.414-8.1a1.066,1.066,0,0,0-1.066-1.066h-17.057a1.066,1.066,0,0,0,0,2.132h17.057a1.066,1.066,0,0,0,1.066-1.066Zm-18.123,6.4a1.066,1.066,0,0,0,0,2.132h9.594a1.066,1.066,0,0,0,0-2.132Zm0,0" fill=""/>
    <path id="路径_680" data-name="路径 680" d="M2072.723,5595.308h-19.191a1.2,1.2,0,0,1-1.167-1.231v-25.256a1.2,1.2,0,0,1,1.167-1.23h21.118a1.2,1.2,0,0,1,1.168,1.23V5580.5a1.066,1.066,0,0,0,2.132,0v-11.677a3.331,3.331,0,0,0-3.3-3.362h-21.118a3.331,3.331,0,0,0-3.3,3.362v25.256a3.332,3.332,0,0,0,3.3,3.363h19.191a1.066,1.066,0,1,0,0-2.132Zm0,0" fill=""/>
  </g>
</svg>
