<svg xmlns="http://www.w3.org/2000/svg" width="24.519" height="31.981" viewBox="0 0 24.519 31.981">
  <g id="组_1594" data-name="组 1594" transform="translate(-1947.65 -5565.459)">
    <path id="路径_659" data-name="路径 659" d="M1957.777,5592.11a2.133,2.133,0,1,0,2.132-2.132,2.133,2.133,0,0,0-2.132,2.132Zm0,0" fill=""/>
    <path id="路径_660" data-name="路径 660" d="M1969.184,5565.459h-18.549a3.183,3.183,0,0,0-2.985,3.362v25.256a3.184,3.184,0,0,0,2.985,3.363h18.549a3.184,3.184,0,0,0,2.985-3.363v-25.256a3.183,3.183,0,0,0-2.985-3.362Zm-18.549,2.132h18.549c.424,0,.853.513.853,1.23v.9h-20.255v-.9c0-.717.429-1.23.853-1.23Zm18.549,27.717h-18.549c-.424,0-.853-.513-.853-1.231v-22.222h20.255v22.222c0,.718-.429,1.231-.853,1.231Zm0,0" fill=""/>
    <path id="路径_661" data-name="路径 661" d="M1966.306,5583.048h-12.793a1.066,1.066,0,0,0,0,2.132h12.793a1.066,1.066,0,0,0,0-2.132Zm-12.793-4.264h8.548a1.066,1.066,0,0,0,0-2.132h-8.548a1.066,1.066,0,0,0,0,2.132Zm0,0" fill=""/>
  </g>
</svg>
