<svg xmlns="http://www.w3.org/2000/svg" width="31.981" height="31.981" viewBox="0 0 31.981 31.981">
  <g id="组_1592" data-name="组 1592" transform="translate(-1258.733 -5565.459)">
    <path id="路径_655" data-name="路径 655" d="M1274.723,5597.44a15.99,15.99,0,1,1,15.991-15.991,15.991,15.991,0,0,1-15.991,15.991Zm0-2.132a13.859,13.859,0,1,0-13.858-13.859,13.859,13.859,0,0,0,13.858,13.859Zm0,0" fill=""/>
    <path id="路径_656" data-name="路径 656" d="M1280.586,5580.383a1.066,1.066,0,0,1,0,2.132h-13.858a1.066,1.066,0,0,1,0-2.132Zm0,0" fill=""/>
    <path id="路径_657" data-name="路径 657" d="M1281.222,5581.449l-5.043-5.689a1.066,1.066,0,1,1,1.6-1.414l5.67,6.4a1.064,1.064,0,0,1,0,1.414l-5.671,6.4a1.066,1.066,0,1,1-1.595-1.413Zm0,0" fill=""/>
  </g>
</svg>
