<svg xmlns="http://www.w3.org/2000/svg" width="29.758" height="24.435" viewBox="0 0 29.758 24.435">
  <g id="组_1552" data-name="组 1552" transform="translate(-1895.168 -5851.147)">
    <path id="路径_545" data-name="路径 545" d="M1924.921,5865.471v-7.386c0-.01.005-.017.005-.026s-.005-.017-.005-.025v-5.824a1.063,1.063,0,0,0-1.063-1.063h-27.622a1.063,1.063,0,0,0-1.063,1.063v5.824c0,.009-.005.017-.005.025s.005.016.005.026v7.386c0,.009-.005.016-.005.025s.005.016.005.025v9a1.062,1.062,0,0,0,1.063,1.062h27.622a1.062,1.062,0,0,0,1.063-1.062v-9c0-.009.005-.017.005-.025s-.005-.017-.005-.025Zm-18.592-1.037v-5.312h6.905v5.312Zm6.905,2.124v6.9h-6.905v-6.9Zm-15.936-7.436h6.906v5.312H1897.3Zm18.061,0h7.437v5.312h-7.437Zm7.437-5.85V5857h-25.5v-3.725Zm-25.5,13.286h6.906v6.9H1897.3Zm18.061,6.9v-6.9h7.437v6.9Zm0,0" fill=""/>
  </g>
</svg>
