<svg xmlns="http://www.w3.org/2000/svg" width="29.892" height="24.287" viewBox="0 0 29.892 24.287">
  <g id="组_1578" data-name="组 1578" transform="translate(-1785.548 -5280.699)">
    <path id="路径_615" data-name="路径 615" d="M1815.43,5298.064l-2.307-15.281a2.318,2.318,0,0,0-2.32-2.084h-20.617a2.333,2.333,0,0,0-2.328,2.146l-2.3,14.883-.011.162.113,5.261.03.111a2.333,2.333,0,0,0,2.253,1.724h25.117a2.335,2.335,0,0,0,2.243-1.685l.035-.119.1-4.96Zm-25.719-15a.492.492,0,0,1,.474-.5H1810.8a.469.469,0,0,1,.466.431l2.065,13.683H1787.61Zm23.767,19.8a.47.47,0,0,1-.416.253h-25.117a.469.469,0,0,1-.422-.266l-.093-4.305h26.136Zm0,0" fill=""/>
    <path id="路径_616" data-name="路径 616" d="M1808.43,5302.179h2.8a.935.935,0,0,0,0-1.867h-2.8a.935.935,0,0,0,0,1.867Zm-3.734,0h.466a.935.935,0,0,0,0-1.867h-.466a.935.935,0,0,0,0,1.867Zm-3.734,0h.466a.935.935,0,0,0,0-1.867h-.466a.935.935,0,0,0,0,1.867Zm0,0" fill=""/>
  </g>
</svg>
