<svg xmlns="http://www.w3.org/2000/svg" width="27.622" height="29.747" viewBox="0 0 27.622 29.747">
  <g id="组_1573" data-name="组 1573" transform="translate(-2103.595 -5277.951)">
    <path id="路径_606" data-name="路径 606" d="M2124.312,5282.2h-18.061a2.659,2.659,0,0,0-2.656,2.656v20.186a2.659,2.659,0,0,0,2.656,2.656h18.061a2.659,2.659,0,0,0,2.656-2.656v-20.186a2.659,2.659,0,0,0-2.656-2.656Zm.531,22.842a.533.533,0,0,1-.531.531h-18.061a.531.531,0,0,1-.531-.531v-20.186a.531.531,0,0,1,.531-.531h18.061a.531.531,0,0,1,.531.531Zm0,0" fill=""/>
    <path id="路径_607" data-name="路径 607" d="M2128.561,5277.951H2110.5a1.062,1.062,0,0,0,0,2.124h18.061a.531.531,0,0,1,.531.532v20.185a1.063,1.063,0,1,0,2.125,0v-20.185a2.659,2.659,0,0,0-2.656-2.656Zm0,0" fill=""/>
    <path id="路径_608" data-name="路径 608" d="M2120.593,5287.778h-10.624a1.063,1.063,0,0,0,0,2.125h10.624a1.063,1.063,0,1,0,0-2.125Zm0,5.312h-10.624a1.063,1.063,0,0,0,0,2.125h10.624a1.063,1.063,0,1,0,0-2.125Zm-4.249,5.267h-6.375a1.063,1.063,0,0,0,0,2.125h6.375a1.063,1.063,0,0,0,0-2.125Zm0,0" fill=""/>
  </g>
</svg>
