<svg xmlns="http://www.w3.org/2000/svg" width="28.405" height="29.322" viewBox="0 0 28.405 29.322">
  <g id="组_1636" data-name="组 1636" transform="translate(-1786.57 -5708.151)">
    <path id="路径_763" data-name="路径 763" d="M1804.03,5724.6c-.4-.637-.555-2.031.974-5.064a1.015,1.015,0,0,0-.256-1.233c-.014-.012-.031-.016-.045-.027.038,0,.075.011.113.011a5.1,5.1,0,1,0-1.108-.13.925.925,0,0,0-.219.112l-6.937,5.206a1.014,1.014,0,1,0,1.216,1.621l4.145-3.111a4.77,4.77,0,0,0,.4,3.691c.294.47.607.892.906,1.294.942,1.264,1.381,1.925,1.073,3.145-.23.911-1.088,2.561-3.875,5.237a1.014,1.014,0,1,0,1.405,1.463c2.551-2.45,4-4.479,4.437-6.2.556-2.207-.444-3.551-1.413-4.851-.269-.362-.552-.739-.816-1.16Zm-2.255-11.381a3.041,3.041,0,1,1,3.041,3.041,3.045,3.045,0,0,1-3.041-3.041Zm0,0" fill=""/>
    <path id="路径_764" data-name="路径 764" d="M1793.666,5722.5a7.75,7.75,0,0,1,2.286-5.519,1.014,1.014,0,0,0-1.434-1.434,9.836,9.836,0,0,0,0,13.906,1.014,1.014,0,1,0,1.434-1.433,7.754,7.754,0,0,1-2.286-5.52Zm0,0" fill=""/>
    <path id="路径_765" data-name="路径 765" d="M1788.6,5722.6a13.594,13.594,0,0,1,4.008-9.676,1.014,1.014,0,1,0-1.434-1.433,15.711,15.711,0,0,0,0,22.219,1.014,1.014,0,1,0,1.434-1.433,13.594,13.594,0,0,1-4.008-9.677Zm23.663,6.88a9.512,9.512,0,0,0-4.834-5.015,1.014,1.014,0,1,0-.85,1.841,7.439,7.439,0,0,1,3.824,3.982,34.523,34.523,0,0,1,2.052,6.389,1.014,1.014,0,0,0,1.981-.432,36.577,36.577,0,0,0-2.173-6.765Zm1.544-7.23a6.333,6.333,0,0,1-3.662-.3,4.508,4.508,0,0,1-2.4-2.112,1.014,1.014,0,0,0-1.79.954,6.545,6.545,0,0,0,3.436,3.037,8.067,8.067,0,0,0,3.04.584,9.272,9.272,0,0,0,1.766-.175,1.014,1.014,0,0,0-.386-1.989Zm0,0" fill=""/>
  </g>
</svg>
