<svg xmlns="http://www.w3.org/2000/svg" width="22.959" height="21.216" viewBox="0 0 22.959 21.216">
  <g id="组_1587" data-name="组 1587" transform="translate(-1104.88 -5500.207)">
    <path id="路径_642" data-name="路径 642" d="M1115.745,5512.58a1.062,1.062,0,0,0,1.508,0l10.273-10.273a1.066,1.066,0,0,0-1.508-1.507l-9.518,9.519-9.8-9.8a1.066,1.066,0,0,0-1.508,1.507Zm0,0" fill=""/>
    <path id="路径_643" data-name="路径 643" d="M1126.018,5509.329l-9.518,9.519-9.8-9.8a1.066,1.066,0,0,0-1.508,1.507l10.553,10.553a1.062,1.062,0,0,0,1.508,0l10.273-10.272a1.067,1.067,0,0,0-1.509-1.508Zm0,0" fill=""/>
  </g>
</svg>
