<svg xmlns="http://www.w3.org/2000/svg" width="28.383" height="28.383" viewBox="0 0 28.383 28.383">
  <g id="组_1615" data-name="组 1615" transform="translate(-1365.945 -5637.681)">
    <path id="路径_713" data-name="路径 713" d="M1366.959,5637.681h26.355a1.013,1.013,0,0,1,1.014,1.013v26.356a1.014,1.014,0,0,1-1.014,1.014h-26.355a1.014,1.014,0,0,1-1.014-1.014v-26.356a1.014,1.014,0,0,1,1.014-1.013Zm20.547,7.73-9.832,10.495-4.995-4.2a1.014,1.014,0,1,0-1.3,1.552l5.731,4.815a1.013,1.013,0,0,0,1.391-.083l10.489-11.2a1.014,1.014,0,0,0-1.48-1.386Zm0,0" fill=""/>
  </g>
</svg>
