<svg xmlns="http://www.w3.org/2000/svg" width="28.513" height="30.772" viewBox="0 0 28.513 30.772">
  <g id="组_1665" data-name="组 1665" transform="translate(-1365.41 -5847.979)">
    <path id="路径_837" data-name="路径 837" d="M1380.03,5878.751a3.676,3.676,0,0,1-2.51-1.057l-7.428-7-.4-.218a.921.921,0,0,0-.192-.019,4.039,4.039,0,0,1-4.089-4.075v-6.137a4.039,4.039,0,0,1,4.089-4.075,1.151,1.151,0,0,0,.185-.016l.378-.2,7.45-7.021a3.811,3.811,0,0,1,2.48-.959,3.273,3.273,0,0,1,2.333.955,3.733,3.733,0,0,1,1.033,2.721v23.526a3.652,3.652,0,0,1-1.018,2.612A3.254,3.254,0,0,1,1380.03,5878.751ZM1369.5,5858.19a1.993,1.993,0,0,0-2.064,2.059v6.137a1.993,1.993,0,0,0,2.064,2.06h1.019l8.252,7.7a1.588,1.588,0,0,0,1.129.5,1.506,1.506,0,0,0,1.442-1.659v-23.32A1.519,1.519,0,0,0,1379.9,5850a1.617,1.617,0,0,0-1.144.507l-8.342,7.725Zm23.413,14.446a1.012,1.012,0,0,1-1.011-1.008v-16.619a1.011,1.011,0,0,1,2.022,0v16.619A1.012,1.012,0,0,1,1392.912,5872.636Zm-5.186-4.216a1.012,1.012,0,0,1-1.011-1.008v-8.184a1.012,1.012,0,0,1,1.011-1.008.967.967,0,0,1,.707.287,1.034,1.034,0,0,1,.3.719v8.186A1.011,1.011,0,0,1,1387.726,5868.42Z" fill=""/>
  </g>
</svg>
