<svg xmlns="http://www.w3.org/2000/svg" width="31.537" height="29.288" viewBox="0 0 31.537 29.288">
  <g id="组_1664" data-name="组 1664" transform="translate(-1470.214 -5848.721)">
    <path id="路径_829" data-name="路径 829" d="M1483.8,5849.855l-10.1-1.123-.12-.006a3.365,3.365,0,0,0-3.361,3.363v21.43a3.384,3.384,0,0,0,3.292,3.362l10.218,1.128a3.369,3.369,0,0,0,3.362-3.368v-21.425A3.383,3.383,0,0,0,1483.8,5849.855Zm-11.369,2.234a1.149,1.149,0,0,1,1.094-1.149l10.085,1.122.119,0a1.15,1.15,0,0,1,1.148,1.149v21.425a1.146,1.146,0,0,1-1.095,1.149l-10.082-1.122-.12-.006a1.15,1.15,0,0,1-1.149-1.148Z" fill=""/>
    <path id="路径_830" data-name="路径 830" d="M1498.389,5848.721l-.119,0-8.99,1a1.1,1.1,0,0,0-.75.411,1.087,1.087,0,0,0-.232.809,1.117,1.117,0,0,0,1.093.989l.126-.008,8.921-.988a1.15,1.15,0,0,1,1.094,1.149v21.425a1.149,1.149,0,0,1-1.148,1.148l-.12.006-8.979,1a1.1,1.1,0,0,0-.749.411,1.079,1.079,0,0,0-.231.809,1.11,1.11,0,0,0,1.1.987h.018l.115,0,8.924-1a3.376,3.376,0,0,0,3.29-3.361v-21.432A3.365,3.365,0,0,0,1498.389,5848.721Z" fill=""/>
    <path id="路径_831" data-name="路径 831" d="M1474.983,5857.918h7.335a1.107,1.107,0,0,0,0-2.214h-7.335a1.107,1.107,0,1,0,0,2.214Z" fill=""/>
    <path id="路径_832" data-name="路径 832" d="M1474.971,5864.423h7.341a1.1,1.1,0,0,0,1.1-1.107,1.107,1.107,0,0,0-1.106-1.106h-7.335a1.106,1.106,0,1,0,0,2.213Z" fill=""/>
    <path id="路径_833" data-name="路径 833" d="M1482.318,5868.69h-7.335a1.107,1.107,0,1,0,0,2.214h7.335a1.107,1.107,0,0,0,0-2.214Z" fill=""/>
    <path id="路径_834" data-name="路径 834" d="M1489.641,5857.948h7.336a1.107,1.107,0,1,0,0-2.213h-7.336a1.107,1.107,0,0,0,0,2.213Z" fill=""/>
    <path id="路径_835" data-name="路径 835" d="M1489.641,5864.46h7.336a1.107,1.107,0,0,0,0-2.214h-7.336a1.107,1.107,0,0,0,0,2.214Z" fill=""/>
    <path id="路径_836" data-name="路径 836" d="M1489.641,5870.941h7.336a1.107,1.107,0,1,0,0-2.214h-7.336a1.107,1.107,0,0,0,0,2.214Z" fill=""/>
  </g>
</svg>
