<svg xmlns="http://www.w3.org/2000/svg" width="30.019" height="30.02" viewBox="0 0 30.019 30.02">
  <g id="组_1623" data-name="组 1623" transform="translate(-1786.78 -5636.862)">
    <path id="路径_730" data-name="路径 730" d="M1815.589,5639.86a2.027,2.027,0,0,0-1.8-1.8l-10.986-1.19a2.031,2.031,0,0,0-1.653.582l-13.78,13.781a2.028,2.028,0,0,0,0,2.866l12.186,12.186a2.029,2.029,0,0,0,2.867,0l13.78-13.78a2.027,2.027,0,0,0,.581-1.653Zm-14.6,25-12.185-12.185,13.78-13.78,10.987,1.189,1.2,11Zm0,0" fill=""/>
    <path id="路径_731" data-name="路径 731" d="M1807.823,5641.971a3.547,3.547,0,1,0,3.548,3.548,3.548,3.548,0,0,0-3.548-3.548Zm0,5.068a1.521,1.521,0,1,1,1.522-1.52,1.521,1.521,0,0,1-1.522,1.52Zm0,0" fill=""/>
  </g>
</svg>
