<svg xmlns="http://www.w3.org/2000/svg" width="33.997" height="27.624" viewBox="0 0 33.997 27.624">
  <g id="组_1529" data-name="组 1529" transform="translate(-1362.48 -5279.018)">
    <path id="路径_509" data-name="路径 509" d="M1381.15,5285.051a1.063,1.063,0,0,1-.475,2.072,5.312,5.312,0,0,0-6.144,7.116,1.062,1.062,0,1,1-1.978.774,7.436,7.436,0,0,1,8.6-9.962Zm-3.328,14.5a1.062,1.062,0,0,1,.472-2.072,5.312,5.312,0,0,0,6.249-6.789,1.062,1.062,0,1,1,2.025-.641,7.437,7.437,0,0,1-8.747,9.5Zm0,0" fill=""/>
    <path id="路径_510" data-name="路径 510" d="M1369.566,5297.747a1.063,1.063,0,1,1-1.406,1.594,47.354,47.354,0,0,1-5.467-6.4,1.066,1.066,0,0,1-.033-1.233c4.937-7.352,10.55-11.093,16.818-11.093a15.234,15.234,0,0,1,5.114.879,1.063,1.063,0,0,1-.709,2,13.121,13.121,0,0,0-4.405-.759c-5.3,0-10.167,3.136-14.627,9.53a42.254,42.254,0,0,0,4.716,5.48Zm19.914-10.815a1.063,1.063,0,1,1,1.414-1.588,47.308,47.308,0,0,1,5.369,6.316,1.064,1.064,0,0,1,.033,1.232c-4.937,7.351-10.55,11.093-16.818,11.093a15.207,15.207,0,0,1-3.7-.453,1.062,1.062,0,0,1,.514-2.061,13.091,13.091,0,0,0,3.183.39c5.3,0,10.167-3.137,14.627-9.53a42.2,42.2,0,0,0-4.625-5.4Zm.354-7.551a1.063,1.063,0,1,1,1.6,1.4l-22.31,25.5a1.063,1.063,0,1,1-1.6-1.4Zm0,0" fill=""/>
  </g>
</svg>
