<svg xmlns="http://www.w3.org/2000/svg" width="29.747" height="29.748" viewBox="0 0 29.747 29.748">
  <g id="组_1549" data-name="组 1549" transform="translate(-1680.371 -5350.423)">
    <g id="组_1548" data-name="组 1548">
      <path id="路径_539" data-name="路径 539" d="M1709.056,5367.422h-10.624a1.063,1.063,0,0,0-1.063,1.062v4.25h-9.561v-9.562h4.249a1.062,1.062,0,0,0,1.063-1.062v-10.624a1.063,1.063,0,0,0-1.063-1.063h-10.624a1.063,1.063,0,0,0-1.062,1.063v10.624a1.062,1.062,0,0,0,1.062,1.062h4.25V5373.8a1.063,1.063,0,0,0,1.062,1.063h10.624v4.249a1.063,1.063,0,0,0,1.063,1.063h10.624a1.062,1.062,0,0,0,1.062-1.063v-10.624a1.062,1.062,0,0,0-1.062-1.062Zm-26.56-6.375v-8.5h8.5v8.5Zm25.5,17h-8.5v-8.5h8.5Zm0,0" fill=""/>
    </g>
  </g>
</svg>
