<svg xmlns="http://www.w3.org/2000/svg" width="28.684" height="28.685" viewBox="0 0 28.684 28.685">
  <g id="组_1518" data-name="组 1518" transform="translate(-2103.064 -5204.729)">
    <path id="路径_484" data-name="路径 484" d="M2120.062,5213.228h-13.811a3.191,3.191,0,0,0-3.187,3.187v13.811a3.191,3.191,0,0,0,3.187,3.188h13.811a3.191,3.191,0,0,0,3.187-3.188v-13.811a3.191,3.191,0,0,0-3.187-3.187Zm1.062,17a1.062,1.062,0,0,1-1.062,1.063h-13.811a1.064,1.064,0,0,1-1.063-1.063v-13.811a1.065,1.065,0,0,1,1.063-1.062h13.811a1.063,1.063,0,0,1,1.062,1.062Zm0,0" fill=""/>
    <path id="路径_485" data-name="路径 485" d="M2124.312,5208.978H2110.5a1.063,1.063,0,0,0,0,2.125h13.812a1.064,1.064,0,0,1,1.062,1.063v13.811a1.063,1.063,0,0,0,2.125,0v-13.811a3.191,3.191,0,0,0-3.187-3.188Zm-6.375,18.061h-9.561a1.063,1.063,0,1,0,0,2.125h9.561a1.063,1.063,0,1,0,0-2.125Zm0,0" fill=""/>
    <path id="路径_486" data-name="路径 486" d="M2128.561,5204.729H2114.75a1.063,1.063,0,0,0,0,2.125h13.811a1.064,1.064,0,0,1,1.063,1.062v13.811a1.062,1.062,0,1,0,2.124,0v-13.811a3.19,3.19,0,0,0-3.187-3.187Zm0,0" fill=""/>
  </g>
</svg>
