<svg xmlns="http://www.w3.org/2000/svg" width="30.916" height="30.915" viewBox="0 0 30.916 30.915">
  <g id="组_1589" data-name="组 1589" transform="translate(-1153.852 -5565.992)">
    <path id="路径_648" data-name="路径 648" d="M1168.339,5568.124l-.575,3.021-.688.15a10.359,10.359,0,0,0-3.324,1.369l-.622.4-2.442-1.834-1.487,1.487,1.729,2.546-.379.591a10.336,10.336,0,0,0-1.385,3.318l-.16.72-3.022.429v2.1l3.021.577.15.688a10.335,10.335,0,0,0,1.369,3.323l.395.623-1.834,2.441,1.487,1.487,2.546-1.729.592.38a10.34,10.34,0,0,0,3.317,1.385l.72.16.429,3.022h2.1l.577-3.022.688-.15a10.324,10.324,0,0,0,3.324-1.369l.622-.394,2.441,1.834,1.487-1.487-1.729-2.546.38-.592a10.317,10.317,0,0,0,1.385-3.317l.16-.72,3.022-.429v-2.1l-3.021-.576-.151-.688a10.293,10.293,0,0,0-1.369-3.324l-.394-.623,1.834-2.441-1.487-1.487-2.546,1.729-.592-.379a10.319,10.319,0,0,0-3.317-1.385l-.72-.16-.429-3.022h-2.1Zm-2.409,1.261.647-3.393h5.716l.487,3.419a12.465,12.465,0,0,1,2.67,1.118l2.858-1.942,4.042,4.042-2.074,2.761a12.336,12.336,0,0,1,1.1,2.679l3.394.647v5.716l-3.419.487a12.456,12.456,0,0,1-1.118,2.669l1.942,2.859-4.042,4.042-2.761-2.074a12.442,12.442,0,0,1-2.679,1.1l-.647,3.394h-5.716l-.487-3.419a12.454,12.454,0,0,1-2.67-1.118l-2.859,1.942-4.042-4.042,2.074-2.761a12.486,12.486,0,0,1-1.1-2.679l-3.394-.647v-5.717l3.419-.487a12.47,12.47,0,0,1,1.118-2.669l-1.942-2.858,4.042-4.042,2.761,2.074a12.456,12.456,0,0,1,2.679-1.1Zm0,0" fill=""/>
    <path id="路径_649" data-name="路径 649" d="M1169.309,5587.846a6.4,6.4,0,1,1,6.4-6.4,6.4,6.4,0,0,1-6.4,6.4Zm0-2.133a4.264,4.264,0,1,0-4.264-4.264,4.265,4.265,0,0,0,4.264,4.264Zm0,0" fill=""/>
  </g>
</svg>
