<svg xmlns="http://www.w3.org/2000/svg" width="30.41" height="24.459" viewBox="0 0 30.41 24.459">
  <g id="组_1626" data-name="组 1626" transform="translate(-1201.194 -5710.582)">
    <path id="路径_737" data-name="路径 737" d="M1230.59,5710.582h-28.383a1.013,1.013,0,0,0-1.013,1.014v18.246a1.013,1.013,0,0,0,1.013,1.014h8.42a1.014,1.014,0,1,0,0-2.028h-7.406v-16.219h26.356v16.219h-2.161a1.014,1.014,0,0,0,0,2.028h3.174a1.014,1.014,0,0,0,1.014-1.014V5711.6a1.014,1.014,0,0,0-1.014-1.014Zm0,0" fill=""/>
    <path id="路径_738" data-name="路径 738" d="M1219.209,5726.3a1.014,1.014,0,0,0-1.407-.051l-1.958,1.755-.4-7.6,7.52.9-1.531,1.428a1.013,1.013,0,1,0,1.381,1.483l3.13-2.918a1.014,1.014,0,0,0-.571-1.749l-10.885-1.3a1.014,1.014,0,0,0-1.131,1.06l.571,10.915a1.013,1.013,0,0,0,1.689.7l2.808-2.516,6.1,6.325a1.013,1.013,0,0,0,1.458-1.407Zm0,0" fill=""/>
  </g>
</svg>
