<svg xmlns="http://www.w3.org/2000/svg" width="29.171" height="26" viewBox="0 0 29.171 26">
  <g id="组_1660" data-name="组 1660" transform="translate(-1309.765 -5850.365)">
    <path id="路径_819" data-name="路径 819" d="M1336.261,5866.6l-10.916-10.988a1.21,1.21,0,0,0-.873-.357c-.043,0-.079-.024-.122-.024a1.436,1.436,0,0,0-.917.38l-9.851,9.833a1.216,1.216,0,1,0,1.719,1.721l7.834-7.821v15.809a1.216,1.216,0,1,0,2.431,0V5859.28l8.971,9.03a1.215,1.215,0,0,0,1.724-1.714Zm1.46-13.8H1310.98a1.215,1.215,0,0,1,0-2.431h26.741a1.215,1.215,0,0,1,0,2.431Zm0,0" fill=""/>
  </g>
</svg>
