<svg xmlns="http://www.w3.org/2000/svg" width="29.748" height="29.747" viewBox="0 0 29.748 29.747">
  <g id="组_1576" data-name="组 1576" transform="translate(-1206.748 -5204.203)">
    <g id="组_1575" data-name="组 1575">
      <path id="路径_611" data-name="路径 611" d="M1221.622,5204.2a14.874,14.874,0,1,0,14.874,14.873,14.89,14.89,0,0,0-14.874-14.873Zm0,27.622a12.749,12.749,0,1,1,12.749-12.749,12.763,12.763,0,0,1-12.749,12.749Zm0,0" fill=""/>
      <path id="路径_612" data-name="路径 612" d="M1230.965,5216.951h.219a1.062,1.062,0,0,0,0-2.124h-1.543l-.736-2.494a2.874,2.874,0,0,0-2.606-1.756h-9.584a2.883,2.883,0,0,0-2.629,1.824l-.715,2.426h-1.311a1.062,1.062,0,0,0,0,2.124h.218a2.127,2.127,0,0,0-1.28,1.948v6.374h1.151v.443a1.062,1.062,0,1,0,2.124,0v-.443h14.874v.443a1.063,1.063,0,1,0,2.125,0v-.443h.974V5218.9a2.124,2.124,0,0,0-1.281-1.948Zm-17.842,6.2V5218.9h17v4.249Zm3.592-10.446h9.584a.868.868,0,0,1,.59.3l1.113,3.773h-12.991l.128-.435a1.009,1.009,0,0,0,.057-.19l.907-3.081a.776.776,0,0,1,.612-.367Zm0,0" fill=""/>
      <path id="路径_613" data-name="路径 613" d="M1223.747,5220.36h-4.25a1.062,1.062,0,0,0,0,2.124h4.25a1.062,1.062,0,0,0,0-2.124Zm0,0" fill=""/>
    </g>
  </g>
</svg>
