<svg xmlns="http://www.w3.org/2000/svg" width="27.622" height="31.872" viewBox="0 0 27.622 31.872">
  <g id="组_1559" data-name="组 1559" transform="translate(-1997.166 -5424.381)">
    <path id="路径_571" data-name="路径 571" d="M2021.6,5424.381h-21.248a3.191,3.191,0,0,0-3.187,3.187v25.5a3.191,3.191,0,0,0,3.187,3.188H2021.6a3.191,3.191,0,0,0,3.187-3.188v-25.5a3.191,3.191,0,0,0-3.187-3.187Zm-17,2.124h12.749v3.188H2004.6Zm18.061,26.56a1.062,1.062,0,0,1-1.062,1.063h-21.248a1.064,1.064,0,0,1-1.063-1.063v-25.5a1.065,1.065,0,0,1,1.063-1.063h2.125v3.188a2.126,2.126,0,0,0,2.124,2.124h12.749a2.126,2.126,0,0,0,2.125-2.124V5426.5h2.125a1.064,1.064,0,0,1,1.062,1.063Zm0,0" fill=""/>
    <path id="路径_572" data-name="路径 572" d="M2017.852,5435.5l-8.28,8.279-3.992-3.993a1.062,1.062,0,0,0-1.5,1.5l4.743,4.745a1.063,1.063,0,0,0,1.5,0l9.031-9.031a1.062,1.062,0,0,0-1.5-1.5Zm0,0" fill=""/>
  </g>
</svg>
