<svg xmlns="http://www.w3.org/2000/svg" width="27.717" height="31.981" viewBox="0 0 27.717 31.981">
  <g id="组_1597" data-name="组 1597" transform="translate(-1682.518 -5565.459)">
    <path id="路径_666" data-name="路径 666" d="M1707.037,5565.459h-21.321a3.2,3.2,0,0,0-3.2,3.2v25.585a3.2,3.2,0,0,0,3.2,3.2h21.321a3.2,3.2,0,0,0,3.2-3.2v-25.585a3.2,3.2,0,0,0-3.2-3.2Zm-17.057,2.132h12.792v3.2H1689.98Zm18.122,26.651a1.066,1.066,0,0,1-1.065,1.066h-21.321a1.068,1.068,0,0,1-1.066-1.066v-25.585a1.068,1.068,0,0,1,1.066-1.066h2.132v3.2a2.134,2.134,0,0,0,2.132,2.132h12.792a2.135,2.135,0,0,0,2.133-2.132v-3.2h2.132a1.067,1.067,0,0,1,1.065,1.066Zm0,0" fill=""/>
    <path id="路径_667" data-name="路径 667" d="M1703.274,5576.62l-8.307,8.308-4.006-4.008a1.066,1.066,0,0,0-1.507,1.508l4.759,4.761a1.067,1.067,0,0,0,1.508,0l9.061-9.062a1.066,1.066,0,0,0-1.508-1.507Zm0,0" fill=""/>
  </g>
</svg>
