<svg xmlns="http://www.w3.org/2000/svg" width="29.747" height="30.88" viewBox="0 0 29.747 30.88">
  <g id="组_1574" data-name="组 1574" transform="translate(-1100.796 -5424.877)">
    <path id="路径_609" data-name="路径 609" d="M1130.543,5431.251l-14.874-6.374-14.873,6.374v18.174l14.873,6.332,1.285-.548h.272v-.115l13.317-5.668Zm-14.874,5.426-3.769-1.6,10.589-4.887c.024-.012.04-.033.064-.047l4.224,1.81Zm4.273-7.657-10.68,4.93-4.7-2,11.107-4.759Zm-17.022,4.539,4.25,1.809v6.6a1.063,1.063,0,0,0,2.125,0v-5.7h0l5.8,2.471v14.462l-12.181-5.186Zm14.306,19.226v-14.461l11.192-4.765v14.462Zm0,0" fill=""/>
  </g>
</svg>
