<svg xmlns="http://www.w3.org/2000/svg" width="28.685" height="23.373" viewBox="0 0 28.685 23.373">
  <g id="组_1537" data-name="组 1537" transform="translate(-1312.51 -5353.607)">
    <path id="路径_521" data-name="路径 521" d="M1340.132,5376.98h-26.56a1.063,1.063,0,0,1-1.062-1.062V5354.67a1.063,1.063,0,1,1,2.125,0v20.185h25.5a1.063,1.063,0,1,1,0,2.125Zm0,0" fill=""/>
    <path id="路径_522" data-name="路径 522" d="M1318.586,5368.481a1.062,1.062,0,0,1-.7-1.866l6.673-5.784a1.061,1.061,0,0,1,1.4.009l5.715,5.094,7.606-8.177a1.063,1.063,0,0,1,1.556,1.448l-8.314,8.938a1.059,1.059,0,0,1-1.484.069l-5.8-5.163-5.967,5.174a1.062,1.062,0,0,1-.695.258Zm0,0" fill=""/>
  </g>
</svg>
