<svg xmlns="http://www.w3.org/2000/svg" width="31.872" height="31.872" viewBox="0 0 31.872 31.872">
  <g id="组_1531" data-name="组 1531" transform="translate(-2001.896 -5845.806)">
    <path id="路径_514" data-name="路径 514" d="M2017.832,5877.678a15.936,15.936,0,1,1,15.936-15.936,15.936,15.936,0,0,1-15.936,15.936Zm0-2.125a13.811,13.811,0,1,0-13.811-13.811,13.811,13.811,0,0,0,13.811,13.811Zm0,0" fill=""/>
    <path id="路径_515" data-name="路径 515" d="M2016.591,5855.924a.95.95,0,0,0-1.51.769v10.1a.951.951,0,0,0,1.51.768l6.943-5.049a.951.951,0,0,0,0-1.539Zm0,0" fill=""/>
  </g>
</svg>
