<svg xmlns="http://www.w3.org/2000/svg" width="29.748" height="28.685" viewBox="0 0 29.748 28.685">
  <g id="组_1527" data-name="组 1527" transform="translate(-1890.868 -5278.495)">
    <path id="路径_505" data-name="路径 505" d="M1894.271,5291.267l7.06,4.274a1.063,1.063,0,1,1-1.1,1.817l-8.849-5.356a1.063,1.063,0,0,1,.141-1.89l27.623-11.535a1.062,1.062,0,0,1,1.452,1.179l-4.839,25.5a1.064,1.064,0,0,1-1.613.7l-8.971-5.688a1.063,1.063,0,1,1,1.137-1.8l7.651,4.851,4.179-22.02Zm0,0" fill=""/>
    <path id="路径_506" data-name="路径 506" d="M1902.555,5297.356v8.761a1.062,1.062,0,1,1-2.124,0v-9.25a1.057,1.057,0,0,1,.372-.807L1913.717,5285a1.063,1.063,0,0,1,1.381,1.615l-12.543,10.738Zm0,0" fill=""/>
  </g>
</svg>
