<svg xmlns="http://www.w3.org/2000/svg" width="29.747" height="29.748" viewBox="0 0 29.747 29.748">
  <g id="组_1542" data-name="组 1542" transform="translate(-1732.996 -5350.423)">
    <path id="路径_532" data-name="路径 532" d="M1761.376,5362.371a1.064,1.064,0,0,0-1.5-.013,14.637,14.637,0,0,1-2.234,1.845,3.152,3.152,0,0,0-1.271-.835v-7.633a1.062,1.062,0,0,0-2.124,0v7.633a3.175,3.175,0,0,0-1.669,1.372,4.949,4.949,0,0,1-.453-.26,21.335,21.335,0,0,1-2.457-2.053q-.249-.237-.494-.478l-.471-.461c-.38-.37-.654-.627-.931-.865a7.023,7.023,0,0,0-2.1-1.3,3.184,3.184,0,0,0-6.3.61,10.086,10.086,0,0,0-2.952,2.509,1.063,1.063,0,0,0,1.645,1.345,8.245,8.245,0,0,1,2.018-1.813,3.184,3.184,0,0,0,1.409,1v7.632a1.063,1.063,0,0,0,2.125,0v-7.632a3.177,3.177,0,0,0,1.717-1.462,5.517,5.517,0,0,1,1.045.717c.237.2.483.435.835.778l.467.458c.2.194.355.346.514.5a23.4,23.4,0,0,0,2.692,2.247,7.023,7.023,0,0,0,1.287.727,3.184,3.184,0,0,0,6.316-.58c0-.063-.015-.123-.019-.186a15.931,15.931,0,0,0,2.889-2.3,1.063,1.063,0,0,0,.013-1.5Zm0,0" fill=""/>
    <path id="路径_533" data-name="路径 533" d="M1762.743,5357.137v-3.526a3.188,3.188,0,0,0-3.187-3.188h-23.373a3.188,3.188,0,0,0-3.187,3.188v19.123a3.187,3.187,0,0,0,3.187,3.187h10.624v2.125h-7.437a1.063,1.063,0,0,0,0,2.125h17a1.063,1.063,0,1,0,0-2.125h-7.436v-2.125h10.624a3.187,3.187,0,0,0,3.187-3.187v-2.889a1.063,1.063,0,0,0-2.125,0v2.889a1.062,1.062,0,0,1-1.062,1.062h-23.373a1.062,1.062,0,0,1-1.063-1.062v-19.123a1.063,1.063,0,0,1,1.063-1.063h23.373a1.063,1.063,0,0,1,1.062,1.063v3.526a1.063,1.063,0,0,0,2.125,0Zm0,0" fill=""/>
  </g>
</svg>
