<svg xmlns="http://www.w3.org/2000/svg" width="28.628" height="30.651" viewBox="0 0 28.628 30.651">
  <g id="组_1646" data-name="组 1646" transform="translate(-2208.803 -5706.039)">
    <path id="路径_785" data-name="路径 785" d="M2231.9,5714.628l-7.443,7.443-4.772-4.771a.922.922,0,0,0-1.336,0l-5.344,5.535a.945.945,0,0,0,1.336,1.336l4.772-4.772,4.771,4.772a.924.924,0,0,0,1.336,0l8.016-8.016a.922.922,0,0,0,0-1.336.943.943,0,0,0-1.336-.191Zm0,0" fill=""/>
    <path id="路径_786" data-name="路径 786" d="M2235.522,5709.857h-11.451v-2.863a.954.954,0,1,0-1.909,0v2.863h-11.451a2.052,2.052,0,0,0-1.908,1.908v15.268a1.912,1.912,0,0,0,1.908,1.909h11.451v2.29l-6.107,3.626c-.573.191-.573.764-.382,1.336a1.1,1.1,0,0,0,1.336.382l6.108-3.626,6.107,3.626a.983.983,0,0,0,.954-1.718l-6.107-3.626v-2.29h11.451a1.913,1.913,0,0,0,1.909-1.909v-15.268a2.052,2.052,0,0,0-1.909-1.908Zm0,16.222a.9.9,0,0,1-.954.954h-22.9a.9.9,0,0,1-.955-.954v-13.36a.9.9,0,0,1,.955-.954h22.9a.9.9,0,0,1,.954.954Zm0,0" fill=""/>
  </g>
</svg>
