<svg xmlns="http://www.w3.org/2000/svg" width="30.41" height="30.411" viewBox="0 0 30.41 30.411">
  <g id="组_1612" data-name="组 1612" transform="translate(-1838.052 -5848.159)">
    <path id="路径_703" data-name="路径 703" d="M1842.505,5874.117a15.205,15.205,0,1,1,21.5,0,15.206,15.206,0,0,1-21.5,0Zm1.433-1.434a13.178,13.178,0,1,0,0-18.636,13.179,13.179,0,0,0,0,18.636Zm0,0" fill=""/>
    <path id="路径_704" data-name="路径 704" d="M1846.805,5858.347a1.014,1.014,0,0,1,1.434-1.433l11.468,11.468a1.014,1.014,0,0,1-1.433,1.434Zm0,0" fill=""/>
    <path id="路径_705" data-name="路径 705" d="M1858.274,5856.914a1.013,1.013,0,0,1,1.433,1.433l-11.468,11.469a1.014,1.014,0,0,1-1.434-1.434Zm0,0" fill=""/>
  </g>
</svg>
