<svg xmlns="http://www.w3.org/2000/svg" width="29.849" height="30.756" viewBox="0 0 29.849 30.756">
  <g id="组_1607" data-name="组 1607" transform="translate(-2102.482 -5495.446)">
    <path id="路径_690" data-name="路径 690" d="M2129.132,5495.446H2105.68a3.2,3.2,0,0,0-3.2,3.2V5518.9a3.2,3.2,0,0,0,3.2,3.2h2.063v4.1l7.392-4.1h14a3.2,3.2,0,0,0,3.2-3.2v-20.255a3.2,3.2,0,0,0-3.2-3.2Zm1.067,23.453a1.067,1.067,0,0,1-1.067,1.066h-14a2.144,2.144,0,0,0-1.035.268l-4.226,2.346v-.482a2.135,2.135,0,0,0-2.133-2.132h-2.061a1.067,1.067,0,0,1-1.066-1.066v-20.255a1.068,1.068,0,0,1,1.066-1.066h23.452a1.068,1.068,0,0,1,1.067,1.066Zm0,0" fill=""/>
    <path id="路径_691" data-name="路径 691" d="M2121.67,5510.637h-12.792a1.066,1.066,0,0,0,0,2.132h12.792a1.066,1.066,0,1,0,0-2.132Zm4.264-7.462h-17.056a1.066,1.066,0,0,0,0,2.132h17.056a1.066,1.066,0,0,0,0-2.132Zm0,0" fill=""/>
  </g>
</svg>
