<svg xmlns="http://www.w3.org/2000/svg" width="26.356" height="30.41" viewBox="0 0 26.356 30.41">
  <g id="组_1608" data-name="组 1608" transform="translate(-1096.971 -5707.607)">
    <path id="路径_692" data-name="路径 692" d="M1121.815,5713.957l-10.139-5.935a3.034,3.034,0,0,0-3.062,0l-10.132,5.935a3.062,3.062,0,0,0-1.511,2.643v12.6a3.061,3.061,0,0,0,1.544,2.661l10.137,5.763a3.027,3.027,0,0,0,2.993,0l10.137-5.763a3.06,3.06,0,0,0,1.545-2.661v-12.6a3.06,3.06,0,0,0-1.512-2.643Zm-.516,15.24a1.019,1.019,0,0,1-.515.887l-10.136,5.763a1.01,1.01,0,0,1-1,0l-10.137-5.763a1.022,1.022,0,0,1-.515-.887v-12.6a1.019,1.019,0,0,1,.5-.881l10.133-5.935a1.006,1.006,0,0,1,1.02,0l10.141,5.936a1.015,1.015,0,0,1,.5.88Zm0,0" fill=""/>
    <path id="路径_693" data-name="路径 693" d="M1110.149,5716.73a6.082,6.082,0,1,0,6.082,6.082,6.082,6.082,0,0,0-6.082-6.082Zm0,10.136a4.055,4.055,0,1,1,4.055-4.054,4.055,4.055,0,0,1-4.055,4.054Zm0,0" fill=""/>
  </g>
</svg>
