<svg xmlns="http://www.w3.org/2000/svg" width="30.567" height="30.618" viewBox="0 0 30.567 30.618">
  <g id="组_1661" data-name="组 1661" transform="translate(-1417.541 -5848.056)">
    <path id="路径_820" data-name="路径 820" d="M1432.824,5878.673h.6a2.74,2.74,0,0,0,2.181-1.854,2.834,2.834,0,0,0,.327-1.254h-6.214A3.14,3.14,0,0,0,1432.824,5878.673Z" fill=""/>
    <path id="路径_821" data-name="路径 821" d="M1417.548,5858.835a15.344,15.344,0,0,1,5.35-9.747.832.832,0,0,1,1.114.064l.644.644a.834.834,0,0,1-.09,1.243,12.271,12.271,0,0,0-4.392,8,.825.825,0,0,1-.811.728h-.98A.836.836,0,0,1,1417.548,5858.835Z" fill=""/>
    <path id="路径_822" data-name="路径 822" d="M1445.472,5859.038a12.766,12.766,0,0,0-4.272-7.992.833.833,0,0,1-.073-1.23l.658-.659a.832.832,0,0,1,1.12-.059,15.394,15.394,0,0,1,5.2,9.738.836.836,0,0,1-.835.928h-.982A.825.825,0,0,1,1445.472,5859.038Z" fill=""/>
    <path id="路径_823" data-name="路径 823" d="M1442.459,5860.644a9.55,9.55,0,0,0-7.408-9.325v-1.036a2.228,2.228,0,0,0-4.455,0v1.037a9.5,9.5,0,0,0-7.408,9.323v8.133l-2.952,2.953v1.451h25.176v-1.451l-2.953-2.953Zm-18.048,10.205,1.107-1.108v-9.1a7.18,7.18,0,0,1,5.623-7.057l1.688-.406,1.675.4a7.183,7.183,0,0,1,5.623,7.059v9.1l1.108,1.107Z" fill=""/>
  </g>
</svg>
