<svg xmlns="http://www.w3.org/2000/svg" width="31.98" height="29.316" viewBox="0 0 31.98 29.316">
  <g id="组_1604" data-name="组 1604" transform="translate(-2152.876 -5496.166)">
    <path id="路径_685" data-name="路径 685" d="M2184.737,5520.859l.05-.019-3.381-8.906a2.142,2.142,0,0,0-1.993-1.376h-.686v-13.326a1.066,1.066,0,0,0-2.132,0v13.326h-6.663v-13.326a1.066,1.066,0,0,0-2.132,0v13.326h-6.929v-13.326a1.066,1.066,0,0,0-2.132,0v13.326h-.42a2.144,2.144,0,0,0-1.994,1.376l-3.38,8.906.05.019a3.692,3.692,0,0,0,3.612,4.623h24.518a3.693,3.693,0,0,0,3.612-4.623Zm-26.418-8.169h21.093l2.036,5.363c-.107-.01-.212-.033-.323-.033h-24.518c-.111,0-.216.023-.323.033Zm22.806,10.66h-24.518a1.6,1.6,0,0,1,0-3.2h24.518a1.6,1.6,0,0,1,0,3.2Zm0,0" fill=""/>
  </g>
</svg>
