<svg xmlns="http://www.w3.org/2000/svg" width="28.064" height="32" viewBox="0 0 28.064 32">
  <g id="组_1642" data-name="组 1642" transform="translate(-2158.575 -5777.625)">
    <path id="路径_777" data-name="路径 777" d="M2179.337,5792.635H2173.6v-5.741h-1.979v5.741h-5.741v1.979h5.741v5.741h1.979v-5.741h5.741Z" fill=""/>
    <path id="路径_778" data-name="路径 778" d="M2185.983,5785.145l-12.721-7.345a1.313,1.313,0,0,0-1.311,0l-12.721,7.345a1.311,1.311,0,0,0-.655,1.135v14.689a1.311,1.311,0,0,0,.655,1.135l12.721,7.345a1.313,1.313,0,0,0,1.311,0l12.721-7.345a1.31,1.31,0,0,0,.656-1.135V5786.28A1.31,1.31,0,0,0,2185.983,5785.145Zm-1.463,14.628a1.264,1.264,0,0,1-.632,1.094l-10.65,6.149a1.265,1.265,0,0,1-1.263,0l-10.65-6.149a1.266,1.266,0,0,1-.631-1.094v-12.3a1.266,1.266,0,0,1,.631-1.094l10.65-6.149a1.265,1.265,0,0,1,1.263,0l10.65,6.149a1.264,1.264,0,0,1,.632,1.094Z" fill=""/>
  </g>
</svg>
