<svg xmlns="http://www.w3.org/2000/svg" width="30.658" height="27.717" viewBox="0 0 30.658 27.717">
  <g id="组_1580" data-name="组 1580" transform="translate(-1522.033 -5496.954)">
    <path id="路径_621" data-name="路径 621" d="M1529.218,5499.086h-5.052l.061,19.325a1.066,1.066,0,0,1-2.132,0l-.062-19.325a2.132,2.132,0,0,1,2.132-2.132h5.927l3.241,3.2h16.6a1.066,1.066,0,0,1,0,2.132H1532.46l-3.241-3.2Zm0,0" fill=""/>
    <path id="路径_622" data-name="路径 622" d="M1524.277,5518.262a1.066,1.066,0,0,1-2.1-.365l1.82-10.465a3.711,3.711,0,0,1,3.553-3.016h22.282a2.809,2.809,0,0,1,2.811,3.381l-2.409,13.858a3.714,3.714,0,0,1-3.555,3.016h-21.32a1.066,1.066,0,1,1,0-2.132h21.32a1.586,1.586,0,0,0,1.454-1.248l2.409-13.859a.685.685,0,0,0-.71-.884H1527.55a1.583,1.583,0,0,0-1.452,1.249Zm0,0" fill=""/>
  </g>
</svg>
