<svg xmlns="http://www.w3.org/2000/svg" width="27.999" height="32" viewBox="0 0 27.999 32">
  <g id="组_1579" data-name="组 1579" transform="translate(-1207.569 -5349.297)">
    <path id="路径_617" data-name="路径 617" d="M1221.1,5349.3c-6.61,0-12.011,4.833-12.011,10.859a9.9,9.9,0,0,0,.277,2.328l-1.7,3.807a1.066,1.066,0,0,0,.823,1.491c1.81.259,2.556,1.039,2.556,2.577v3.719a2.134,2.134,0,0,0,2.133,2.133h.691a2.133,2.133,0,0,1,2.133,2.134v1.885a1.067,1.067,0,0,0,1.067,1.067h11.52a1.066,1.066,0,0,0,0-2.133h-10.454v-.821a4.266,4.266,0,0,0-4.266-4.266h-.692v-3.719a4.282,4.282,0,0,0-3.04-4.371l1.33-2.976a1.069,1.069,0,0,0,.052-.726,7.793,7.793,0,0,1-.3-2.13c0-4.791,4.4-8.726,9.878-8.726s9.877,3.934,9.877,8.726a1.066,1.066,0,0,0,2.133,0c0-6.025-5.4-10.858-12.01-10.858Zm13.405,13.867a1.066,1.066,0,0,0-1.066,1.066v12a1.066,1.066,0,1,0,2.133,0v-12a1.067,1.067,0,0,0-1.067-1.066Zm0,0" fill=""/>
    <path id="路径_618" data-name="路径 618" d="M1226.831,5363.786a1.067,1.067,0,0,0-1.961.051l-4.426,11.125a1.067,1.067,0,1,0,1.983.789l1.087-2.73c.019,0,.036.01.055.01h5.162L1230,5375.8a1.066,1.066,0,1,0,1.938-.891Zm-2.474,7.111,1.576-3.957,1.817,3.957Zm0,0" fill=""/>
  </g>
</svg>
