<svg xmlns="http://www.w3.org/2000/svg" width="31.872" height="25.498" viewBox="0 0 31.872 25.498">
  <g id="组_1544" data-name="组 1544" transform="translate(-1574.059 -5352.548)">
    <g id="组_1543" data-name="组 1543">
      <path id="路径_534" data-name="路径 534" d="M1600.619,5361.756h-7.437a1.063,1.063,0,0,0,0,2.125h7.437a1.063,1.063,0,1,0,0-2.125Zm0,5.312h-7.437a1.063,1.063,0,0,0,0,2.125h7.437a1.063,1.063,0,1,0,0-2.125Zm-14.2,2.325v-.693a6.822,6.822,0,0,0,2.549-3.255c.381-.166.655-.634.876-1.47a1.111,1.111,0,0,0-.473-1.311c-.183-3.05-1.963-4.8-4.69-4.8-2.765,0-4.63,1.805-4.773,4.936a1.237,1.237,0,0,0-.384,1.357c.239.9.535,1.424.941,1.622a6.842,6.842,0,0,0,2.478,2.934v.684c-2.676.287-4.636,1.225-4.636,2.336,0,1.341,12.749,1.341,12.749,0,0-1.111-1.961-2.049-4.637-2.336Zm0,0" fill=""/>
      <path id="路径_535" data-name="路径 535" d="M1602.744,5352.548h-25.5a3.188,3.188,0,0,0-3.187,3.188v19.123a3.187,3.187,0,0,0,3.187,3.187h25.5a3.187,3.187,0,0,0,3.187-3.187v-19.123a3.188,3.188,0,0,0-3.187-3.188Zm1.062,22.311a1.062,1.062,0,0,1-1.062,1.062h-25.5a1.063,1.063,0,0,1-1.062-1.062v-19.123a1.063,1.063,0,0,1,1.062-1.063h25.5a1.062,1.062,0,0,1,1.062,1.063Zm0,0" fill=""/>
    </g>
  </g>
</svg>
