<svg xmlns="http://www.w3.org/2000/svg" width="31.872" height="25.497" viewBox="0 0 31.872 25.497">
  <g id="组_1497" data-name="组 1497" transform="translate(-1258.311 -5280.094)">
    <path id="路径_444" data-name="路径 444" d="M1284.871,5289.3h-7.437a1.063,1.063,0,1,0,0,2.125h7.437a1.063,1.063,0,0,0,0-2.125Zm0,5.312h-7.437a1.063,1.063,0,1,0,0,2.125h7.437a1.063,1.063,0,0,0,0-2.125Zm-14.2,2.325v-.693a6.823,6.823,0,0,0,2.549-3.255c.381-.166.655-.634.876-1.469a1.111,1.111,0,0,0-.474-1.311c-.183-3.05-1.962-4.8-4.689-4.8-2.766,0-4.63,1.805-4.774,4.936a1.237,1.237,0,0,0-.383,1.356c.239.9.534,1.424.941,1.622a6.85,6.85,0,0,0,2.478,2.935v.683c-2.677.288-4.637,1.225-4.637,2.336,0,1.341,12.749,1.341,12.749,0,0-1.111-1.96-2.048-4.636-2.336Zm0,0" fill=""/>
    <path id="路径_445" data-name="路径 445" d="M1286.995,5280.094h-25.5a3.187,3.187,0,0,0-3.187,3.187V5302.4a3.187,3.187,0,0,0,3.187,3.187h25.5a3.187,3.187,0,0,0,3.188-3.187v-19.123a3.187,3.187,0,0,0-3.188-3.187Zm1.063,22.31a1.062,1.062,0,0,1-1.063,1.062h-25.5a1.062,1.062,0,0,1-1.063-1.062v-19.123a1.063,1.063,0,0,1,1.063-1.063h25.5a1.063,1.063,0,0,1,1.063,1.063Zm0,0" fill=""/>
  </g>
</svg>
