<svg xmlns="http://www.w3.org/2000/svg" width="31.872" height="25.498" viewBox="0 0 31.872 25.498">
  <g id="组_1515" data-name="组 1515" transform="translate(-2207.181 -5206.327)">
    <g id="组_1514" data-name="组 1514">
      <path id="路径_480" data-name="路径 480" d="M2227.211,5225.982a1.063,1.063,0,0,0-1.062-1.063H2209.3v-11.686h16.84a1.063,1.063,0,0,0,0-2.125h-17.9a1.062,1.062,0,0,0-1.062,1.063v13.811a1.062,1.062,0,0,0,1.062,1.062h17.906a1.062,1.062,0,0,0,1.062-1.062Zm10.779-14.874h-3.085a1.063,1.063,0,0,0,0,2.125h2.023v11.686h-2a1.063,1.063,0,0,0,0,2.125h3.064a1.062,1.062,0,0,0,1.063-1.062v-13.811a1.063,1.063,0,0,0-1.063-1.063Zm0,0" fill=""/>
      <path id="路径_481" data-name="路径 481" d="M2233.763,5229.7h-2.147v-21.248h2.134a1.063,1.063,0,1,0,0-2.125h-6.405a1.063,1.063,0,0,0,0,2.125h2.146V5229.7h-2.146a1.063,1.063,0,0,0,0,2.125h6.417a1.063,1.063,0,0,0,0-2.125Zm0,0" fill=""/>
    </g>
  </g>
</svg>
