<svg xmlns="http://www.w3.org/2000/svg" width="29.748" height="29.747" viewBox="0 0 29.748 29.747">
  <g id="组_1563" data-name="组 1563" transform="translate(-1469.484 -5425.443)">
    <path id="路径_584" data-name="路径 584" d="M1496.044,5425.443h-23.372a3.188,3.188,0,0,0-3.188,3.187v19.124a3.187,3.187,0,0,0,3.188,3.187H1483.3v2.125h-7.437a1.062,1.062,0,1,0,0,2.124h17a1.062,1.062,0,1,0,0-2.124h-7.437v-2.125h10.624a3.187,3.187,0,0,0,3.188-3.187V5428.63a3.188,3.188,0,0,0-3.188-3.187Zm-23.372,2.125h23.372a1.062,1.062,0,0,1,1.063,1.062V5443.5h-25.5V5428.63a1.062,1.062,0,0,1,1.063-1.062Zm24.435,20.186a1.063,1.063,0,0,1-1.063,1.062h-23.372a1.063,1.063,0,0,1-1.063-1.062v-2.125h25.5Zm0,0" fill=""/>
  </g>
</svg>
