<svg xmlns="http://www.w3.org/2000/svg" width="29.752" height="31.872" viewBox="0 0 29.752 31.872">
  <g id="组_1502" data-name="组 1502" transform="translate(-1838.243 -5276.906)">
    <path id="路径_458" data-name="路径 458" d="M1866.933,5306.654H1865.8a.939.939,0,0,0,.029-.141v-3.949a1.117,1.117,0,0,0,.032-.16,1.071,1.071,0,0,0-.032-.159v-3.531a1.063,1.063,0,0,0-2.125,0v2.628h-4.217v-4.1c2.491-.811,4.249-2.154,4.249-4,0-2.168-2.641-3.941-6.892-4.629a1.063,1.063,0,0,0-.34,2.1c3.523.569,5.107,1.823,5.107,2.531,0,1.032-2.927,2.555-7.436,2.767v-8.511c4.305-.284,7.436-2.285,7.436-4.88,0-1.437-.964-2.734-2.718-3.653a1.062,1.062,0,0,0-.986,1.881c1,.528,1.58,1.172,1.58,1.772,0,1.186-2.211,2.5-5.312,2.747v-4.2a1.031,1.031,0,0,0-.054-.266,2.126,2.126,0,1,0-2.017,0,1.026,1.026,0,0,0-.054.266v4.2c-3.1-.251-5.312-1.561-5.312-2.747,0-.609.621-1.287,1.661-1.814a1.062,1.062,0,1,0-.959-1.9c-1.823.923-2.827,2.24-2.827,3.71,0,2.594,3.131,4.594,7.437,4.88V5296c-4.51-.211-7.437-1.734-7.437-2.767,0-.678,1.506-1.9,4.858-2.49a1.063,1.063,0,0,0-.369-2.093c-4.142.731-6.614,2.444-6.614,4.583,0,1.85,1.758,3.192,4.25,4v4.1h-4.25v-3.188a1.063,1.063,0,0,0-2.125,0v8.5h-1.062a1.062,1.062,0,1,0,0,2.124h27.628a1.062,1.062,0,0,0,0-2.124Zm-9.567-8.883v3.571h-3.187v-3.212a22.917,22.917,0,0,0,3.187-.359Zm-8.5,0a22.963,22.963,0,0,0,3.187.36v3.211h-3.187Zm-6.375,8.883v-3.188h9.562v3.188Zm11.687-3.188h9.529v3.047a.939.939,0,0,0,.029.141h-9.558Zm0,0" fill=""/>
  </g>
</svg>
