<svg xmlns="http://www.w3.org/2000/svg" width="28.803" height="29.87" viewBox="0 0 28.803 29.87">
  <g id="组_1584" data-name="组 1584" transform="translate(-1259.834 -5495.88)">
    <path id="路径_636" data-name="路径 636" d="M1288.325,5523.929l-4.627-4.627a13.974,13.974,0,1,0-1.593,1.423l4.712,4.712a1.066,1.066,0,1,0,1.508-1.508Zm-26.359-14.19a11.726,11.726,0,1,1,11.726,11.726,11.74,11.74,0,0,1-11.726-11.726Zm0,0" fill=""/>
    <path id="路径_637" data-name="路径 637" d="M1278.549,5508.672H1268.9a1.066,1.066,0,0,0,0,2.132h9.654a1.066,1.066,0,0,0,0-2.132Zm0,0" fill=""/>
  </g>
</svg>
