<svg xmlns="http://www.w3.org/2000/svg" width="30.077" height="31.872" viewBox="0 0 30.077 31.872">
  <g id="组_1568" data-name="组 1568" transform="translate(-2208.078 -5424.381)">
    <path id="路径_595" data-name="路径 595" d="M2237.844,5443.082a1.063,1.063,0,0,0-1.5,0l-6.685,6.686-3.156-3.155a1.062,1.062,0,0,0-1.5,1.5l3.907,3.906a1.06,1.06,0,0,0,1.5,0l7.437-7.437a1.062,1.062,0,0,0,0-1.5Zm-6.393-8.077a1.063,1.063,0,0,0-1.062-1.063h-17a1.063,1.063,0,0,0,0,2.125h17a1.063,1.063,0,0,0,1.062-1.062Zm-18.061,6.374a1.063,1.063,0,0,0,0,2.125h9.562a1.063,1.063,0,0,0,0-2.125Zm0,0" fill=""/>
    <path id="路径_596" data-name="路径 596" d="M2230.492,5454.128h-19.126a1.2,1.2,0,0,1-1.163-1.226v-25.171a1.2,1.2,0,0,1,1.163-1.226h21.047a1.2,1.2,0,0,1,1.163,1.226v11.638a1.063,1.063,0,0,0,2.125,0v-11.638a3.32,3.32,0,0,0-3.288-3.35h-21.047a3.32,3.32,0,0,0-3.288,3.35V5452.9a3.32,3.32,0,0,0,3.288,3.351h19.126a1.063,1.063,0,0,0,0-2.125Zm0,0" fill=""/>
  </g>
</svg>
