<svg xmlns="http://www.w3.org/2000/svg" width="26.356" height="27.355" viewBox="0 0 26.356 27.355">
  <g id="组_1619" data-name="组 1619" transform="translate(-2050.851 -5638.195)">
    <path id="路径_721" data-name="路径 721" d="M2064.029,5655.383a1.013,1.013,0,0,0-1.013,1.014v3.041a1.013,1.013,0,0,0,2.027,0V5656.4a1.014,1.014,0,0,0-1.014-1.014Zm-5.66-10.2a.407.407,0,0,0,.287.119h4.36v7.044a1.013,1.013,0,1,0,2.027,0V5645.3h4.432a.405.405,0,0,0,.287-.692l-5.409-5.409a.406.406,0,0,0-.574,0l-5.409,5.409a.406.406,0,0,0,0,.573Zm0,0" fill=""/>
    <path id="路径_722" data-name="路径 722" d="M2076.079,5641.017l-5.518-2.727a1.015,1.015,0,0,0-.9,1.818l5.518,2.727v15.929l-11.151,4.673-11.15-4.673v-15.929l5.517-2.727a1.014,1.014,0,0,0-.9-1.818l-5.518,2.727a2.018,2.018,0,0,0-1.13,1.818v15.929a2.02,2.02,0,0,0,1.244,1.869l11.543,4.837a1.009,1.009,0,0,0,.785,0l11.541-4.836a2.022,2.022,0,0,0,1.243-1.87v-15.929a2.016,2.016,0,0,0-1.128-1.818Zm0,0" fill=""/>
  </g>
</svg>
