<svg xmlns="http://www.w3.org/2000/svg" width="26.56" height="29.747" viewBox="0 0 26.56 29.747">
  <g id="组_1526" data-name="组 1526" transform="translate(-2050.336 -5350.405)">
    <path id="路径_504" data-name="路径 504" d="M2076.9,5350.4H2054.94a4.7,4.7,0,0,0-4.6,4.781,5.1,5.1,0,0,0,.051.531h-.051v19.123a5.213,5.213,0,0,0,5.11,5.312h21.45v-22.31H2054.94a2.662,2.662,0,0,1,0-5.312H2076.9Zm-14.342,9.562h5.843v5.716l-2.264-1.782a1.061,1.061,0,0,0-1.314,0l-2.265,1.782Zm-7.614,0h5.489v7.905a1.062,1.062,0,0,0,1.72.835l3.326-2.62,3.327,2.62a1.063,1.063,0,0,0,1.72-.835v-7.905h4.249v18.061h-19.325a3.093,3.093,0,0,1-2.985-3.188V5359.2a4.447,4.447,0,0,0,2.479.763Zm0,0" fill=""/>
    <rect id="矩形_835" data-name="矩形 835" width="19.131" height="2.125" transform="translate(2055.641 5354.124)" fill=""/>
  </g>
</svg>
