<svg xmlns="http://www.w3.org/2000/svg" width="30.49" height="31.871" viewBox="0 0 30.49 31.871">
  <g id="组_1496" data-name="组 1496" transform="translate(-1786.841 -5565.099)">
    <path id="路径_441" data-name="路径 441" d="M1807.034,5586.338a1.062,1.062,0,1,0-1.5,1.5l3.719,3.718a1.062,1.062,0,0,0,1.5-1.5Zm0,0" fill=""/>
    <g id="组_1495" data-name="组 1495">
      <path id="路径_442" data-name="路径 442" d="M1808.7,5583.012a8.213,8.213,0,0,0-11.093-8.949,1.061,1.061,0,0,0-.365,1.741l3.247,3.248a1.06,1.06,0,0,1,0,1.5l-1.04,1.04a1.061,1.061,0,0,1-1.5,0l-3.258-3.258a1.062,1.062,0,0,0-1.739.36,8.212,8.212,0,0,0,8.9,11.137l4.841,4.841a4.834,4.834,0,1,0,6.837-6.836Zm3.323,10.16a2.709,2.709,0,0,1-3.831,0l-5.655-5.655-.574.133a6.087,6.087,0,0,1-7.438-6.472l1.92,1.92a3.19,3.19,0,0,0,4.508,0l1.04-1.041a3.188,3.188,0,0,0,0-4.507l-1.9-1.9a6.087,6.087,0,0,1,6.423,7.471l-.136.577,5.645,5.644a2.712,2.712,0,0,1,0,3.831Zm0,0" fill=""/>
      <path id="路径_443" data-name="路径 443" d="M1816.4,5578.089l-12.058-12.058a3.192,3.192,0,0,0-4.508,0l-12.058,12.058a3.189,3.189,0,0,0,.5,4.916v10.777a3.191,3.191,0,0,0,3.187,3.187h10.624a1.063,1.063,0,0,0,0-2.125h-10.624a1.063,1.063,0,0,1-1.062-1.062v-11.429a1.061,1.061,0,0,0-.718-1,1.063,1.063,0,0,1-.406-1.756l12.058-12.059a1.065,1.065,0,0,1,1.5,0l12.058,12.06a1.061,1.061,0,0,1-.406,1.755,1.064,1.064,0,0,0-.718,1v2.541a1.063,1.063,0,0,0,2.125,0v-1.888a3.188,3.188,0,0,0,.5-4.917Zm0,0" fill=""/>
    </g>
  </g>
</svg>
