<svg xmlns="http://www.w3.org/2000/svg" width="29.113" height="30.809" viewBox="0 0 29.113 30.809">
  <g id="组_1556" data-name="组 1556" transform="translate(-2208.561 -5349.881)">
    <path id="路径_555" data-name="路径 555" d="M2222.981,5354.13a1.063,1.063,0,0,0,1.063-1.062v-2.125a1.063,1.063,0,0,0-2.125,0v2.125a1.062,1.062,0,0,0,1.062,1.062Zm-12.62,3.757a1.062,1.062,0,0,0,1.5-1.5l-1.5-1.5a1.063,1.063,0,0,0-1.5,1.5Zm27-1.943a1.062,1.062,0,0,0-1.5,0l-1.5,1.5a1.063,1.063,0,0,0,1.5,1.5l1.5-1.5a1.062,1.062,0,0,0,0-1.5Zm-1.1,22.621h-1.593v-11.686a11.687,11.687,0,0,0-23.373,0v11.686H2209.7a1.063,1.063,0,0,0,0,2.125h26.56a1.063,1.063,0,1,0,0-2.125Zm-12.217,0v-4.249a1.063,1.063,0,1,0-2.125,0v4.249h-8.5v-11.686a9.562,9.562,0,1,1,19.123,0v11.686Zm0,0" fill=""/>
    <path id="路径_556" data-name="路径 556" d="M2222.981,5363.692a4.25,4.25,0,1,0,4.25,4.249,4.249,4.249,0,0,0-4.25-4.249Zm0,6.374a2.125,2.125,0,1,1,2.126-2.125,2.125,2.125,0,0,1-2.126,2.125Zm0,0" fill=""/>
  </g>
</svg>
