<svg xmlns="http://www.w3.org/2000/svg" width="28.383" height="28.383" viewBox="0 0 28.383 28.383">
  <g id="组_1616" data-name="组 1616" transform="translate(-1313.238 -5637.681)">
    <path id="路径_714" data-name="路径 714" d="M1339.594,5637.681h-24.328a2.029,2.029,0,0,0-2.028,2.027v24.328a2.031,2.031,0,0,0,2.028,2.028h24.328a2.03,2.03,0,0,0,2.027-2.028v-24.328a2.029,2.029,0,0,0-2.027-2.027Zm-24.328,26.355v-24.328h24.328l0,24.328Zm0,0" fill=""/>
    <path id="路径_715" data-name="路径 715" d="M1334.8,5645.411l-9.831,10.495-5-4.2a1.014,1.014,0,1,0-1.3,1.553l5.73,4.815a1.015,1.015,0,0,0,1.392-.083l10.489-11.2a1.014,1.014,0,0,0-1.48-1.386Zm0,0" fill=""/>
  </g>
</svg>
