<svg xmlns="http://www.w3.org/2000/svg" width="31.872" height="25.498" viewBox="0 0 31.872 25.498">
  <g id="组_1517" data-name="组 1517" transform="translate(-1574.059 -5206.327)">
    <g id="组_1516" data-name="组 1516">
      <path id="路径_482" data-name="路径 482" d="M1604.869,5206.327h-29.747a1.063,1.063,0,0,0-1.063,1.063V5221.2a1.062,1.062,0,0,0,1.063,1.062h29.747a1.062,1.062,0,0,0,1.062-1.062V5207.39a1.063,1.063,0,0,0-1.062-1.063Zm-1.063,13.812h-27.622v-11.687h27.622Zm-1.062,3.428a1.062,1.062,0,0,0-1.062,1.062v5.071h-23.373v-5.071a1.063,1.063,0,0,0-2.125,0v6.134a1.063,1.063,0,0,0,1.062,1.062h25.5a1.062,1.062,0,0,0,1.062-1.062v-6.134a1.062,1.062,0,0,0-1.062-1.062Zm0,0" fill=""/>
      <path id="路径_483" data-name="路径 483" d="M1595.769,5217.694a1.057,1.057,0,0,0,1.518,0l4.092-4.184a1.062,1.062,0,1,0-1.52-1.485l-3.331,3.407-3.333-3.407a1.062,1.062,0,0,0-1.519,1.485Zm0,0" fill=""/>
    </g>
  </g>
</svg>
