<svg xmlns="http://www.w3.org/2000/svg" width="27.622" height="31.871" viewBox="0 0 27.622 31.871">
  <g id="组_1521" data-name="组 1521" transform="translate(-1418.299 -5276.887)">
    <path id="路径_493" data-name="路径 493" d="M1429.006,5297.25l-5.294-3.013a1.062,1.062,0,1,0-1.052,1.846l5.294,3.013a1.062,1.062,0,0,0,1.052-1.846Zm0,0" fill=""/>
    <path id="路径_494" data-name="路径 494" d="M1441.347,5288.434a1.063,1.063,0,0,0-1.05-1.848l-8.293,4.721-8.292-4.72a1.063,1.063,0,0,0-1.052,1.847l8.411,4.786v10.227a1.063,1.063,0,1,0,2.125,0v-10.269c0-.033-.016-.062-.019-.1Zm0,0" fill=""/>
    <path id="路径_495" data-name="路径 495" d="M1444.337,5283.543l-10.627-6.221a3.177,3.177,0,0,0-3.208,0l-10.62,6.221a3.209,3.209,0,0,0-1.583,2.769v13.2a3.208,3.208,0,0,0,1.618,2.789l10.624,6.039a3.167,3.167,0,0,0,3.137,0l10.624-6.039a3.208,3.208,0,0,0,1.619-2.789v-13.2a3.207,3.207,0,0,0-1.584-2.769Zm-.541,15.972a1.069,1.069,0,0,1-.539.929l-10.624,6.04a1.055,1.055,0,0,1-1.046,0l-10.624-6.04a1.066,1.066,0,0,1-.539-.929v-13.2a1.069,1.069,0,0,1,.528-.923l10.619-6.22a1.055,1.055,0,0,1,1.069,0l10.628,6.221a1.064,1.064,0,0,1,.528.922Zm0,0" fill=""/>
    <path id="路径_496" data-name="路径 496" d="M1440.963,5290.9l-4.958,2.925a2.627,2.627,0,0,0-1.24,1.986v5.857c0,.693.555.926,1.24.523l4.958-2.926a2.628,2.628,0,0,0,1.24-1.986v-5.857c0-.692-.555-.926-1.24-.522Zm0,0" fill=""/>
  </g>
</svg>
