<svg xmlns="http://www.w3.org/2000/svg" width="29.747" height="29.747" viewBox="0 0 29.747 29.747">
  <g id="组_1554" data-name="组 1554" transform="translate(-1732.834 -5425.443)">
    <path id="路径_550" data-name="路径 550" d="M1759.361,5436.067a3.2,3.2,0,0,0,3.22-3.187v-4.25a3.2,3.2,0,0,0-3.22-3.187h-23.307a3.2,3.2,0,0,0-3.22,3.187v4.25a3.2,3.2,0,0,0,3.22,3.187h5.279v4.25a1.062,1.062,0,0,0,1.062,1.062h9.562v3.187h-15.9a3.2,3.2,0,0,0-3.22,3.188V5452a3.2,3.2,0,0,0,3.22,3.187h23.307a3.2,3.2,0,0,0,3.22-3.187v-4.249a3.2,3.2,0,0,0-3.22-3.188h-5.279v-4.249a1.063,1.063,0,0,0-1.063-1.063h-9.561v-3.187Zm0,10.624a1.068,1.068,0,0,1,1.073,1.063V5452a1.068,1.068,0,0,1-1.073,1.063h-23.307a1.068,1.068,0,0,1-1.073-1.063v-4.249a1.068,1.068,0,0,1,1.073-1.063Zm-24.38-13.811v-4.25a1.068,1.068,0,0,1,1.073-1.062h23.307a1.068,1.068,0,0,1,1.073,1.062v4.25a1.068,1.068,0,0,1-1.073,1.062h-23.307a1.068,1.068,0,0,1-1.073-1.062Zm0,0" fill=""/>
    <path id="路径_551" data-name="路径 551" d="M1741.333,5450.941h12.749a1.063,1.063,0,0,0,0-2.125h-12.749a1.063,1.063,0,1,0,0,2.125Zm13.811-20.186a1.062,1.062,0,0,0-1.062-1.062h-12.749a1.063,1.063,0,1,0,0,2.125h12.749a1.063,1.063,0,0,0,1.062-1.063Zm0,0" fill=""/>
  </g>
</svg>
