<svg xmlns="http://www.w3.org/2000/svg" width="27.717" height="31.981" viewBox="0 0 27.717 31.981">
  <g id="组_1596" data-name="组 1596" transform="translate(-1735.224 -5565.459)">
    <path id="路径_664" data-name="路径 664" d="M1755.479,5578.251h-12.792a1.066,1.066,0,1,0,0,2.132h12.792a1.066,1.066,0,1,0,0-2.132Zm0,6.4h-12.792a1.066,1.066,0,1,0,0,2.132h12.792a1.066,1.066,0,1,0,0-2.132Zm0,0" fill=""/>
    <path id="路径_665" data-name="路径 665" d="M1759.743,5565.459h-21.32a3.2,3.2,0,0,0-3.2,3.2v25.585a3.2,3.2,0,0,0,3.2,3.2h21.32a3.2,3.2,0,0,0,3.2-3.2v-25.585a3.2,3.2,0,0,0-3.2-3.2Zm-17.056,2.132h12.792v3.2h-12.792Zm18.122,26.651a1.066,1.066,0,0,1-1.066,1.066h-21.32a1.067,1.067,0,0,1-1.066-1.066v-25.585a1.068,1.068,0,0,1,1.066-1.066h2.132v3.2a2.134,2.134,0,0,0,2.132,2.132h12.792a2.134,2.134,0,0,0,2.132-2.132v-3.2h2.132a1.067,1.067,0,0,1,1.066,1.066Zm0,0" fill=""/>
  </g>
</svg>
