<svg xmlns="http://www.w3.org/2000/svg" width="29.396" height="26.996" viewBox="0 0 29.396 26.996">
  <g id="组_1630" data-name="组 1630" transform="translate(-1679.825 -5709.314)">
    <path id="路径_746" data-name="路径 746" d="M1704.923,5720.3a1.013,1.013,0,0,0-1.013,1.014v5.174H1689.6c-.028,0-.052.014-.081.016v-5.629h7.745a1.014,1.014,0,1,0,0-2.028h-15.327c-.028,0-.053.015-.081.017v-4.785h15.464a1.014,1.014,0,0,0,0-2.027h-16.478a1.012,1.012,0,0,0-1.013,1.013V5735.3a1.013,1.013,0,0,0,1.013,1.014h24.085a1.014,1.014,0,0,0,1.014-1.014v-13.983a1.014,1.014,0,0,0-1.014-1.014Zm-23.071.559a.8.8,0,0,0,.081.017h5.555v13.408h-5.636Zm7.663,13.425V5728.5c.029,0,.053.016.081.016h14.314v5.768h-14.4Zm18.693-22.011h-1.945v-1.945a1.013,1.013,0,0,0-2.027,0v1.944h-2.6a1.013,1.013,0,1,0,0,2.027h2.6v2.6a1.013,1.013,0,1,0,2.027,0v-2.6h1.945a1.013,1.013,0,0,0,0-2.027Zm0,0" fill=""/>
  </g>
</svg>
