<svg xmlns="http://www.w3.org/2000/svg" width="28.383" height="28.383" viewBox="0 0 28.383 28.383">
  <g id="组_1629" data-name="组 1629" transform="translate(-1733.456 -5708.62)">
    <path id="路径_743" data-name="路径 743" d="M1756.771,5716.73a5.074,5.074,0,0,0-5.069,5.068,4.989,4.989,0,0,0,.278,1.58,9.35,9.35,0,0,1-7.508-.6c-2.437-1.174-4.013-2.581-4.706-4.189a5.033,5.033,0,1,0-2.255.069v8.314a5.069,5.069,0,1,0,2.027,0V5721.8a14.018,14.018,0,0,0,4.054,2.8,12.488,12.488,0,0,0,5.443,1.333,10.789,10.789,0,0,0,3.968-.78,5.058,5.058,0,1,0,3.768-8.423Zm-21.287-3.041a3.041,3.041,0,1,1,3.041,3.041,3.044,3.044,0,0,1-3.041-3.041Zm6.082,18.246a3.041,3.041,0,1,1-3.041-3.041,3.046,3.046,0,0,1,3.041,3.041Zm15.2-7.1a3.041,3.041,0,1,1,3.041-3.041,3.044,3.044,0,0,1-3.041,3.041Zm0,0" fill=""/>
  </g>
</svg>
