<svg xmlns="http://www.w3.org/2000/svg" width="29.748" height="27.622" viewBox="0 0 29.748 27.622">
  <g id="组_1533" data-name="组 1533" transform="translate(-1417.247 -5351.486)">
    <g id="组_1532" data-name="组 1532">
      <path id="路径_516" data-name="路径 516" d="M1441.683,5372.734H1430a1.063,1.063,0,0,0,0,2.125h11.687a1.063,1.063,0,0,0,0-2.125Zm0-8.5H1430a1.062,1.062,0,1,0,0,2.124h11.687a1.062,1.062,0,0,0,0-2.124Zm0-8.5H1430a1.063,1.063,0,0,0,0,2.125h11.687a1.063,1.063,0,0,0,0-2.125Zm-16.468,17h-2.124a1.063,1.063,0,1,0,0,2.125h2.124a1.063,1.063,0,1,0,0-2.125Zm0-8.5h-2.124a1.062,1.062,0,1,0,0,2.124h2.124a1.062,1.062,0,1,0,0-2.124Zm0-8.5h-2.124a1.063,1.063,0,1,0,0,2.125h2.124a1.063,1.063,0,1,0,0-2.125Zm0,0" fill=""/>
      <path id="路径_517" data-name="路径 517" d="M1443.807,5351.486h-23.372a3.188,3.188,0,0,0-3.188,3.187v21.248a3.187,3.187,0,0,0,3.188,3.187h23.372a3.188,3.188,0,0,0,3.188-3.187v-21.248a3.188,3.188,0,0,0-3.188-3.187Zm1.063,24.435a1.062,1.062,0,0,1-1.063,1.062h-23.372a1.062,1.062,0,0,1-1.063-1.062v-5.312h22.311a1.063,1.063,0,0,0,0-2.125h-22.311v-6.374h22.311a1.063,1.063,0,0,0,0-2.125h-22.311v-5.312a1.062,1.062,0,0,1,1.063-1.062h23.372a1.062,1.062,0,0,1,1.063,1.062Zm0,0" fill=""/>
    </g>
  </g>
</svg>
