<svg xmlns="http://www.w3.org/2000/svg" width="29.316" height="29.316" viewBox="0 0 29.316 29.316">
  <g id="组_1599" data-name="组 1599" transform="translate(-1418.185 -5566.791)">
    <path id="路径_670" data-name="路径 670" d="M1424.581,5581.183l2.719,3.624a1.066,1.066,0,1,1-1.706,1.279l-3.2-4.264a1.063,1.063,0,0,1,0-1.279l3.2-4.264a1.066,1.066,0,0,1,1.706,1.279Zm13.806,3.624a1.066,1.066,0,1,0,1.705,1.279l3.2-4.264a1.063,1.063,0,0,0,0-1.279l-3.2-4.264a1.066,1.066,0,0,0-1.705,1.279l2.718,3.625Zm-5.569.871a1.066,1.066,0,1,1-2.081-.462l2.132-9.595a1.066,1.066,0,1,1,2.081.463Zm0,0" fill=""/>
    <path id="路径_671" data-name="路径 671" d="M1421.383,5568.923a1.066,1.066,0,0,0-1.066,1.066v22.92a1.066,1.066,0,0,0,1.066,1.066h22.92a1.066,1.066,0,0,0,1.066-1.066v-22.92a1.066,1.066,0,0,0-1.066-1.066Zm0-2.132h22.92a3.2,3.2,0,0,1,3.2,3.2v22.92a3.2,3.2,0,0,1-3.2,3.2h-22.92a3.2,3.2,0,0,1-3.2-3.2v-22.92a3.2,3.2,0,0,1,3.2-3.2Zm0,0" fill=""/>
  </g>
</svg>
