<svg xmlns="http://www.w3.org/2000/svg" width="29.747" height="24.436" viewBox="0 0 29.747 24.436">
  <g id="组_1536" data-name="组 1536" transform="translate(-1469.872 -5353.079)">
    <g id="组_1535" data-name="组 1535">
      <path id="路径_519" data-name="路径 519" d="M1498.557,5353.079h-27.623a1.063,1.063,0,0,0-1.062,1.063v22.31a1.063,1.063,0,0,0,1.062,1.063h27.623a1.062,1.062,0,0,0,1.062-1.063v-22.31a1.062,1.062,0,0,0-1.062-1.063Zm-1.063,22.311H1472V5355.2h25.5Zm0,0" fill=""/>
      <path id="路径_520" data-name="路径 520" d="M1475.4,5362.644h10.405a1.063,1.063,0,0,0,0-2.125H1475.4a1.063,1.063,0,1,0,0,2.125Zm0,6.375h10.405a1.063,1.063,0,0,0,0-2.125H1475.4a1.063,1.063,0,1,0,0,2.125Zm17.842,2.121a1.061,1.061,0,0,0,1.062-1.062v-10.69a1.063,1.063,0,0,0-2.125,0v10.69a1.062,1.062,0,0,0,1.063,1.062Zm0,0" fill=""/>
    </g>
  </g>
</svg>
