<svg xmlns="http://www.w3.org/2000/svg" width="27.646" height="31.872" viewBox="0 0 27.646 31.872">
  <g id="组_1553" data-name="组 1553" transform="translate(-2103.583 -5424.381)">
    <path id="路径_548" data-name="路径 548" d="M2131.2,5446.522c0-.019.011-.035.011-.055v-18.736a3.324,3.324,0,0,0-3.29-3.35h-21.045a3.324,3.324,0,0,0-3.288,3.35V5452.9a3.325,3.325,0,0,0,3.288,3.351h15.937a1.06,1.06,0,0,0,.7-.261l5.108-4.436a1.062,1.062,0,1,0-1.391-1.6l-3.452,3v-3.969a1.2,1.2,0,0,1,1.164-1.228h5.234a1.062,1.062,0,0,0,1.062-1.062,1.4,1.4,0,0,0-.034-.169Zm-9.551,2.458v5.148h-14.773a1.2,1.2,0,0,1-1.163-1.226v-25.171a1.2,1.2,0,0,1,1.163-1.226h21.045a1.2,1.2,0,0,1,1.165,1.226v17.9h-4.148a3.324,3.324,0,0,0-3.289,3.351Zm0,0" fill=""/>
    <path id="路径_549" data-name="路径 549" d="M2124.677,5432.88h-.173a.96.96,0,0,0-.792.417q-1.122,2.031-2.779,5.429l-2.333-4.693c-.277-.77-.662-1.153-1.151-1.153h-.26a1.013,1.013,0,0,0-.85.5q-1.828,3.458-2.721,5.343l-2.333-4.693c-.268-.77-.653-1.153-1.151-1.153h-.231l-.216.057q-.791.4-.792.951v.259l.029.173q2.175,4.594,3.4,6.97.489,1.152,1.151,1.151h.2a1.138,1.138,0,0,0,.835-.417l2.764-5.458h.029q1.512,3.183,2.131,4.364.634,1.512,1.355,1.511h.2a1.143,1.143,0,0,0,.892-.5l3.86-7.675v-.346l-.029-.115q-.491-.922-1.038-.922Zm0,0" fill=""/>
  </g>
</svg>
