<svg xmlns="http://www.w3.org/2000/svg" width="31.872" height="25.635" viewBox="0 0 31.872 25.635">
  <g id="组_1512" data-name="组 1512" transform="translate(-1942.432 -5206.244)">
    <path id="路径_476" data-name="路径 476" d="M1973.242,5206.244h-29.747a1.063,1.063,0,0,0-1.063,1.063v19.123a1.062,1.062,0,0,0,1.063,1.062h8.824a1.062,1.062,0,1,0,0-2.124h-7.762v-17h27.623v17h-2.265a1.062,1.062,0,0,0,0,2.124h3.327a1.061,1.061,0,0,0,1.062-1.062v-19.123a1.062,1.062,0,0,0-1.062-1.063Zm0,0" fill=""/>
    <path id="路径_477" data-name="路径 477" d="M1961.313,5222.716a1.062,1.062,0,0,0-1.474-.053l-2.052,1.839-.417-7.963,7.882.939-1.606,1.5a1.062,1.062,0,1,0,1.448,1.554l3.28-3.058a1.063,1.063,0,0,0-.6-1.833l-11.408-1.359a1.064,1.064,0,0,0-1.186,1.11l.6,11.441a1.063,1.063,0,0,0,1.77.734l2.943-2.637,6.393,6.628a1.062,1.062,0,0,0,1.528-1.475Zm0,0" fill=""/>
  </g>
</svg>
