<svg xmlns="http://www.w3.org/2000/svg" width="30.651" height="30.651" viewBox="0 0 30.651 30.651">
  <g id="组_1645" data-name="组 1645" transform="translate(-2102.081 -5778.299)">
    <path id="路径_784" data-name="路径 784" d="M2132.732,5783.407a5.137,5.137,0,0,0-5.109-5.108h-20.434a5.137,5.137,0,0,0-5.108,5.108v20.434a5.137,5.137,0,0,0,5.108,5.109h20.434a5.138,5.138,0,0,0,5.109-5.109Zm-2.136,19.8a3.568,3.568,0,0,1-3.6,3.6H2107.82a3.569,3.569,0,0,1-3.6-3.6v-19.173a3.569,3.569,0,0,1,3.6-3.6h19.173a3.568,3.568,0,0,1,3.6,3.6Zm-3.393-7.767a2.111,2.111,0,0,1-3.009,0,2.044,2.044,0,0,1-.49-.84h-3.359a2.987,2.987,0,0,1-1.049,1.4l2.169,3.779a2.639,2.639,0,0,1,1.05,0,2.13,2.13,0,1,1-2.59,1.539,1.557,1.557,0,0,1,.56-.91l-2.239-3.848a3.523,3.523,0,0,1-.84.14,3.36,3.36,0,0,1-1.679-.49l-4.689,4.688a2.283,2.283,0,0,1,.28.98,2.17,2.17,0,1,1-2.169-2.169,1.61,1.61,0,0,1,.979.279l4.759-4.688a2.793,2.793,0,0,1-.49-1.68,3.371,3.371,0,0,1,.49-1.679l-3.569-3.569a2.418,2.418,0,0,1-1.26.35,2.449,2.449,0,1,1,2.45-2.449,2.85,2.85,0,0,1-.35,1.259l3.569,3.569a2.784,2.784,0,0,1,1.679-.49,3.554,3.554,0,0,1,.91.14l1.889-3.289a2.183,2.183,0,0,1-.35-.7,1.841,1.841,0,0,1,1.33-2.24,2.658,2.658,0,0,1,1.05,0,.884.884,0,0,1,.42.07c.139.07.209.21.279.28a2.008,2.008,0,0,1,.56.91,1.839,1.839,0,0,1-1.329,2.239,1.426,1.426,0,0,1-.77,0l-1.89,3.289a2.917,2.917,0,0,1,1.05,2.1h3.149a1.992,1.992,0,0,1,.56-.98,2.112,2.112,0,0,1,3.009,0,2.17,2.17,0,0,1,.63,1.539v.14a3.044,3.044,0,0,1-.7,1.33Zm0,0" fill=""/>
  </g>
</svg>
