<svg xmlns="http://www.w3.org/2000/svg" width="27.74" height="31.981" viewBox="0 0 27.74 31.981">
  <g id="组_1595" data-name="组 1595" transform="translate(-1840.626 -5565.459)">
    <path id="路径_662" data-name="路径 662" d="M1868.332,5587.676c0-.019.011-.035.011-.055v-18.8a3.336,3.336,0,0,0-3.3-3.362h-21.117a3.335,3.335,0,0,0-3.3,3.362v25.256a3.336,3.336,0,0,0,3.3,3.363h15.992a1.059,1.059,0,0,0,.7-.262l5.126-4.451a1.066,1.066,0,1,0-1.4-1.61l-3.463,3.008v-3.982a1.2,1.2,0,0,1,1.168-1.232h5.251a1.065,1.065,0,0,0,1.066-1.065,1.206,1.206,0,0,0-.034-.17Zm-9.583,2.466v5.166h-14.824a1.2,1.2,0,0,1-1.167-1.231v-25.256a1.2,1.2,0,0,1,1.167-1.23h21.117a1.2,1.2,0,0,1,1.169,1.23v17.958h-4.162a3.336,3.336,0,0,0-3.3,3.363Zm0,0" fill=""/>
    <path id="路径_663" data-name="路径 663" d="M1861.792,5573.987h-.174a.962.962,0,0,0-.794.419q-1.126,2.038-2.789,5.447l-2.341-4.709q-.417-1.158-1.155-1.157h-.26a1.013,1.013,0,0,0-.853.505q-1.836,3.469-2.731,5.361l-2.341-4.709q-.4-1.158-1.155-1.157h-.231l-.218.058c-.528.269-.794.587-.794.954v.26l.029.174q2.182,4.609,3.41,6.993.491,1.155,1.156,1.155h.2a1.138,1.138,0,0,0,.838-.419l2.774-5.476h.029q1.516,3.193,2.138,4.378.638,1.518,1.359,1.517h.2a1.147,1.147,0,0,0,.9-.5l3.873-7.7v-.348l-.028-.115c-.329-.617-.675-.925-1.042-.925Zm0,0" fill=""/>
  </g>
</svg>
