<svg xmlns="http://www.w3.org/2000/svg" width="31.872" height="31.872" viewBox="0 0 31.872 31.872">
  <g id="组_1539" data-name="组 1539" transform="translate(-1837.183 -5349.361)">
    <path id="路径_525" data-name="路径 525" d="M1853.119,5381.233a15.936,15.936,0,1,1,15.936-15.936,15.936,15.936,0,0,1-15.936,15.936Zm0-2.125a13.811,13.811,0,1,0-13.811-13.811,13.811,13.811,0,0,0,13.811,13.811Zm0,0" fill=""/>
    <path id="路径_526" data-name="路径 526" d="M1858.962,5364.235a1.063,1.063,0,0,1,0,2.125h-13.811a1.063,1.063,0,1,1,0-2.125Zm0,0" fill=""/>
    <path id="路径_527" data-name="路径 527" d="M1859.595,5365.3l-5.025-5.67a1.062,1.062,0,1,1,1.589-1.409l5.651,6.375a1.062,1.062,0,0,1,0,1.408l-5.652,6.375a1.062,1.062,0,1,1-1.589-1.409Zm0,0" fill=""/>
  </g>
</svg>
