<svg xmlns="http://www.w3.org/2000/svg" width="28.383" height="28.383" viewBox="0 0 28.383 28.383">
  <g id="组_1613" data-name="组 1613" transform="translate(-1471.358 -5637.681)">
    <path id="路径_707" data-name="路径 707" d="M1497.714,5637.681h-24.328a2.029,2.029,0,0,0-2.028,2.027v24.328a2.031,2.031,0,0,0,2.028,2.028h24.328a2.03,2.03,0,0,0,2.027-2.028v-24.328a2.029,2.029,0,0,0-2.027-2.027Zm-24.328,26.355v-24.328h24.328l0,24.328Zm0,0" fill=""/>
    <path id="路径_708" data-name="路径 708" d="M1493.152,5650.859h-15.2a1.014,1.014,0,1,0,0,2.027h15.2a1.014,1.014,0,1,0,0-2.027Zm0,0" fill=""/>
  </g>
</svg>
