<svg xmlns="http://www.w3.org/2000/svg" width="31.981" height="23.453" viewBox="0 0 31.981 23.453">
  <g id="组_1605" data-name="组 1605" transform="translate(-1942.374 -5499.098)">
    <path id="路径_686" data-name="路径 686" d="M1973.568,5502.953a1.848,1.848,0,0,0-1.857.058l-3.752,2.056V5499.1h-25.585v23.453h25.585v-7.035l3.752,2.055a2.144,2.144,0,0,0,1.027.282,1.61,1.61,0,0,0,.83-.223,1.657,1.657,0,0,0,.787-1.476v-11.726a1.654,1.654,0,0,0-.787-1.475Zm-7.741,17.466h-21.321V5501.23h21.321Zm6.4-5-4.264-2.336V5507.5l4.264-2.333Zm0,0" fill=""/>
  </g>
</svg>
