<svg xmlns="http://www.w3.org/2000/svg" width="29.747" height="30.117" viewBox="0 0 29.747 30.117">
  <g id="组_1560" data-name="组 1560" transform="translate(-1574.824 -5425.258)">
    <path id="路径_575" data-name="路径 575" d="M1583.323,5450.063a1.063,1.063,0,0,1,0-2.125h12.749a1.063,1.063,0,1,1,0,2.125Zm6.311-8.253h0a3.172,3.172,0,0,1-2.464-1.164l-8.361-10.178a3.187,3.187,0,0,1,2.463-5.21h16.721a3.188,3.188,0,0,1,2.463,5.21l-8.36,10.178a3.186,3.186,0,0,1-2.462,1.164Zm-8.362-14.427a1.064,1.064,0,0,0-.82,1.737l8.361,10.178a1.061,1.061,0,0,0,1.642,0l8.359-10.176a1.065,1.065,0,0,0-.822-1.737Zm0,0" fill=""/>
    <path id="路径_576" data-name="路径 576" d="M1601.384,5455.375h-23.373a3.191,3.191,0,0,1-3.187-3.187v-14.874a3.191,3.191,0,0,1,3.187-3.187h.416v2.125h-.416a1.064,1.064,0,0,0-1.062,1.062v14.874a1.063,1.063,0,0,0,1.062,1.062h23.373a1.062,1.062,0,0,0,1.063-1.062v-14.874a1.064,1.064,0,0,0-1.063-1.062h-.76v-2.125h.76a3.191,3.191,0,0,1,3.187,3.187v14.874a3.191,3.191,0,0,1-3.187,3.187Zm0,0" fill=""/>
  </g>
</svg>
