<svg xmlns="http://www.w3.org/2000/svg" width="30.411" height="28.388" viewBox="0 0 30.411 28.388">
  <g id="组_1638" data-name="组 1638" transform="translate(-1838.692 -5708.618)">
    <path id="路径_770" data-name="路径 770" d="M1850.216,5726.917a.615.615,0,0,0-.2-.393l-1.162-1.027a6.082,6.082,0,0,1,10.685,1.115,1.013,1.013,0,1,0,1.879-.758,8.1,8.1,0,0,0-14.09-1.707l-1.185-1.048a.608.608,0,0,0-1.008.519l.4,3.791a.608.608,0,0,0,.668.541l3.474-.365a.608.608,0,0,0,.542-.668Zm11.472,2.769-3.46.486a.608.608,0,0,0-.3,1.073l1.092.9a6.069,6.069,0,0,1-10.759-.974,1.014,1.014,0,1,0-1.88.758,8.111,8.111,0,0,0,14.227,1.524l1.312,1.08a.608.608,0,0,0,.988-.553l-.53-3.775a.61.61,0,0,0-.688-.519Zm0,0" fill=""/>
    <path id="路径_771" data-name="路径 771" d="M1863.28,5714.908a10.142,10.142,0,0,0-18.764,0,7.606,7.606,0,0,0-1.675,14.17,1.015,1.015,0,1,0,.923-1.807,5.577,5.577,0,0,1,1.659-10.477l.6-.094.2-.578a8.113,8.113,0,0,1,15.346,0l.2.578.6.094a5.578,5.578,0,0,1,1.658,10.478,1.016,1.016,0,0,0,.923,1.807,7.607,7.607,0,0,0-1.673-14.171Zm0,0" fill=""/>
  </g>
</svg>
