<svg xmlns="http://www.w3.org/2000/svg" width="29.849" height="30.22" viewBox="0 0 29.849 30.22">
  <g id="组_1598" data-name="组 1598" transform="translate(-1101.679 -5566.339)">
    <path id="路径_668" data-name="路径 668" d="M1110.207,5591.229a1.066,1.066,0,1,1,0-2.132H1123a1.066,1.066,0,1,1,0,2.132Zm6.332-8.281h0a3.188,3.188,0,0,1-2.472-1.168l-8.389-10.213a3.2,3.2,0,0,1,2.471-5.228h16.778a3.2,3.2,0,0,1,2.471,5.228l-8.389,10.213a3.2,3.2,0,0,1-2.47,1.168Zm-8.39-14.477a1.068,1.068,0,0,0-.823,1.743l8.389,10.213a1.065,1.065,0,0,0,1.648,0l8.388-10.211a1.069,1.069,0,0,0-.825-1.743Zm0,0" fill=""/>
    <path id="路径_669" data-name="路径 669" d="M1128.33,5596.559h-23.453a3.2,3.2,0,0,1-3.2-3.2v-14.924a3.2,3.2,0,0,1,3.2-3.2h.417v2.132h-.417a1.068,1.068,0,0,0-1.066,1.066v14.924a1.067,1.067,0,0,0,1.066,1.066h23.453a1.066,1.066,0,0,0,1.066-1.066v-14.924a1.067,1.067,0,0,0-1.066-1.066h-.763v-2.132h.763a3.2,3.2,0,0,1,3.2,3.2v14.924a3.2,3.2,0,0,1-3.2,3.2Zm0,0" fill=""/>
  </g>
</svg>
