<svg xmlns="http://www.w3.org/2000/svg" width="27.711" height="30.402" viewBox="0 0 27.711 30.402">
  <g id="组_1498" data-name="组 1498" transform="translate(-1207.714 -5277.629)">
    <path id="路径_446" data-name="路径 446" d="M1228.719,5285.776l-5.982-3.892a2.467,2.467,0,0,0-2.385-.073l-5.941,3.532a.805.805,0,0,0,.008,1.485l5.983,3.893a2.47,2.47,0,0,0,2.385.072l5.942-3.533a.8.8,0,0,0-.01-1.484Zm0,0" fill=""/>
    <path id="路径_447" data-name="路径 447" d="M1234.109,5284.867l-10.006-6.51a5.327,5.327,0,0,0-5.11-.144l-9.939,5.907a2.516,2.516,0,0,0-1.34,2.08,2.617,2.617,0,0,0,1.316,2.209l10.005,6.51a5.017,5.017,0,0,0,2.715.749,4.747,4.747,0,0,0,2.4-.6l9.937-5.908a2.514,2.514,0,0,0,1.34-2.08,2.61,2.61,0,0,0-1.315-2.208Zm-1.108,2.461-9.938,5.908a3.215,3.215,0,0,1-2.867-.1l-10.006-6.511c-.268-.174-.352-.333-.351-.384s.076-.164.3-.3l9.938-5.908a2.673,2.673,0,0,1,1.311-.306,2.929,2.929,0,0,1,1.556.405l10.007,6.51c.266.174.35.333.349.383s-.074.165-.3.3Zm0,0" fill=""/>
    <path id="路径_448" data-name="路径 448" d="M1232.913,5293.568l-9.881,5.874a3.042,3.042,0,0,1-2.844-.1l-9.949-6.473a1.062,1.062,0,0,0-1.159,1.781l9.949,6.473a5.006,5.006,0,0,0,2.7.751,4.72,4.72,0,0,0,2.39-.608l9.882-5.874a1.062,1.062,0,1,0-1.086-1.826Zm0,0" fill=""/>
    <path id="路径_449" data-name="路径 449" d="M1232.907,5299.723l-9.881,5.875a3.05,3.05,0,0,1-2.844-.1l-9.949-6.474a1.062,1.062,0,0,0-1.159,1.78l9.949,6.474a5,5,0,0,0,2.7.75,4.715,4.715,0,0,0,2.39-.607l9.882-5.874a1.063,1.063,0,1,0-1.085-1.827Zm0,0" fill=""/>
  </g>
</svg>
