<svg xmlns="http://www.w3.org/2000/svg" width="28.845" height="28.267" viewBox="0 0 28.845 28.267">
  <g id="组_1634" data-name="组 1634" transform="translate(-1308.226 -5708.678)">
    <path id="路径_758" data-name="路径 758" d="M1331.776,5728.5l1.7-1.378a9.693,9.693,0,0,0-12.2-15.066l-1.632,1.322-3.483-4.343a1.014,1.014,0,0,0-1.561,1.294l20.287,25.291a1.014,1.014,0,0,0,1.561-1.294Zm-8.9-14.475a7.159,7.159,0,0,1,9.01,11.128l-1.693,1.37-3.76-4.688,2.688-2.239-1.623-1.948-2.651,2.21-3.613-4.5Zm-.449,18.787a7.159,7.159,0,0,1-9.01-11.127l3.515-2.846-1.594-1.97-3.516,2.846a9.693,9.693,0,0,0,12.2,15.067l3.33-2.7-1.595-1.969Zm0,0" fill=""/>
    <path id="路径_759" data-name="路径 759" d="M1320.6,5723.4l1.622,1.946-3.987,3.322-1.622-1.946Zm0,0" fill=""/>
  </g>
</svg>
