<svg xmlns="http://www.w3.org/2000/svg" width="31.872" height="31.872" viewBox="0 0 31.872 31.872">
  <g id="组_1530" data-name="组 1530" transform="translate(-1889.808 -5349.361)">
    <path id="路径_511" data-name="路径 511" d="M1905.744,5381.233a15.936,15.936,0,1,1,15.936-15.936,15.936,15.936,0,0,1-15.936,15.936Zm0-2.125a13.811,13.811,0,1,0-13.812-13.811,13.811,13.811,0,0,0,13.812,13.811Zm0,0" fill=""/>
    <path id="路径_512" data-name="路径 512" d="M1899.9,5364.235a1.063,1.063,0,0,0,0,2.125h13.812a1.063,1.063,0,0,0,0-2.125Zm0,0" fill=""/>
    <path id="路径_513" data-name="路径 513" d="M1899.267,5365.3l5.025-5.67a1.062,1.062,0,1,0-1.589-1.409l-5.651,6.375a1.062,1.062,0,0,0,0,1.408l5.652,6.375a1.062,1.062,0,1,0,1.589-1.409Zm0,0" fill=""/>
  </g>
</svg>
