<svg xmlns="http://www.w3.org/2000/svg" width="29.555" height="27.717" viewBox="0 0 29.555 27.717">
  <g id="组_1588" data-name="组 1588" transform="translate(-1470.772 -5567.591)">
    <path id="路径_645" data-name="路径 645" d="M1475.808,5575.874h-2.132v-5.085a3.2,3.2,0,0,1,3.2-3.2h20.255a3.2,3.2,0,0,1,3.2,3.2v21.321a3.2,3.2,0,0,1-3.2,3.2h-20.255a3.2,3.2,0,0,1-3.2-3.2V5587.9h2.132v4.207a1.066,1.066,0,0,0,1.066,1.065h20.255a1.065,1.065,0,0,0,1.066-1.065v-21.321a1.066,1.066,0,0,0-1.066-1.066h-20.255a1.066,1.066,0,0,0-1.066,1.066Zm0,0" fill=""/>
    <path id="路径_646" data-name="路径 646" d="M1487.358,5578.08a1.066,1.066,0,1,1,1.326-1.67l4.941,3.926a1.066,1.066,0,0,1-.663,1.9h-21.123a1.066,1.066,0,1,1,0-2.132h18.068l-2.548-2.025Zm0,0" fill=""/>
  </g>
</svg>
