<svg xmlns="http://www.w3.org/2000/svg" width="28.064" height="32" viewBox="0 0 28.064 32">
  <g id="组_1643" data-name="组 1643" transform="translate(-2209.085 -5777.625)">
    <rect id="矩形_838" data-name="矩形 838" width="13.461" height="1.979" transform="translate(2216.386 5792.635)" fill=""/>
    <path id="路径_779" data-name="路径 779" d="M2236.493,5785.145l-12.721-7.345a1.313,1.313,0,0,0-1.311,0l-12.721,7.345a1.309,1.309,0,0,0-.655,1.135v14.689a1.309,1.309,0,0,0,.655,1.135l12.721,7.345a1.313,1.313,0,0,0,1.311,0l12.721-7.345a1.31,1.31,0,0,0,.656-1.135V5786.28A1.31,1.31,0,0,0,2236.493,5785.145Zm-1.464,14.628a1.263,1.263,0,0,1-.631,1.094l-10.65,6.149a1.265,1.265,0,0,1-1.263,0l-10.65-6.149a1.266,1.266,0,0,1-.631-1.094v-12.3a1.266,1.266,0,0,1,.631-1.094l10.65-6.149a1.265,1.265,0,0,1,1.263,0l10.65,6.149a1.263,1.263,0,0,1,.631,1.094Z" fill=""/>
  </g>
</svg>
