<svg xmlns="http://www.w3.org/2000/svg" width="27.623" height="27.623" viewBox="0 0 27.623 27.623">
  <g id="组_1534" data-name="组 1534" transform="translate(-1365.674 -5351.474)">
    <path id="路径_518" data-name="路径 518" d="M1392.234,5364.223a1.028,1.028,0,0,0-.124.025,1.083,1.083,0,0,0-.125-.025h-11.437v-11.554c0-.023-.012-.043-.014-.066s.014-.043.014-.066a1.063,1.063,0,0,0-1.063-1.063,13.812,13.812,0,1,0,13.812,13.811,1.063,1.063,0,0,0-1.063-1.062Zm-12.749,12.749a11.684,11.684,0,0,1-1.062-23.319v11.632a1.063,1.063,0,0,0,1.062,1.063h11.633a11.7,11.7,0,0,1-11.633,10.624Zm3.774-22.751a11.8,11.8,0,0,1,7.2,7.033,1.062,1.062,0,1,0,1.994-.732,13.753,13.753,0,0,0-8.507-8.312,1.062,1.062,0,0,0-.686,2.011Zm0,0" fill=""/>
  </g>
</svg>
