<svg xmlns="http://www.w3.org/2000/svg" width="30.411" height="29.4" viewBox="0 0 30.411 29.4">
  <g id="组_1625" data-name="组 1625" transform="translate(-2154.237 -5637.172)">
    <path id="路径_734" data-name="路径 734" d="M2178.825,5643.463a10.141,10.141,0,0,0-18.764,0,7.6,7.6,0,0,0,1.779,15h2.9a1.013,1.013,0,1,0,0-2.027h-2.9a5.576,5.576,0,0,1-.872-11.084l.6-.094.2-.578a8.113,8.113,0,0,1,15.346,0l.2.578.6.094a5.576,5.576,0,0,1-.872,11.084h-3.081a1.013,1.013,0,1,0,0,2.027h3.081a7.6,7.6,0,0,0,1.78-15Zm0,0" fill=""/>
    <path id="路径_735" data-name="路径 735" d="M2173.807,5660.675l-3.351,2.743v-13.575a1.014,1.014,0,1,0-2.027,0v13.575l-3.382-2.769a1.013,1.013,0,0,0-1.284,1.568l5.038,4.125a1.011,1.011,0,0,0,1.285,0l5.007-4.1a1.014,1.014,0,1,0-1.286-1.567Zm0,0" fill=""/>
  </g>
</svg>
