<svg xmlns="http://www.w3.org/2000/svg" width="30.411" height="30.41" viewBox="0 0 30.411 30.41">
  <g id="组_1611" data-name="组 1611" transform="translate(-1523.051 -5636.667)">
    <path id="路径_700" data-name="路径 700" d="M1538.256,5667.077a15.205,15.205,0,1,1,15.206-15.205,15.205,15.205,0,0,1-15.206,15.205Zm0-2.027a13.178,13.178,0,1,0-13.177-13.178,13.177,13.177,0,0,0,13.177,13.178Zm0,0" fill=""/>
    <path id="路径_701" data-name="路径 701" d="M1530.147,5652.886a1.014,1.014,0,0,1,0-2.028h16.219a1.014,1.014,0,0,1,0,2.028Zm0,0" fill=""/>
    <path id="路径_702" data-name="路径 702" d="M1537.243,5643.763a1.013,1.013,0,1,1,2.027,0v16.219a1.013,1.013,0,0,1-2.027,0Zm0,0" fill=""/>
  </g>
</svg>
