<svg xmlns="http://www.w3.org/2000/svg" width="29" height="29" viewBox="0 0 29 29">
  <g id="组_1659" data-name="组 1659" transform="translate(-1256.692 -5848.865)">
    <path id="路径_817" data-name="路径 817" d="M1266.731,5848.865h-6.693a3.346,3.346,0,0,0-3.346,3.346v6.692a3.346,3.346,0,0,0,3.346,3.346h6.693a3.346,3.346,0,0,0,3.346-3.346v-6.692a3.346,3.346,0,0,0-3.346-3.346Zm1.115,10.038a1.116,1.116,0,0,1-1.115,1.116h-6.693a1.116,1.116,0,0,1-1.115-1.116v-6.692a1.115,1.115,0,0,1,1.115-1.115h6.693a1.115,1.115,0,0,1,1.115,1.115Zm-1.115,5.577h-6.693a3.346,3.346,0,0,0-3.346,3.346v6.693a3.346,3.346,0,0,0,3.346,3.346h6.693a3.346,3.346,0,0,0,3.346-3.346v-6.693a3.346,3.346,0,0,0-3.346-3.346Zm1.115,10.039a1.115,1.115,0,0,1-1.115,1.115h-6.693a1.115,1.115,0,0,1-1.115-1.115v-6.693a1.115,1.115,0,0,1,1.115-1.115h6.693a1.115,1.115,0,0,1,1.115,1.115Zm14.5-10.039h-6.692a3.347,3.347,0,0,0-3.347,3.346v6.693a3.347,3.347,0,0,0,3.347,3.346h6.692a3.346,3.346,0,0,0,3.346-3.346v-6.693a3.346,3.346,0,0,0-3.346-3.346Zm1.115,10.039a1.115,1.115,0,0,1-1.115,1.115h-6.692a1.116,1.116,0,0,1-1.116-1.115v-6.693a1.116,1.116,0,0,1,1.116-1.115h6.692a1.115,1.115,0,0,1,1.115,1.115Zm0,0" fill=""/>
    <path id="路径_818" data-name="路径 818" d="M1272.307,5855.557a6.693,6.693,0,1,0,6.693-6.692,6.693,6.693,0,0,0-6.693,6.692Zm0,0" fill=""/>
  </g>
</svg>
