<svg xmlns="http://www.w3.org/2000/svg" width="30.41" height="30.41" viewBox="0 0 30.41 30.41">
  <g id="组_1617" data-name="组 1617" transform="translate(-1575.758 -5636.667)">
    <path id="路径_716" data-name="路径 716" d="M1590.963,5667.077a15.205,15.205,0,1,1,15.2-15.205,15.205,15.205,0,0,1-15.2,15.205Zm0-2.027a13.178,13.178,0,1,0-13.178-13.178,13.178,13.178,0,0,0,13.178,13.178Zm0,0" fill=""/>
    <path id="路径_717" data-name="路径 717" d="M1598.224,5646.55a1.014,1.014,0,0,1,1.483,1.382l-9.988,10.714a1.014,1.014,0,0,1-1.393.085l-6.124-5.144a1.013,1.013,0,1,1,1.3-1.552l5.388,4.525,9.331-10.011Zm0,0" fill=""/>
  </g>
</svg>
