<svg xmlns="http://www.w3.org/2000/svg" width="30.159" height="28.672" viewBox="0 0 30.159 28.672">
  <path id="路径_755" data-name="路径 755" d="M2007.051,5642.554l-4.626,4.456,18.7,19.2,4.928-5.509Zm14.013,20.684-15.764-16.182,1.757-1.692,16.18,15.446Zm-19.677-17.534,4.447-4.247-1.881-1.843a3.115,3.115,0,0,0-4.273.019,3.054,3.054,0,0,0-.037,4.273Zm6.674-8.168h2.028v2.028h-2.028Zm-3.041,19.26h2.028v2.028h-2.028Zm-9.123-10.137h2.028v2.028H1995.9Zm6.357,4.441-1.916-.661-.523,1.514-1.545-.48-.6,1.935,1.484.462-.49,1.423,1.916.661.512-1.482,1.451.45.6-1.936-1.391-.432Zm12.655-6.8,1.942.582.466-1.557,1.445.448.6-1.935-1.463-.455.445-1.484-1.942-.582-.44,1.465-1.473-.457-.6,1.935,1.493.464Zm0,0" transform="translate(-1995.897 -5637.536)" fill=""/>
</svg>
