<svg xmlns="http://www.w3.org/2000/svg" width="14.874" height="22.31" viewBox="0 0 14.874 22.31">
  <path id="路径_489" data-name="路径 489" d="M1798.826,5363.054l-.825-4.131h-1.65l-.83,4.131-.827-4.131h-1.652l1.653,7.437h1.652l.827-4.683.827,4.683h1.651l1.4-7.437H1799.4Zm6.888,1.28a1.069,1.069,0,0,1-.877.359,1.088,1.088,0,0,1-.928-.445,2.9,2.9,0,0,1-.331-1.639,2.806,2.806,0,0,1,.276-1.416,1.161,1.161,0,0,1,1.053-.608,1.113,1.113,0,0,1,.55.137,1.215,1.215,0,0,1,.415.392,1.765,1.765,0,0,1,.2.481l1.785-.437a3.23,3.23,0,0,0-1.051-1.686,3.084,3.084,0,0,0-1.943-.549,3.118,3.118,0,0,0-2.442.958,3.959,3.959,0,0,0-.864,2.743,4.385,4.385,0,0,0,.491,2.2,2.871,2.871,0,0,0,1.167,1.2,3.854,3.854,0,0,0,1.742.342,3.285,3.285,0,0,0,1.448-.28,2.5,2.5,0,0,0,.953-.829,3.745,3.745,0,0,0,.562-1.367l-1.771-.589a2.3,2.3,0,0,1-.431,1.039Zm-4.172,11.972h-2.125v2.8H1794.1v2.125h12.749v-2.125h-5.312Zm0,0" transform="translate(-1793.042 -5358.923)" fill=""/>
</svg>
