<svg xmlns="http://www.w3.org/2000/svg" width="29.748" height="31.872" viewBox="0 0 29.748 31.872">
  <path id="路径_547" data-name="路径 547" d="M1814.184,5444.566h1.063V5428.63h-1.063v-.9a3.324,3.324,0,0,0-3.289-3.35H1789.85a3.323,3.323,0,0,0-3.288,3.35v.9H1785.5v15.936h1.063v8.336a3.324,3.324,0,0,0,3.288,3.351h15.937a1.06,1.06,0,0,0,.7-.261l5.108-4.436a1.062,1.062,0,1,0-1.392-1.6l-3.452,3v-3.969a1.2,1.2,0,0,1,1.165-1.228h5.233a.967.967,0,0,0,1.029-1.231c0-.019.01-.035.01-.055Zm-25.5-16.835a1.2,1.2,0,0,1,1.163-1.226H1810.9a1.2,1.2,0,0,1,1.164,1.226v.9h-23.372Zm12.684,9.724-.26.044h-.135q-.439,0-1.127-.811l-.766-.756v.045l-.022,3.685q-.272.7-.766.7h-.225q-.5,0-.766-.7v-6.016q0-.484.675-.766h.316q.37,0,1.228.969l1.521,1.5q2.345-2.355,2.424-2.356a.725.725,0,0,1,.325-.112h.225q.484,0,.766.676v6.039c0,.331-.237.587-.71.766h-.281a.881.881,0,0,1-.665-.439,1.351,1.351,0,0,1-.125-.688v-3.3a11.677,11.677,0,0,1-1.632,1.523Zm-6.236.507v.159a2.262,2.262,0,0,1-1.431,2.062,3.53,3.53,0,0,1-1.34.179h-1.849q-.5,0-.766-.7v-5.972q0-.4.676-.766l.18-.046h2.288a2.281,2.281,0,0,1,2.1,1.453,2.867,2.867,0,0,1,.146.857,2.382,2.382,0,0,1-.484,1.408v.045a1.988,1.988,0,0,1,.484,1.319Zm16.924,7.667h-4.147a3.324,3.324,0,0,0-3.289,3.351v5.148H1789.85a1.2,1.2,0,0,1-1.163-1.226v-8.336h23.372Zm.178-9.977a2.643,2.643,0,0,1-1.194,2.1,2.738,2.738,0,0,1-1.319.416h-.991v.925q0,.891-.3,1.036,0,.114-.484.237h-.225q-.5,0-.767-.7v-6.018c0-.33.233-.587.7-.766h2.073a2.638,2.638,0,0,1,2.085,1.183,2.694,2.694,0,0,1,.428,1.329v.26Zm0,0" transform="translate(-1785.499 -5424.381)" fill=""/>
</svg>
