<svg xmlns="http://www.w3.org/2000/svg" width="29.747" height="30.809" viewBox="0 0 29.747 30.809">
  <path id="路径_610" data-name="路径 610" d="M1494.8,5800.53a4.252,4.252,0,0,0-4.159,3.381l-10.568,0c-.277-.185-.446-1.448-.545-2.316h3.067a2.646,2.646,0,1,0-.49-2.125h-2.863c-.386-2.1-1.273-4.25-4.055-4.25h-4.822a1.063,1.063,0,0,0,0,2.125h4.823c1.073,0,1.565.657,1.882,2.125h-6.7a1.063,1.063,0,0,0,0,2.125h7.024c.223,1.994.517,4.443,2.73,4.443h10.564c.026,0,.048-.013.073-.015a4.241,4.241,0,1,0,4.044-5.491Zm0,6.375a2.125,2.125,0,1,1,2.126-2.125,2.125,2.125,0,0,1-2.126,2.125Zm-24.435-13.812h12.766a.97.97,0,0,0,.126-.025,4.25,4.25,0,1,0,0-2.074.97.97,0,0,0-.126-.025h-12.766a1.062,1.062,0,1,0,0,2.124Zm17-3.187a2.126,2.126,0,1,1-2.126,2.125,2.125,2.125,0,0,1,2.126-2.125Zm-17-.87h4.823c3.593,0,4.037-3,4.3-4.787.222-1.511.358-1.78.629-1.78h9.912a2.647,2.647,0,1,0-.489-2.124h-9.423c-2.2,0-2.52,2.162-2.731,3.593-.313,2.113-.6,2.973-2.2,2.973h-4.823a1.063,1.063,0,0,0,0,2.125Zm0,0" transform="translate(-1469.303 -5778.22)" fill=""/>
</svg>
