<svg xmlns="http://www.w3.org/2000/svg" width="29.849" height="29.849" viewBox="0 0 29.849 29.849">
  <path id="路径_623" data-name="路径 623" d="M1269.779,5792.559l-7.981-7.98a1.067,1.067,0,0,1,1.509-1.508l7.979,7.98v-11.285a1.066,1.066,0,0,1,2.132,0v11.285l7.979-7.98a1.067,1.067,0,0,1,1.509,1.508l-7.981,7.98h11.285a1.066,1.066,0,1,1,0,2.132h-11.285l7.979,7.979a1.066,1.066,0,1,1-1.507,1.507l-7.979-7.979v11.285a1.066,1.066,0,0,1-2.132,0V5796.2l-7.979,7.98a1.067,1.067,0,0,1-1.509-1.508l7.981-7.979h-11.285a1.066,1.066,0,1,1,0-2.132Zm0,0" transform="translate(-1257.427 -5778.7)" fill=""/>
</svg>
