<svg xmlns="http://www.w3.org/2000/svg" width="27.114" height="28.383" viewBox="0 0 27.114 28.383">
  <path id="路径_736" data-name="路径 736" d="M2066.392,5846.271a1.014,1.014,0,0,1,2.028,0v6.082a1.014,1.014,0,1,1-2.028,0Zm8.8,4.181-2.8,3.853a1.014,1.014,0,0,1-1.641-1.192l3.575-4.921a1.014,1.014,0,1,1,1.641,1.192l-.776,1.068m4.43,3.961a1.013,1.013,0,1,1,.626,1.928l-5.785,1.88a1.014,1.014,0,0,1-.626-1.928Zm.626,8.144a1.013,1.013,0,1,1-.626,1.928l-5.785-1.879a1.013,1.013,0,0,1,.626-1.928Zm-4.28,6.958a1.014,1.014,0,1,1-1.641,1.192l-3.575-4.92a1.014,1.014,0,1,1,1.641-1.192Zm-7.552,3.112a1.014,1.014,0,1,1-2.028,0v-6.082a1.014,1.014,0,1,1,2.028,0Zm-7.939-1.921a1.014,1.014,0,0,1-1.641-1.192l3.575-4.92a1.014,1.014,0,1,1,1.641,1.192Zm-5.295-6.221a1.013,1.013,0,1,1-.626-1.928l5.785-1.879a1.013,1.013,0,0,1,.626,1.928Zm-.626-8.144a1.013,1.013,0,0,1,.626-1.928l5.785,1.88a1.014,1.014,0,1,1-.626,1.928Zm4.28-6.958a1.014,1.014,0,0,1,1.641-1.192l3.575,4.921a1.014,1.014,0,0,1-1.641,1.192Zm0,0" transform="translate(-2053.849 -5845.258)" fill=""/>
</svg>
