<svg xmlns="http://www.w3.org/2000/svg" width="25.342" height="30.41" viewBox="0 0 25.342 30.41">
  <path id="路径_697" data-name="路径 697" d="M1857.925,5661.191a1.014,1.014,0,0,1-.9-1.007v-2.557a1.014,1.014,0,0,1,.419-.821,11.753,11.753,0,0,0,3.951-5.359,1.017,1.017,0,0,1,.621-.608c.309-.106.682-.767,1.027-2.24a1.312,1.312,0,0,0-.526-1.6,1.016,1.016,0,0,1-.483-.776c-.433-4.83-3.167-7.533-7.472-7.533-4.379,0-7.22,2.79-7.624,7.68a1.014,1.014,0,0,1-.476.778,1.087,1.087,0,0,0-.514,1.394,3.853,3.853,0,0,0,1.166,2.17,1.01,1.01,0,0,1,.415.519,11.919,11.919,0,0,0,4.014,5.5,1.014,1.014,0,0,1,.414.817v2.636a1.014,1.014,0,0,1-.9,1.007c-3.964.466-6.735,1.723-7.158,2.809.073.033.163.069.266.1a13.391,13.391,0,0,0,2.443.51,71.394,71.394,0,0,0,15.757,0,13.4,13.4,0,0,0,2.442-.51,2.751,2.751,0,0,0,.266-.1c-.423-1.086-3.194-2.342-7.157-2.808Zm1.133-1.894c4.794.718,8.109,2.508,8.109,4.986,0,2.122-4.947,2.794-12.671,2.794s-12.671-.672-12.671-2.794c0-2.478,3.315-4.268,8.11-4.986v-1.252a14.017,14.017,0,0,1-4.2-5.832,5.993,5.993,0,0,1-1.727-3.1,3.064,3.064,0,0,1,.961-3.377c.64-5.635,4.279-9.071,9.6-9.071,5.246,0,8.775,3.349,9.443,8.915a3.363,3.363,0,0,1,1.012,3.48c-.421,1.8-.977,2.931-1.868,3.473a13.9,13.9,0,0,1-4.1,5.594Zm0,0" transform="translate(-1841.825 -5636.667)" fill=""/>
</svg>
