<svg xmlns="http://www.w3.org/2000/svg" width="28.991" height="32" viewBox="0 0 28.991 32">
  <path id="路径_742" data-name="路径 742" d="M1283.565,5714.262a1.013,1.013,0,0,0-1.4.286l-4.016,6.072-3.44-1.646a1.013,1.013,0,1,0-.874,1.828l4.235,2.027a1.017,1.017,0,0,0,1.283-.355l4.5-6.808a1.012,1.012,0,0,0-.286-1.4Zm-10.4,13.757-6.235-3.309,5.509-5.7a1.014,1.014,0,0,0-.28-1.613l-5.866-2.9a1.011,1.011,0,0,0-.794-.045l-6,2.167a1.014,1.014,0,1,0,.689,1.907l5.591-2.02,4.233,2.09-5.479,5.666a1.041,1.041,0,0,0-.1.173,1.007,1.007,0,0,0-.212.36l-1.972,5.948-6.617,3.192a1.014,1.014,0,1,0,.881,1.825l7-3.379a1.013,1.013,0,0,0,.523-.594l1.782-5.377,5.478,2.908-4.438,7.979a1.014,1.014,0,1,0,1.772.986l4.941-8.884a1.016,1.016,0,0,0-.411-1.388Zm1.744-11.07a5.069,5.069,0,1,0-5.068-5.069,5.075,5.075,0,0,0,5.068,5.069Zm0-8.11a3.041,3.041,0,1,1-3.041,3.041,3.045,3.045,0,0,1,3.041-3.041Zm0,0" transform="translate(-1255.028 -5706.812)" fill=""/>
</svg>
