<svg xmlns="http://www.w3.org/2000/svg" width="20.821" height="20.186" viewBox="0 0 20.821 20.186">
  <path id="路径_500" data-name="路径 500" d="M1168.995,5360.53a1.063,1.063,0,0,0,1.063-1.063v-2.125a1.063,1.063,0,0,0-2.125,0v2.125a1.063,1.063,0,0,0,1.062,1.063Zm-8.967,2.306a1.062,1.062,0,1,0-1.188,1.761l1.761,1.188a1.062,1.062,0,1,0,1.188-1.761Zm18.889.082a1.063,1.063,0,0,0-1.5-.1l-1.6,1.393a1.063,1.063,0,0,0,1.394,1.6l1.6-1.394a1.062,1.062,0,0,0,.1-1.5Zm-6.754,10.36a1.057,1.057,0,0,0-.012-.257l-2.125-8.5a.916.916,0,0,0-.06-.127,1.085,1.085,0,0,0-.1-.206,1.025,1.025,0,0,0-.13-.144,1.054,1.054,0,0,0-.156-.14,1.069,1.069,0,0,0-.188-.09.87.87,0,0,0-.14-.065.429.429,0,0,0-.05,0,1.02,1.02,0,0,0-.209-.01,1.008,1.008,0,0,0-.207.01.444.444,0,0,0-.051,0,.876.876,0,0,0-.144.069,1.186,1.186,0,0,0-.182.086,1.083,1.083,0,0,0-.163.145.717.717,0,0,0-.222.344,1.106,1.106,0,0,0-.062.128l-2.125,8.5a1.011,1.011,0,0,0-.011.257h-.02c0,.047.012.09.014.136l0,.044a3.174,3.174,0,0,0,6.339,0l0-.044c0-.045.014-.089.014-.136Zm-3.168,1.063a1.056,1.056,0,0,1-1.047-.99l1.047-4.193,1.048,4.191a1.056,1.056,0,0,1-1.048.992Zm0,0" transform="translate(-1158.357 -5356.28)" fill=""/>
</svg>
