<svg xmlns="http://www.w3.org/2000/svg" width="29.747" height="24.405" viewBox="0 0 29.747 24.405">
  <path id="路径_499" data-name="路径 499" d="M1168.995,5353.093a14.89,14.89,0,0,0-14.873,14.873,14.727,14.727,0,0,0,3.123,9.12,1.062,1.062,0,0,0,1.678-1.3,12.633,12.633,0,0,1-2.676-7.818,12.749,12.749,0,0,1,25.5,0,12.628,12.628,0,0,1-2.677,7.818,1.061,1.061,0,1,0,1.677,1.3,14.716,14.716,0,0,0,3.125-9.12,14.89,14.89,0,0,0-14.874-14.873Zm0,0" transform="translate(-1154.122 -5353.093)" fill=""/>
</svg>
