<svg xmlns="http://www.w3.org/2000/svg" width="28.382" height="27.322" viewBox="0 0 28.382 27.322">
  <path id="路径_720" data-name="路径 720" d="M1266.578,5665.533a1.015,1.015,0,0,1-1-1.183l1.467-8.648-6.213-6.122a1.013,1.013,0,0,1,.563-1.724l8.577-1.26,3.838-7.862a1.055,1.055,0,0,1,1.822,0l3.837,7.862,8.577,1.26a1.014,1.014,0,0,1,.565,1.724l-6.213,6.122,1.433,8.452a1.014,1.014,0,0,1-.947,1.379h-.02a1.008,1.008,0,0,1-.476-.119l-7.667-4.076-7.668,4.076a1.015,1.015,0,0,1-.477.119Zm-2.871-15.968,5.139,5.065a1.017,1.017,0,0,1,.288.891l-1.211,7.137,6.325-3.361a1.015,1.015,0,0,1,.951,0l6.324,3.361-1.21-7.137a1.013,1.013,0,0,1,.288-.891l5.138-5.065-7.091-1.042a1.013,1.013,0,0,1-.763-.559l-3.162-6.475-3.161,6.475a1.015,1.015,0,0,1-.764.559Zm0,0" transform="translate(-1260.532 -5638.211)" fill=""/>
</svg>
