<svg xmlns="http://www.w3.org/2000/svg" width="30.384" height="29.903" viewBox="0 0 30.384 29.903">
  <path id="路径_634" data-name="路径 634" d="M1337.833,5803.246v-19.3a2.665,2.665,0,1,0-3.144-3.144h-19.3a2.665,2.665,0,1,0-3.144,3.144v19.3a2.665,2.665,0,1,0,3.144,3.145h19.3a2.968,2.968,0,1,0,3.145-3.144Zm-23.453.492v-20.282a2.668,2.668,0,0,0,.52-.519h20.281a2.69,2.69,0,0,0,.519.519v20.281a2.691,2.691,0,0,0-.52.521H1314.9a2.633,2.633,0,0,0-.52-.52Zm0,0" transform="translate(-1310.116 -5778.673)" fill=""/>
</svg>
