<svg xmlns="http://www.w3.org/2000/svg" width="28.684" height="28.685" viewBox="0 0 28.684 28.685">
  <path id="路径_475" data-name="路径 475" d="M1656.765,5788.476l-8.572-8.571a2.12,2.12,0,0,0-1.5-.623h-15.864a2.124,2.124,0,0,0-2.124,2.125v24.435a2.124,2.124,0,0,0,2.124,2.125h24.436a2.124,2.124,0,0,0,2.124-2.125v-15.864a2.127,2.127,0,0,0-.622-1.5Zm-21.157-7.069h6.375v3.718h-6.375Zm14.874,24.435h-14.874v-4.781h14.874Zm4.781,0h-2.656V5800a1.062,1.062,0,0,0-1.063-1.062h-17a1.062,1.062,0,0,0-1.063,1.062v5.843h-2.656v-24.435h2.656v4.781a1.062,1.062,0,0,0,1.063,1.062h8.5a1.062,1.062,0,0,0,1.062-1.062v-4.781h2.584l8.572,8.571Zm0,0" transform="translate(-1628.703 -5779.282)" fill=""/>
</svg>
