<svg xmlns="http://www.w3.org/2000/svg" width="28.28" height="28.22" viewBox="0 0 28.28 28.22">
  <path id="路径_647" data-name="路径 647" d="M1580.021,5569.975a1.066,1.066,0,0,0-1.066,1.065v6.4a1.066,1.066,0,0,0,1.066,1.066h6.4a1.066,1.066,0,0,0,1.066-1.066v-6.4a1.066,1.066,0,0,0-1.066-1.065Zm0-2.133h6.4a3.2,3.2,0,0,1,3.2,3.2v6.4a3.2,3.2,0,0,1-3.2,3.2h-6.4a3.2,3.2,0,0,1-3.2-3.2v-6.4a3.2,3.2,0,0,1,3.2-3.2Zm0,17.057a1.066,1.066,0,0,0-1.066,1.066v6.4a1.065,1.065,0,0,0,1.066,1.066h6.4a1.065,1.065,0,0,0,1.066-1.066v-6.4a1.066,1.066,0,0,0-1.066-1.066Zm0-2.132h6.4a3.2,3.2,0,0,1,3.2,3.2v6.4a3.2,3.2,0,0,1-3.2,3.2h-6.4a3.2,3.2,0,0,1-3.2-3.2v-6.4a3.2,3.2,0,0,1,3.2-3.2Zm14.924,2.132a1.066,1.066,0,0,0-1.066,1.066v6.4a1.065,1.065,0,0,0,1.066,1.066h6.4a1.065,1.065,0,0,0,1.066-1.066v-6.4a1.066,1.066,0,0,0-1.066-1.066Zm0-2.132h6.4a3.2,3.2,0,0,1,3.2,3.2v6.4a3.2,3.2,0,0,1-3.2,3.2h-6.4a3.2,3.2,0,0,1-3.2-3.2v-6.4a3.2,3.2,0,0,1,3.2-3.2Zm-1.257-9.252a1.067,1.067,0,0,0,0,1.508l3.731,3.731a1.066,1.066,0,0,0,1.509,0l3.731-3.731a1.064,1.064,0,0,0,0-1.508l-3.731-3.731a1.066,1.066,0,0,0-1.509,0Zm-1.507-1.508,3.731-3.731a3.2,3.2,0,0,1,4.523,0l3.731,3.731a3.2,3.2,0,0,1,0,4.523l-3.731,3.732a3.2,3.2,0,0,1-4.523,0l-3.731-3.732a3.2,3.2,0,0,1,0-4.523Zm0,0" transform="translate(-1576.823 -5567.339)" fill=""/>
</svg>
