<svg xmlns="http://www.w3.org/2000/svg" width="27.472" height="30.831" viewBox="0 0 27.472 30.831">
  <path id="路径_684" data-name="路径 684" d="M2219.664,5510.267l6.485-6.913a1.065,1.065,0,0,0-.092-1.546l-7.336-6.159a1.067,1.067,0,0,0-1.753.815v11.129l-5.771-5.726a1.066,1.066,0,1,0-1.5,1.514l6.995,6.94-7.022,7.485a1.068,1.068,0,0,0,1.556,1.46l5.743-6.125v12.023a1.066,1.066,0,0,0,1.84.733l7.337-7.735a1.067,1.067,0,0,0-.023-1.49Zm-.564-11.515,4.723,3.965-4.723,5.036Zm0,23.739v-9.78l4.78,4.741Zm10.241-17.839a1.067,1.067,0,1,0-1.772,1.188,6.875,6.875,0,0,1,0,7.623,1.066,1.066,0,0,0,1.77,1.188,9.01,9.01,0,0,0,0-10Zm6.385-.511a14.662,14.662,0,0,0-1.371-2.566,1.066,1.066,0,1,0-1.771,1.186,12.711,12.711,0,0,1,0,14.108,1.067,1.067,0,0,0,1.771,1.188,14.846,14.846,0,0,0,1.371-13.916Zm0,0" transform="translate(-2209.381 -5495.399)" fill=""/>
</svg>
