<svg xmlns="http://www.w3.org/2000/svg" width="26.372" height="25.342" viewBox="0 0 26.372 25.342">
  <path id="路径_769" data-name="路径 769" d="M2108.275,5576.888a4.052,4.052,0,0,0,3.754-2.534h17.538a1.014,1.014,0,1,0,0-2.028h-17.288a4.046,4.046,0,1,0-4,4.562Zm0-6.082a2.027,2.027,0,1,1-2.028,2.027,2.027,2.027,0,0,1,2.028-2.027Zm21.3,15.205H2112.33a.993.993,0,0,0-.135.027,4.054,4.054,0,1,0,0,1.973.993.993,0,0,0,.135.027h17.248a1.013,1.013,0,1,0,0-2.027Zm-21.3,3.041a2.028,2.028,0,1,1,2.028-2.027,2.026,2.026,0,0,1-2.028,2.027Zm21.3-10.137h-9.139a1.013,1.013,0,1,0,0,2.027h9.139a1.013,1.013,0,1,0,0-2.027Zm0,13.178h-9.139a1.014,1.014,0,1,0,0,2.027h9.139a1.014,1.014,0,1,0,0-2.027Zm0,0" transform="translate(-2104.22 -5568.778)" fill=""/>
</svg>
