<svg xmlns="http://www.w3.org/2000/svg" width="26.356" height="29.396" viewBox="0 0 26.356 29.396">
  <path id="路径_752" data-name="路径 752" d="M1546.3,5712.355v-1.2a3.041,3.041,0,0,0-3.041-3.041h-16.219a3.041,3.041,0,0,0-3.041,3.041v1.2a3.04,3.04,0,1,0,2.027,0v-1.2a1.014,1.014,0,0,1,1.014-1.014h7.1v17.232h-.422a2.112,2.112,0,0,0-2.107,2.119l-.44,5.991h-3.113a1.014,1.014,0,0,0,0,2.027h15.206a1.013,1.013,0,0,0,0-2.027h-4.126l-.443-6.065a2.1,2.1,0,0,0-2.1-2.045h-.422v-17.232h7.1a1.014,1.014,0,0,1,1.013,1.014v1.2a3.041,3.041,0,1,0,2.028,0Zm-21.288,3.868a1.014,1.014,0,1,1,1.014-1.014,1.013,1.013,0,0,1-1.014,1.014Zm11.652,13.269.436,5.991h-3.9l.433-5.917c0-.128.039-.165.081-.165h2.872a.085.085,0,0,1,.079.091Zm8.622-13.269a1.014,1.014,0,1,1,1.014-1.014,1.014,1.014,0,0,1-1.014,1.014Zm0,0" transform="translate(-1521.97 -5708.114)" fill=""/>
</svg>
