<svg xmlns="http://www.w3.org/2000/svg" width="28.206" height="30.732" viewBox="0 0 28.206 30.732">
  <path id="路径_682" data-name="路径 682" d="M1974.014,5868.629h-2.758c-3.622,0-5.617,1.96-5.617,5.517a2.453,2.453,0,1,1-4.907,0v-4.634a11.426,11.426,0,0,0,10.037-11.323v-3.527h.623a1.066,1.066,0,0,0,0-2.132h-4.05v-3.464a1.066,1.066,0,0,0-2.132,0v3.464h-11.718v-3.464a1.066,1.066,0,0,0-2.132,0v3.464h-3.42a1.066,1.066,0,0,0,0,2.132v3.527a11.42,11.42,0,0,0,10.66,11.376v4.582a4.586,4.586,0,0,0,9.172,0c0-2.373,1.043-3.385,3.485-3.385h2.758a1.066,1.066,0,0,0,0-2.132Zm-23.942-10.441v-3.527h18.565v3.527a9.282,9.282,0,1,1-18.565,0Zm0,0" transform="translate(-1946.874 -5847.999)" fill=""/>
</svg>
