<svg xmlns="http://www.w3.org/2000/svg" width="29.747" height="31.872" viewBox="0 0 29.747 31.872">
  <path id="路径_578" data-name="路径 578" d="M1550.835,5444.566h1.062V5428.63h-1.062v-.9a3.324,3.324,0,0,0-3.289-3.35H1526.5a3.323,3.323,0,0,0-3.288,3.35v.9h-1.063v15.936h1.063v8.336a3.324,3.324,0,0,0,3.288,3.351h15.937a1.062,1.062,0,0,0,.7-.261l5.108-4.436a1.062,1.062,0,1,0-1.392-1.6l-3.452,3v-3.969a1.2,1.2,0,0,1,1.165-1.228h5.233a1.061,1.061,0,0,0,1.062-1.062.973.973,0,0,0-.034-.169c0-.019.011-.035.011-.055Zm-2.125,1.063h-4.147a3.325,3.325,0,0,0-3.29,3.351v5.148H1526.5a1.2,1.2,0,0,1-1.164-1.226v-8.336h23.373Zm-22.31-6.08v-5.916q0-.487.686-.753h2.039a2.591,2.591,0,0,1,2.049,1.163,2.64,2.64,0,0,1,.421,1.307v.255a2.593,2.593,0,0,1-1.174,2.06,2.686,2.686,0,0,1-1.3.41h-.976v.908q0,.876-.3,1.019c0,.075-.158.152-.476.233h-.222c-.325,0-.576-.229-.753-.686Zm6.27,0v-5.916q0-.475.665-.753h.31q.366,0,1.164.908l3.467,3.446v-3.246q0-.875.621-1.086l.154-.022h.221q.476,0,.753.686v5.916q0,.475-.676.753h-.3q-.376,0-1.164-.908l-3.467-3.446v3.146c0,.531-.107.868-.321,1.008a.86.86,0,0,1-.454.2h-.221c-.326,0-.577-.229-.754-.686Zm11.377-1.2a1.957,1.957,0,0,0,.654.133h.177a1.667,1.667,0,0,0,1.008-.343v-.454H1544.5c-.318,0-.568-.232-.753-.7v-.277a.841.841,0,0,1,.432-.653,1.244,1.244,0,0,1,.676-.133h1.684q.875,0,1.085.631l.022.155v1.939q0,.6-1.474,1.329a3.989,3.989,0,0,1-1.2.255h-.365a3.659,3.659,0,0,1-3.5-3.5v-.354a3.66,3.66,0,0,1,3.5-3.5h.365a3.74,3.74,0,0,1,1.972.686q.7.488.7.953v.155a.977.977,0,0,1-.266.543,1.078,1.078,0,0,1-.6.233,1.306,1.306,0,0,1-.853-.454,1.79,1.79,0,0,0-1.053-.365h-.177a1.874,1.874,0,0,0-1.707,1.2,1.837,1.837,0,0,0-.132.643v.177a1.872,1.872,0,0,0,1.185,1.705Zm4.663-9.722h-23.373v-.9a1.2,1.2,0,0,1,1.164-1.226h21.045a1.2,1.2,0,0,1,1.164,1.226Zm0,0" transform="translate(-1522.15 -5424.381)" fill=""/>
</svg>
