<svg xmlns="http://www.w3.org/2000/svg" width="28.384" height="25.342" viewBox="0 0 28.384 25.342">
  <path id="路径_751" data-name="路径 751" d="M2156.544,5579.929H2167.7v-11.151h-11.151Zm2.028-9.123h7.095v7.095h-7.095Zm-2.028,23.314H2167.7v-11.15h-11.151Zm2.028-9.123h7.095v7.1h-7.095Zm12.634-13.178h12.708a1.013,1.013,0,1,0,0-2.027h-12.708a1.013,1.013,0,0,0,0,2.027Zm12.708,12.164h-12.708a1.014,1.014,0,0,0,0,2.028h12.708a1.014,1.014,0,0,0,0-2.028Zm0-7.095h-12.708a1.013,1.013,0,0,0,0,2.027h12.708a1.013,1.013,0,1,0,0-2.027Zm0,14.191h-12.708a1.013,1.013,0,0,0,0,2.027h12.708a1.013,1.013,0,1,0,0-2.027Zm0,0" transform="translate(-2156.544 -5568.778)" fill=""/>
</svg>
