<svg xmlns="http://www.w3.org/2000/svg" width="24.661" height="31.082" viewBox="0 0 24.661 31.082">
  <path id="路径_826" data-name="路径 826" d="M1551.158,5856.49l-4.549-4.484a1.053,1.053,0,0,0-.741-.3h-6.548a.984.984,0,0,0,.014-.135,3.885,3.885,0,0,0-7.764,0v.135h-3.706a1.055,1.055,0,0,0-1.054,1.055v25.093a1.054,1.054,0,0,0,1.054,1.056h22.553a1.054,1.054,0,0,0,1.054-1.056v-20.61a1.05,1.05,0,0,0-.313-.75Zm-17.4-4.923a1.7,1.7,0,0,1,3.4,0,1.192,1.192,0,0,0,.012.135h-3.408v-.135Zm15.607,25.229h-20.443v-22.983h2.651v7.608a3.885,3.885,0,0,0,7.764,0v-4.377a1.091,1.091,0,0,0-2.183,0v4.378a1.7,1.7,0,0,1-3.4,0v-7.609h11.479v3.438a.631.631,0,0,0,.633.632h3.494Zm0,0" transform="translate(-1526.81 -5847.824)" fill=""/>
</svg>
