<svg xmlns="http://www.w3.org/2000/svg" width="26.356" height="30.468" viewBox="0 0 26.356 30.468">
  <path id="路径_724" data-name="路径 724" d="M2130.227,5730.664l-1.671-1.422v-7.477a11.156,11.156,0,0,0-8.136-10.739,3.041,3.041,0,1,0-6.028,0,11.156,11.156,0,0,0-8.136,10.739v7.535l-1.655,1.351a1.012,1.012,0,0,0-.373.785v2.015a1.014,1.014,0,0,0,1.014,1.013h5.958c.081.142.162.284.253.42a7.1,7.1,0,0,0,11.948-.211c.041-.068.074-.14.114-.209h6.055a1.014,1.014,0,0,0,1.014-1.013v-2.015a1.012,1.012,0,0,0-.357-.772Zm-12.869,5.353a5.049,5.049,0,0,1-3.64-1.554H2121a5.046,5.046,0,0,1-3.641,1.554Zm11.2-3.581h-22.3v-.519l2.027-1.655v-8.5a9.128,9.128,0,0,1,6.657-8.787l1.7-.475-.237-1.749a1.013,1.013,0,1,1,2.009,0l-.238,1.749,1.7.475a9.128,9.128,0,0,1,6.657,8.787v8.413l2.027,1.727Zm0,0" transform="translate(-2104.228 -5707.578)" fill=""/>
</svg>
