<svg xmlns="http://www.w3.org/2000/svg" width="22.913" height="28.444" viewBox="0 0 22.913 28.444">
  <path id="路径_712" data-name="路径 712" d="M1383.532,5710.46a9.284,9.284,0,0,0-13,1.828l-3.946,5.237a1.014,1.014,0,1,0,1.619,1.22l3.946-5.238a7.258,7.258,0,1,1,11.592,8.736l-8.089,10.735a5.19,5.19,0,0,1-8.29-6.246L1375.45,5716a3.122,3.122,0,0,1,4.987,3.758l-6.845,9.083a1.054,1.054,0,1,1-1.684-1.269q4.094-5.492,5.212-6.977a1.014,1.014,0,1,0-1.62-1.22q-1.122,1.491-5.215,6.982a3.081,3.081,0,1,0,4.924,3.705l6.935-9.2a1.3,1.3,0,0,0,.066-.137,5.138,5.138,0,0,0-8.38-5.942l-8.09,10.735a7.218,7.218,0,0,0,11.528,8.688l8.089-10.735a9.282,9.282,0,0,0-1.825-13.006Zm0,0" transform="translate(-1364.317 -5708.59)" fill=" "/>
</svg>
