<svg xmlns="http://www.w3.org/2000/svg" width="29.747" height="31.872" viewBox="0 0 29.747 31.872">
  <path id="路径_568" data-name="路径 568" d="M1708.844,5444.566h1.063V5428.63h-1.063v-.9a3.323,3.323,0,0,0-3.289-3.35H1684.51a3.324,3.324,0,0,0-3.288,3.35v.9h-1.062v15.936h1.062v8.336a3.325,3.325,0,0,0,3.288,3.351h15.937a1.06,1.06,0,0,0,.7-.261l5.108-4.436a1.062,1.062,0,1,0-1.392-1.6l-3.451,3v-3.969a1.2,1.2,0,0,1,1.164-1.228h5.233a1.062,1.062,0,0,0,1.063-1.062,1.073,1.073,0,0,0-.034-.169c0-.019.01-.035.01-.055Zm-2.124,1.063h-4.148a3.324,3.324,0,0,0-3.289,3.351v5.148H1684.51a1.2,1.2,0,0,1-1.163-1.226v-8.336h23.373Zm-18.065-6.816a2.1,2.1,0,0,0,.708.144h.193a1.807,1.807,0,0,0,1.093-.372v-.493h-1.5q-.516,0-.816-.756v-.3a.916.916,0,0,1,.468-.709,1.341,1.341,0,0,1,.733-.144h1.825c.632,0,1.026.228,1.177.684l.025.168v2.1q0,.649-1.6,1.442a4.331,4.331,0,0,1-1.3.276h-.4a3.97,3.97,0,0,1-3.8-3.795v-.384a3.968,3.968,0,0,1,3.794-3.795h.4a4.042,4.042,0,0,1,2.137.745q.758.528.757,1.032v.168a1.061,1.061,0,0,1-.288.589,1.175,1.175,0,0,1-.649.253,1.412,1.412,0,0,1-.925-.493,1.93,1.93,0,0,0-1.141-.4h-.192a2.056,2.056,0,0,0-1.994,2v.192a2.033,2.033,0,0,0,1.287,1.849Zm6.163,1.3V5433.7q0-.529.744-.817h.313q.528,0,.817.745v6.413q0,.53-.745.817h-.312q-.53,0-.817-.744Zm6.256-3.832v.348h2.438c.353,0,.629.253.829.756v.3a.913.913,0,0,1-.48.709,1.292,1.292,0,0,1-.721.144h-2.065v1.069q0,.962-.564,1.153,0,.06-.276.1h-.24q-.53,0-.817-.744V5433.7q0-.529.744-.817h4.06q.529,0,.828.745v.312c0,.353-.251.625-.756.817h-3Zm5.646-7.649h-23.373v-.9a1.2,1.2,0,0,1,1.163-1.226h21.045a1.2,1.2,0,0,1,1.165,1.226Zm0,0" transform="translate(-1680.16 -5424.381)" fill=""/>
</svg>
