<svg xmlns="http://www.w3.org/2000/svg" width="26.496" height="25.038" viewBox="0 0 26.496 25.038">
  <path id="路径_745" data-name="路径 745" d="M1417.154,5712.4a1.514,1.514,0,1,0,1.059.443,1.448,1.448,0,0,0-1.059-.443Zm0,5.11a1.205,1.205,0,0,0-1.2,1.2v14.43a1.2,1.2,0,0,0,2.4,0v-14.43a1.205,1.205,0,0,0-1.2-1.2Zm12.806-7.214q-7.213,0-7.214,7.214v.9h-1.2a1.2,1.2,0,0,0,0,2.4h1.2v12.325a1.2,1.2,0,0,0,2.406,0v-12.325h3.622a1.2,1.2,0,0,0,0-2.4h-3.622v-.9q0-4.809,4.809-4.81a1.2,1.2,0,1,0,0-2.4Zm11.873,14.138a8.9,8.9,0,0,0-.762-2.1q-.3-.591-.663-1.165t-.753-1.129a1.117,1.117,0,0,0-.573-.555,1.142,1.142,0,0,0-.7-.063,1.05,1.05,0,0,0-.583.385,1.127,1.127,0,0,0-.224.77,1.027,1.027,0,0,0,.171.529l.313.457q.359.538.707,1.093a6.381,6.381,0,0,1,.583,1.183,9.127,9.127,0,0,1,.484,2.017,12.732,12.732,0,0,1,.089,2.24,11.324,11.324,0,0,1-.322,2.213,6.767,6.767,0,0,1-.789,1.918c-.084.131-.161.244-.233.34a2.285,2.285,0,0,1-.224.26l-.493.492-.25.269a1.787,1.787,0,0,0-.18.583,1.1,1.1,0,0,0,.063.546.878.878,0,0,0,.341.413,1.1,1.1,0,0,0,.618.161,1.242,1.242,0,0,0,.753-.251,4.442,4.442,0,0,0,.609-.539,5.726,5.726,0,0,0,1.031-1.531,16.732,16.732,0,0,0,.691-1.73,12.816,12.816,0,0,0,.483-2.159,13.281,13.281,0,0,0,.117-2.338,12.333,12.333,0,0,0-.3-2.312Zm-6.306,8.738a.561.561,0,0,0-.048-.054l-.189-.215c-.087-.1-.174-.2-.259-.3a2.147,2.147,0,0,1-.233-.332,7.1,7.1,0,0,1-.789-1.89,10.267,10.267,0,0,1-.322-2.106,12.771,12.771,0,0,1,.072-2.142,12.573,12.573,0,0,1,.483-2.294,3.076,3.076,0,0,1,.152-.349q.3-.6.636-1.182c.107-.168.248-.37.421-.61a4,4,0,0,0,.429-.744,1.479,1.479,0,0,0,.135-.753.861.861,0,0,0-.466-.635.935.935,0,0,0-.833-.126,1.855,1.855,0,0,0-.708.484,3.883,3.883,0,0,0-.565.77l-.4.717c-.179.334-.359.666-.537.994a5.228,5.228,0,0,0-.43,1.048,13.633,13.633,0,0,0-.591,4.453,11.969,11.969,0,0,0,.985,4.4q.144.359.43.931a6.984,6.984,0,0,0,.681,1.093,3.3,3.3,0,0,0,.887.824,1.131,1.131,0,0,0,1.031.108.928.928,0,0,0,.645-.726,1.592,1.592,0,0,0-.18-.978Zm0,0" transform="translate(-1415.65 -5710.293)" fill=""/>
</svg>
