<svg xmlns="http://www.w3.org/2000/svg" width="28.44" height="29.397" viewBox="0 0 28.44 29.397">
  <path id="路径_744" data-name="路径 744" d="M1920.51,5587.761c-.527-.372-1.426-2.691-2.088-4.394l-.352-.9h2.282a1.013,1.013,0,1,0,0-2.027h-3.1c-1.731-4.094-4.1-8.323-8.047-9.069v-3.6a1.014,1.014,0,1,0-2.028,0v3.527c-4.4.5-6.535,5.12-8.208,9.144H1894a1.013,1.013,0,0,0,0,2.027h4.125c-.959,2.242-1.963,4.209-3.111,4.209a1.014,1.014,0,1,0,0,2.027c2.579,0,3.946-2.952,5.311-6.236h6.853v12.671a1.014,1.014,0,1,0,2.028,0v-12.671h6.687c.224.559.438,1.11.643,1.637,1.329,3.423,2.207,5.684,3.885,5.684a1.014,1.014,0,0,0,.093-2.023Zm-19.344-7.325c1.412-3.317,3.106-6.59,6.008-7.1v7.1Zm8.036,0v-6.974c2.586.756,4.419,3.79,5.836,6.974Zm0,0" transform="translate(-1892.983 -5566.751)" fill=""/>
</svg>
