<svg xmlns="http://www.w3.org/2000/svg" width="27.623" height="29.565" viewBox="0 0 27.623 29.565">
  <path id="路径_601" data-name="路径 601" d="M1431.678,5425.522c-5.131,0-13.812.894-13.812,4.249v21.067c0,3.354,8.681,4.249,13.812,4.249s13.811-.9,13.811-4.249v-21.067c0-3.355-8.682-4.249-13.811-4.249Zm-11.687,13.072c2.9,1.372,8.14,1.8,11.687,1.8s8.793-.43,11.691-1.805l0,4.923c-.395.791-4.621,2.194-11.694,2.194-7.042,0-11.26-1.39-11.687-2.183Zm11.687-.323c-7.042,0-11.26-1.391-11.687-2.184v-3.867c2.9,1.372,8.14,1.8,11.687,1.8s8.789-.429,11.687-1.8l0,3.864c-.413.793-4.634,2.189-11.689,2.189Zm0-10.624c6.868,0,11.054,1.323,11.653,2.124-.6.8-4.785,2.125-11.653,2.125s-11.055-1.323-11.653-2.125c.6-.8,4.784-2.124,11.653-2.124Zm0,25.316c-7.091,0-11.324-1.411-11.687-2.125v-4.808c2.9,1.373,8.14,1.8,11.687,1.8s8.8-.431,11.7-1.807l0,4.737c-.378.79-4.61,2.2-11.7,2.2Zm0,0" transform="translate(-1417.866 -5425.522)" fill=""/>
</svg>
