<svg xmlns="http://www.w3.org/2000/svg" width="26.355" height="31.965" viewBox="0 0 26.355 31.965">
  <path id="路径_768" data-name="路径 768" d="M1960.7,5635.89c-6.831,0-12.389,5.02-12.389,11.192a10.167,10.167,0,0,0,.293,2.429l-1.781,3.987a1.014,1.014,0,0,0,.783,1.418c1.92.274,2.738,1.1,2.738,2.773v3.959a2.03,2.03,0,0,0,2.027,2.028h1.563a1.564,1.564,0,0,1,1.563,1.562v1.6a1.014,1.014,0,0,0,1.014,1.014h4.19a1.014,1.014,0,0,0,1.014-1.014.832.832,0,0,0-.02-.1c0-.019.012-.037.013-.056.215-5.73-.635-9.64-2.6-11.948-1.808-2.13-5.023-2.932-9.542-2.415l1.031-2.308a1.017,1.017,0,0,0,.05-.691,8.147,8.147,0,0,1-.312-2.239c0-5.055,4.648-9.166,10.361-9.166s10.363,4.111,10.363,9.165c0,1.225-.843,3.2-1.658,5.111-.951,2.227-1.934,4.528-1.934,6.36v8.288a1.013,1.013,0,1,0,2.027,0v-8.288c0-1.417.9-3.526,1.771-5.564.937-2.194,1.821-4.266,1.821-5.907,0-6.172-5.557-11.192-12.39-11.192Zm-3.134,20.159c1.511,1.779,2.22,5.078,2.128,9.777h-2.17v-.588a3.6,3.6,0,0,0-3.591-3.59h-1.562v-3.959a4.481,4.481,0,0,0-1.4-3.461c3.165-.2,5.389.4,6.593,1.821Zm0,0" transform="translate(-1946.732 -5635.89)" fill=""/>
</svg>
