<svg xmlns="http://www.w3.org/2000/svg" width="29.747" height="31.872" viewBox="0 0 29.747 31.872">
  <path id="路径_574" data-name="路径 574" d="M1656.175,5444.566h1.062V5428.63h-1.062v-.9a3.324,3.324,0,0,0-3.29-3.35H1631.84a3.324,3.324,0,0,0-3.288,3.35v.9h-1.062v15.936h1.062v8.336a3.325,3.325,0,0,0,3.288,3.351h15.937a1.06,1.06,0,0,0,.7-.261l5.108-4.436a1.062,1.062,0,1,0-1.391-1.6l-3.452,3v-3.969a1.2,1.2,0,0,1,1.164-1.228h5.234a1.062,1.062,0,0,0,1.062-1.062.973.973,0,0,0-.034-.169c0-.019.011-.035.011-.055Zm-25.5-16.835a1.2,1.2,0,0,1,1.163-1.226h21.045a1.2,1.2,0,0,1,1.165,1.226v.9h-23.373Zm18.243,11.332a2.187,2.187,0,0,0,.738.15h.2a1.885,1.885,0,0,0,1.139-.388v-.513h-1.565q-.54,0-.851-.788v-.313a.954.954,0,0,1,.487-.738,1.4,1.4,0,0,1,.764-.151h1.9q.99,0,1.227.714l.025.174v2.191q0,.675-1.664,1.5a4.5,4.5,0,0,1-1.352.288h-.413a4.135,4.135,0,0,1-3.955-3.955v-.4a4.139,4.139,0,0,1,3.955-3.955h.413a4.223,4.223,0,0,1,2.228.775q.789.552.788,1.078v.175a1.105,1.105,0,0,1-.3.613,1.226,1.226,0,0,1-.676.263,1.47,1.47,0,0,1-.963-.513,2.019,2.019,0,0,0-1.189-.413h-.2a2.116,2.116,0,0,0-1.927,1.351,2.083,2.083,0,0,0-.15.726v.2a2.113,2.113,0,0,0,1.338,1.928Zm-4.532-3.392v.288a2.928,2.928,0,0,1-1.327,2.327,3.012,3.012,0,0,1-1.464.464h-1.1v1.026c0,.66-.113,1.043-.338,1.152,0,.083-.18.171-.539.262h-.25q-.552,0-.851-.776v-6.683c0-.368.258-.651.775-.851h2.3a2.927,2.927,0,0,1,2.315,1.314,2.973,2.973,0,0,1,.477,1.477Zm-8.255-2.016v4.256a3.387,3.387,0,0,1-3.267,3.28h-.276q-.55,0-.851-.776v-.325c0-.309.213-.575.639-.8l.926-.175a1.437,1.437,0,0,0,.851-1.227v-3.717q0-.988.589-1.189c0-.042.1-.076.288-.1h.251q.549,0,.85.774Zm10.48,15.325v5.148H1631.84a1.2,1.2,0,0,1-1.163-1.226v-8.336h23.373v1.063H1649.9a3.324,3.324,0,0,0-3.289,3.351Zm0,0" transform="translate(-1627.49 -5424.381)" fill=""/>
</svg>
