<svg xmlns="http://www.w3.org/2000/svg" width="29.454" height="22.648" viewBox="0 0 29.454 22.648">
  <path id="路径_840" data-name="路径 840" d="M1737.154,5874.689a1.74,1.74,0,0,1-1.773-1.7v-19.244a1.74,1.74,0,0,1,1.773-1.7h25.909a1.74,1.74,0,0,1,1.772,1.7v19.244a1.74,1.74,0,0,1-1.772,1.7Zm7.826-9.407a.764.764,0,0,1,.534.213.691.691,0,0,1,0,1l-7,6.761h23.323l-7-6.761a.694.694,0,0,1,0-1,.776.776,0,0,1,1.068,0l7.438,7.179V5854.55l-11.588,11.186c-.119.113-.216.217-.305.31a1.074,1.074,0,0,1-.994.478,2.825,2.825,0,0,1-1.98-.788l-11.588-11.186V5872.8l7.565-7.3A.764.764,0,0,1,1744.98,5865.282Zm4.557-.55c.229.221.366.354.571.354s.34-.13.565-.348l11.675-11.268h-24.479Z" transform="translate(-1735.381 -5852.041)" fill=""/>
</svg>
