<svg xmlns="http://www.w3.org/2000/svg" width="28.687" height="29.748" viewBox="0 0 28.687 29.748">
  <path id="路径_432" data-name="路径 432" d="M1284.322,5225.432a4.224,4.224,0,0,0-3.254,1.547l-9.079-5.137a6.315,6.315,0,0,0,.048-5.469l6.794-4.377a4.364,4.364,0,1,0-1.442-1.6l-6.554,4.222a6.373,6.373,0,1,0-.085,8.961l9.4,5.318a4.246,4.246,0,1,0,4.171-3.469Zm-3.187-19.123a2.125,2.125,0,1,1-2.126,2.125,2.125,2.125,0,0,1,2.126-2.125Zm3.187,25.5a2.125,2.125,0,1,1,2.126-2.125,2.127,2.127,0,0,1-2.126,2.125Zm0,0" transform="translate(-1259.885 -5204.184)" fill=""/>
</svg>
