<svg xmlns="http://www.w3.org/2000/svg" width="27.941" height="29.67" viewBox="0 0 27.941 29.67">
  <path id="路径_619" data-name="路径 619" d="M1222.844,5435.741a2.655,2.655,0,1,0-3.391,0l-6.736,17.937a1.062,1.062,0,1,0,1.989.747l1.636-4.358h9.612l1.636,4.358a1.063,1.063,0,0,0,1.991-.746Zm-.043,5.93H1219.5l1.653-4.4Zm-5.66,6.272,1.558-4.147h4.9l1.557,4.147Zm9-10.843a1.063,1.063,0,1,0,1.764,1.184,8.512,8.512,0,0,0,0-9.45,1.063,1.063,0,1,0-1.764,1.185,6.383,6.383,0,0,1,0,7.081Zm-12.369,1.182a1.062,1.062,0,1,0,1.765-1.182,6.379,6.379,0,0,1,0-7.082,1.063,1.063,0,0,0-1.765-1.184,8.5,8.5,0,0,0,0,9.448Zm-2.631-11.152a1.063,1.063,0,1,0-1.767-1.181,13.986,13.986,0,0,0,0,15.527,1.063,1.063,0,1,0,1.766-1.183,11.864,11.864,0,0,1,0-13.163Zm22.761,1.235a13.9,13.9,0,0,0-1.292-2.416,1.062,1.062,0,1,0-1.766,1.181,11.859,11.859,0,0,1,0,13.163,1.063,1.063,0,0,0,1.766,1.183,13.993,13.993,0,0,0,1.292-13.111Zm0,0" transform="translate(-1207.025 -5425.462)" fill=""/>
</svg>
