<svg xmlns="http://www.w3.org/2000/svg" width="26.897" height="27.753" viewBox="0 0 26.897 27.753">
  <path id="路径_624" data-name="路径 624" d="M1847.867,5524.691a1.07,1.07,0,0,1-.74-.3l-7.135-6.89a1.066,1.066,0,0,1-.031-1.5l12.48-13.04-2.571-2.4a1.068,1.068,0,0,1,.6-1.839l14.9-1.775a1.067,1.067,0,0,1,1.19,1.114l-.782,14.94a1.066,1.066,0,0,1-1.792.724l-2.731-2.548-12.619,13.187a1.071,1.071,0,0,1-.749.329Zm-5.631-7.986,5.6,5.409,12.6-13.172a1.064,1.064,0,0,1,1.5-.042l1.829,1.705.6-11.391-11.361,1.354,1.68,1.567a1.063,1.063,0,0,1,.043,1.517Zm0,0" transform="translate(-1839.665 -5496.938)" fill=""/>
</svg>
