<svg xmlns="http://www.w3.org/2000/svg" width="34.113" height="25.584" viewBox="0 0 34.113 25.584">
  <path id="路径_683" data-name="路径 683" d="M2024.835,5510.814a3.188,3.188,0,0,0-1.074.2l-4.843-7.265a3.734,3.734,0,1,0-5.937.457l-4.881,8.949a5.088,5.088,0,0,0-4.261.648l-3.909-4.69a3.177,3.177,0,1,0-1.566,1.452l3.937,4.725a5.341,5.341,0,1,0,7.7-1.172l4.788-8.779a3.544,3.544,0,0,0,2.5-.182l4.811,7.216a3.189,3.189,0,1,0,2.731-1.557Zm-18.122,10.66a3.2,3.2,0,1,1,3.2-3.2,3.2,3.2,0,0,1-3.2,3.2Zm0,0" transform="translate(-1993.92 -5498.022)" fill=""/>
</svg>
